<svg width="153" height="135" viewBox="0 0 153 135" fill="none" xmlns="http://www.w3.org/2000/svg">
<g filter="url(#filter0_d_155_37)">
<path d="M35.1393 42.88L22.3277 49.32C20.8253 50.08 20.5332 52.04 21.7852 53.2L32.6771 63.08L35.1393 42.88V42.88Z" fill="url(#paint0_radial_155_37)"/>
<path d="M35.1393 42.88L22.3277 49.32C20.8253 50.08 20.5332 52.04 21.7852 53.2L32.6771 63.08L35.1393 42.88V42.88Z" fill="url(#paint1_radial_155_37)"/>
<path d="M64.8102 128H57.6324L62.6402 104H56.3804L51.3726 128H43.8609C40.8145 128 38.3106 130.08 37.7264 132.84C37.5594 133.44 38.102 134 38.7279 134H69.9015C70.5692 134 71.0699 133.44 70.9448 132.84C70.3605 130.08 67.8566 128 64.8102 128V128Z" fill="url(#paint2_linear_155_37)"/>
<path d="M64.8102 128H57.6324L62.6402 104H56.3804L51.3726 128H43.8609C40.8145 128 38.3106 130.08 37.7264 132.84C37.5594 133.44 38.102 134 38.7279 134H69.9015C70.5692 134 71.0699 133.44 70.9448 132.84C70.3605 130.08 67.8566 128 64.8102 128V128Z" fill="url(#paint3_linear_155_37)"/>
<path d="M64.8102 128H57.6324L62.6402 104H56.3804L51.3726 128H43.8609C40.8145 128 38.3106 130.08 37.7264 132.84C37.5594 133.44 38.102 134 38.7279 134H69.9015C70.5692 134 71.0699 133.44 70.9448 132.84C70.3605 130.08 67.8566 128 64.8102 128V128Z" fill="url(#paint4_radial_155_37)"/>
<path d="M64.8102 128H57.6324L62.6402 104H56.3804L51.3726 128H43.8609C40.8145 128 38.3106 130.08 37.7264 132.84C37.5594 133.44 38.102 134 38.7279 134H69.9015C70.5692 134 71.0699 133.44 70.9448 132.84C70.3605 130.08 67.8566 128 64.8102 128V128Z" fill="url(#paint5_linear_155_37)"/>
<g filter="url(#filter1_f_155_37)">
<path d="M41.1484 132.312H60.6455" stroke="url(#paint6_linear_155_37)" stroke-opacity="0.75" stroke-width="0.25"/>
</g>
<path d="M85.9268 128H78.4986L83.5064 104H77.2466L72.2388 128H64.7271C61.6807 128 59.1768 130.08 58.5926 132.84C58.4257 133.44 58.9682 134 59.5941 134H91.0181C91.6858 134 92.1865 133.44 92.0614 132.84C91.7739 131.481 91.0073 130.258 89.8902 129.377C88.7731 128.495 87.3736 128.009 85.9268 128V128Z" fill="url(#paint7_linear_155_37)"/>
<path d="M85.9268 128H78.4986L83.5064 104H77.2466L72.2388 128H64.7271C61.6807 128 59.1768 130.08 58.5926 132.84C58.4257 133.44 58.9682 134 59.5941 134H91.0181C91.6858 134 92.1865 133.44 92.0614 132.84C91.7739 131.481 91.0073 130.258 89.8902 129.377C88.7731 128.495 87.3736 128.009 85.9268 128V128Z" fill="url(#paint8_linear_155_37)"/>
<path d="M85.9268 128H78.4986L83.5064 104H77.2466L72.2388 128H64.7271C61.6807 128 59.1768 130.08 58.5926 132.84C58.4257 133.44 58.9682 134 59.5941 134H91.0181C91.6858 134 92.1865 133.44 92.0614 132.84C91.7739 131.481 91.0073 130.258 89.8902 129.377C88.7731 128.495 87.3736 128.009 85.9268 128V128Z" fill="url(#paint9_linear_155_37)"/>
<path d="M85.9268 128H78.4986L83.5064 104H77.2466L72.2388 128H64.7271C61.6807 128 59.1768 130.08 58.5926 132.84C58.4257 133.44 58.9682 134 59.5941 134H91.0181C91.6858 134 92.1865 133.44 92.0614 132.84C91.7739 131.481 91.0073 130.258 89.8902 129.377C88.7731 128.495 87.3736 128.009 85.9268 128V128Z" fill="url(#paint10_radial_155_37)"/>
<g filter="url(#filter2_f_155_37)">
<path d="M61.3638 132.312H89.9917" stroke="url(#paint11_linear_155_37)" stroke-opacity="0.75" stroke-width="0.25"/>
</g>
<path d="M80.627 114L81.2112 93.08L128.702 71.88C129.16 71.6773 129.665 71.5876 130.169 71.6193C130.673 71.6509 131.16 71.8028 131.588 72.0612C132.015 72.3196 132.368 72.6762 132.614 73.0986C132.861 73.5211 132.994 73.9959 133 74.48V111.08C133 112.68 131.665 113.96 129.995 113.96H80.627V114V114Z" fill="url(#paint12_linear_155_37)"/>
<path d="M80.627 114L81.2112 93.08L128.702 71.88C129.16 71.6773 129.665 71.5876 130.169 71.6193C130.673 71.6509 131.16 71.8028 131.588 72.0612C132.015 72.3196 132.368 72.6762 132.614 73.0986C132.861 73.5211 132.994 73.9959 133 74.48V111.08C133 112.68 131.665 113.96 129.995 113.96H80.627V114V114Z" fill="url(#paint13_linear_155_37)"/>
<path d="M80.627 114L81.2112 93.08L128.702 71.88C129.16 71.6773 129.665 71.5876 130.169 71.6193C130.673 71.6509 131.16 71.8028 131.588 72.0612C132.015 72.3196 132.368 72.6762 132.614 73.0986C132.861 73.5211 132.994 73.9959 133 74.48V111.08C133 112.68 131.665 113.96 129.995 113.96H80.627V114V114Z" fill="url(#paint14_linear_155_37)"/>
<path d="M81.7948 38.88C81.2523 37.2 80.5428 35.6 79.6247 34.12H82.2121C87.5955 34.12 91.9356 29.96 91.9356 24.8C91.9356 23.28 90.6001 22 89.0143 22H57.8825C44.6119 22 33.7616 31.92 32.8853 44.44L27.5019 89.16C25.9161 102.4 36.6829 114 50.5795 114H107.961L81.7948 38.88V38.88Z" fill="url(#paint15_linear_155_37)"/>
<path d="M81.7948 38.88C81.2523 37.2 80.5428 35.6 79.6247 34.12H82.2121C87.5955 34.12 91.9356 29.96 91.9356 24.8C91.9356 23.28 90.6001 22 89.0143 22H57.8825C44.6119 22 33.7616 31.92 32.8853 44.44L27.5019 89.16C25.9161 102.4 36.6829 114 50.5795 114H107.961L81.7948 38.88V38.88Z" fill="url(#paint16_linear_155_37)"/>
<path d="M81.7948 38.88C81.2523 37.2 80.5428 35.6 79.6247 34.12H82.2121C87.5955 34.12 91.9356 29.96 91.9356 24.8C91.9356 23.28 90.6001 22 89.0143 22H57.8825C44.6119 22 33.7616 31.92 32.8853 44.44L27.5019 89.16C25.9161 102.4 36.6829 114 50.5795 114H107.961L81.7948 38.88V38.88Z" fill="url(#paint17_radial_155_37)"/>
<path d="M81.7948 38.88C81.2523 37.2 80.5428 35.6 79.6247 34.12H82.2121C87.5955 34.12 91.9356 29.96 91.9356 24.8C91.9356 23.28 90.6001 22 89.0143 22H57.8825C44.6119 22 33.7616 31.92 32.8853 44.44L27.5019 89.16C25.9161 102.4 36.6829 114 50.5795 114H107.961L81.7948 38.88V38.88Z" fill="url(#paint18_linear_155_37)"/>
<path d="M81.7948 38.88C81.2523 37.2 80.5428 35.6 79.6247 34.12H82.2121C87.5955 34.12 91.9356 29.96 91.9356 24.8C91.9356 23.28 90.6001 22 89.0143 22H57.8825C44.6119 22 33.7616 31.92 32.8853 44.44L27.5019 89.16C25.9161 102.4 36.6829 114 50.5795 114H107.961L81.7948 38.88V38.88Z" fill="url(#paint19_radial_155_37)"/>
<path d="M63.4756 58V85.72C63.4756 93.2204 66.5841 100.413 72.1172 105.717C77.6503 111.021 85.1548 114 92.9799 114H107.962L88.4728 58H63.4756Z" fill="url(#paint20_linear_155_37)"/>
<path d="M50.2209 50.092C50.7743 50.092 51.305 49.8813 51.6963 49.5062C52.0876 49.1312 52.3074 48.6224 52.3074 48.092C52.3074 47.5616 52.0876 47.0529 51.6963 46.6778C51.305 46.3027 50.7743 46.092 50.2209 46.092C49.6675 46.092 49.1367 46.3027 48.7454 46.6778C48.3541 47.0529 48.1343 47.5616 48.1343 48.092C48.1343 48.6224 48.3541 49.1312 48.7454 49.5062C49.1367 49.8813 49.6675 50.092 50.2209 50.092Z" fill="url(#paint21_radial_155_37)"/>
<path d="M50.2209 50.092C50.7743 50.092 51.305 49.8813 51.6963 49.5062C52.0876 49.1312 52.3074 48.6224 52.3074 48.092C52.3074 47.5616 52.0876 47.0529 51.6963 46.6778C51.305 46.3027 50.7743 46.092 50.2209 46.092C49.6675 46.092 49.1367 46.3027 48.7454 46.6778C48.3541 47.0529 48.1343 47.5616 48.1343 48.092C48.1343 48.6224 48.3541 49.1312 48.7454 49.5062C49.1367 49.8813 49.6675 50.092 50.2209 50.092Z" fill="url(#paint22_radial_155_37)"/>
<path d="M50.2209 50.092C50.7743 50.092 51.305 49.8813 51.6963 49.5062C52.0876 49.1312 52.3074 48.6224 52.3074 48.092C52.3074 47.5616 52.0876 47.0529 51.6963 46.6778C51.305 46.3027 50.7743 46.092 50.2209 46.092C49.6675 46.092 49.1367 46.3027 48.7454 46.6778C48.3541 47.0529 48.1343 47.5616 48.1343 48.092C48.1343 48.6224 48.3541 49.1312 48.7454 49.5062C49.1367 49.8813 49.6675 50.092 50.2209 50.092Z" fill="url(#paint23_linear_155_37)"/>
<g filter="url(#filter3_f_155_37)">
<path d="M69.2549 89.068L62.2231 38.748H77.0796L101.985 105.36C102.106 105.685 102.138 106.034 102.076 106.374C102.015 106.714 101.862 107.033 101.634 107.3C101.406 107.567 101.11 107.773 100.774 107.898C100.439 108.022 100.075 108.062 99.719 108.012L86.8907 106.2C82.4094 105.566 78.2649 103.552 75.0834 100.461C71.9018 97.3706 69.856 93.3715 69.2549 89.068V89.068Z" fill="url(#paint24_linear_155_37)"/>
</g>
<g filter="url(#filter4_f_155_37)">
<path d="M79.5542 31.9361C81.9371 32.0161 87.6084 31.7241 89.4029 26.6241" stroke="url(#paint25_linear_155_37)" stroke-width="0.25"/>
</g>
<path fill-rule="evenodd" clip-rule="evenodd" d="M79.6252 34.12C80.5433 35.6 81.2527 37.2 81.7952 38.88L84.032 45.292L66.1709 34.108H82.2125L82.2167 34.12H79.6293H79.6252Z" fill="url(#paint26_linear_155_37)"/>
<g filter="url(#filter5_f_155_37)">
<path d="M130.872 74.2519V109.876" stroke="url(#paint27_linear_155_37)" stroke-width="0.4" stroke-linecap="round"/>
</g>
</g>
<defs>
<filter id="filter0_d_155_37" x="0" y="0" width="154" height="154" filterUnits="userSpaceOnUse" color-interpolation-filters="sRGB">
<feFlood flood-opacity="0" result="BackgroundImageFix"/>
<feColorMatrix in="SourceAlpha" type="matrix" values="0 0 0 0 0 0 0 0 0 0 0 0 0 0 0 0 0 0 127 0" result="hardAlpha"/>
<feOffset dy="-1"/>
<feGaussianBlur stdDeviation="10.5"/>
<feComposite in2="hardAlpha" operator="out"/>
<feColorMatrix type="matrix" values="0 0 0 0 0 0 0 0 0 0 0 0 0 0 0 0 0 0 1 0"/>
<feBlend mode="normal" in2="BackgroundImageFix" result="effect1_dropShadow_155_37"/>
<feBlend mode="normal" in="SourceGraphic" in2="effect1_dropShadow_155_37" result="shape"/>
</filter>
<filter id="filter1_f_155_37" x="40.8984" y="131.937" width="19.9971" height="0.75" filterUnits="userSpaceOnUse" color-interpolation-filters="sRGB">
<feFlood flood-opacity="0" result="BackgroundImageFix"/>
<feBlend mode="normal" in="SourceGraphic" in2="BackgroundImageFix" result="shape"/>
<feGaussianBlur stdDeviation="0.125" result="effect1_foregroundBlur_155_37"/>
</filter>
<filter id="filter2_f_155_37" x="61.1138" y="131.937" width="29.1279" height="0.75" filterUnits="userSpaceOnUse" color-interpolation-filters="sRGB">
<feFlood flood-opacity="0" result="BackgroundImageFix"/>
<feBlend mode="normal" in="SourceGraphic" in2="BackgroundImageFix" result="shape"/>
<feGaussianBlur stdDeviation="0.125" result="effect1_foregroundBlur_155_37"/>
</filter>
<filter id="filter3_f_155_37" x="60.2231" y="36.748" width="43.8838" height="73.2849" filterUnits="userSpaceOnUse" color-interpolation-filters="sRGB">
<feFlood flood-opacity="0" result="BackgroundImageFix"/>
<feBlend mode="normal" in="SourceGraphic" in2="BackgroundImageFix" result="shape"/>
<feGaussianBlur stdDeviation="1" result="effect1_foregroundBlur_155_37"/>
</filter>
<filter id="filter4_f_155_37" x="79.0498" y="26.0826" width="10.9712" height="6.48834" filterUnits="userSpaceOnUse" color-interpolation-filters="sRGB">
<feFlood flood-opacity="0" result="BackgroundImageFix"/>
<feBlend mode="normal" in="SourceGraphic" in2="BackgroundImageFix" result="shape"/>
<feGaussianBlur stdDeviation="0.25" result="effect1_foregroundBlur_155_37"/>
</filter>
<filter id="filter5_f_155_37" x="130.271" y="73.6519" width="1.20039" height="36.824" filterUnits="userSpaceOnUse" color-interpolation-filters="sRGB">
<feFlood flood-opacity="0" result="BackgroundImageFix"/>
<feBlend mode="normal" in="SourceGraphic" in2="BackgroundImageFix" result="shape"/>
<feGaussianBlur stdDeviation="0.2" result="effect1_foregroundBlur_155_37"/>
</filter>
<radialGradient id="paint0_radial_155_37" cx="0" cy="0" r="1" gradientUnits="userSpaceOnUse" gradientTransform="translate(23.8718 51.876) scale(30.2554 17.875)">
<stop stop-color="#EDB134"/>
<stop offset="1" stop-color="#BE8244"/>
</radialGradient>
<radialGradient id="paint1_radial_155_37" cx="0" cy="0" r="1" gradientUnits="userSpaceOnUse" gradientTransform="translate(24.915 51.624) rotate(-11.4839) scale(12.2429 8.47922)">
<stop stop-color="#FFD150"/>
<stop offset="1" stop-color="#FFD150" stop-opacity="0"/>
</radialGradient>
<linearGradient id="paint2_linear_155_37" x1="58.6757" y1="109.808" x2="54.0477" y2="136.7" gradientUnits="userSpaceOnUse">
<stop stop-color="#D69946"/>
<stop offset="1" stop-color="#E99D23"/>
</linearGradient>
<linearGradient id="paint3_linear_155_37" x1="56.8645" y1="111.876" x2="54.5313" y2="125.41" gradientUnits="userSpaceOnUse">
<stop stop-color="#B87E33"/>
<stop offset="1" stop-color="#B87E33" stop-opacity="0"/>
</linearGradient>
<radialGradient id="paint4_radial_155_37" cx="0" cy="0" r="1" gradientUnits="userSpaceOnUse" gradientTransform="translate(61.9516 134) rotate(180) scale(8.99839 10.1866)">
<stop stop-color="#C67500"/>
<stop offset="1" stop-color="#C67500" stop-opacity="0"/>
</radialGradient>
<linearGradient id="paint5_linear_155_37" x1="54.3314" y1="136.876" x2="54.3314" y2="130.748" gradientUnits="userSpaceOnUse">
<stop stop-color="#F15CC7"/>
<stop offset="0.828" stop-color="#F15CC7" stop-opacity="0"/>
</linearGradient>
<linearGradient id="paint6_linear_155_37" x1="-nan" y1="-nan" x2="-nan" y2="-nan" gradientUnits="userSpaceOnUse">
<stop stop-color="#FDB65D"/>
<stop offset="1" stop-color="#FDB65D" stop-opacity="0"/>
</linearGradient>
<linearGradient id="paint7_linear_155_37" x1="79.7004" y1="109.808" x2="75.7203" y2="131.012" gradientUnits="userSpaceOnUse">
<stop stop-color="#D69946"/>
<stop offset="1" stop-color="#E99D23"/>
</linearGradient>
<linearGradient id="paint8_linear_155_37" x1="77.8768" y1="111.876" x2="75.559" y2="125.414" gradientUnits="userSpaceOnUse">
<stop stop-color="#B87E33"/>
<stop offset="1" stop-color="#B87E33" stop-opacity="0"/>
</linearGradient>
<linearGradient id="paint9_linear_155_37" x1="75.3228" y1="136.876" x2="75.3228" y2="130.748" gradientUnits="userSpaceOnUse">
<stop stop-color="#F15CC7"/>
<stop offset="0.828" stop-color="#F15CC7" stop-opacity="0"/>
</linearGradient>
<radialGradient id="paint10_radial_155_37" cx="0" cy="0" r="1" gradientUnits="userSpaceOnUse" gradientTransform="translate(92.0822 132.124) rotate(-173.225) scale(8.47705 5.14299)">
<stop stop-color="#FFBD59"/>
<stop offset="1" stop-color="#FFBD59" stop-opacity="0"/>
</radialGradient>
<linearGradient id="paint11_linear_155_37" x1="-nan" y1="-nan" x2="-nan" y2="-nan" gradientUnits="userSpaceOnUse">
<stop stop-color="#FDB65D"/>
<stop offset="1" stop-color="#FDB65D" stop-opacity="0"/>
</linearGradient>
<linearGradient id="paint12_linear_155_37" x1="80.627" y1="98.548" x2="127.158" y2="98.548" gradientUnits="userSpaceOnUse">
<stop stop-color="#ED1C26"/>
<stop offset="1" stop-color="#EC098C"/>
</linearGradient>
<linearGradient id="paint13_linear_155_37" x1="93.1131" y1="125.5" x2="93.1131" y2="108" gradientUnits="userSpaceOnUse">
<stop offset="0.271" stop-color="#992E9B"/>
<stop offset="1" stop-color="#9F31A1" stop-opacity="0"/>
</linearGradient>
<linearGradient id="paint14_linear_155_37" x1="78.1231" y1="65.752" x2="90.0274" y2="93.1833" gradientUnits="userSpaceOnUse">
<stop stop-color="#302E9B" stop-opacity="0.83"/>
<stop offset="1" stop-color="#9F31A1" stop-opacity="0"/>
</linearGradient>
<linearGradient id="paint15_linear_155_37" x1="52.182" y1="2.288" x2="52.182" y2="131.5" gradientUnits="userSpaceOnUse">
<stop stop-color="#ED1C26"/>
<stop offset="1" stop-color="#EC098C"/>
</linearGradient>
<linearGradient id="paint16_linear_155_37" x1="46.5607" y1="118.752" x2="46.5607" y2="85" gradientUnits="userSpaceOnUse">
<stop stop-color="#3D2E9B" stop-opacity="0.77"/>
<stop offset="1" stop-color="#9F31A1" stop-opacity="0"/>
</linearGradient>
<radialGradient id="paint17_radial_155_37" cx="0" cy="0" r="1" gradientUnits="userSpaceOnUse" gradientTransform="translate(80.7263 94.5019) rotate(134.082) scale(18.7933 25.9028)">
<stop offset="0.525" stop-color="#BA2159"/>
<stop offset="1" stop-color="#BA2159" stop-opacity="0"/>
</radialGradient>
<linearGradient id="paint18_linear_155_37" x1="23.6083" y1="77.752" x2="45.2587" y2="77.752" gradientUnits="userSpaceOnUse">
<stop stop-color="#B2516B"/>
<stop offset="1" stop-color="#B2516B" stop-opacity="0"/>
</linearGradient>
<radialGradient id="paint19_radial_155_37" cx="0" cy="0" r="1" gradientUnits="userSpaceOnUse" gradientTransform="translate(107.961 114) rotate(-125.16) scale(111.155 77.2445)">
<stop offset="0.904" stop-color="#B2516B" stop-opacity="0"/>
<stop offset="1" stop-color="#B2516B"/>
</radialGradient>
<linearGradient id="paint20_linear_155_37" x1="85.7186" y1="102.5" x2="69.7668" y2="54.7199" gradientUnits="userSpaceOnUse">
<stop stop-color="#EC098C"/>
<stop offset="1" stop-color="#ED1746"/>
</linearGradient>
<radialGradient id="paint21_radial_155_37" cx="0" cy="0" r="1" gradientUnits="userSpaceOnUse" gradientTransform="translate(50.8385 47.448) rotate(126.998) scale(2.81722 2.54333)">
<stop offset="0.006" stop-color="#343543"/>
<stop offset="1" stop-color="#3B2838"/>
</radialGradient>
<radialGradient id="paint22_radial_155_37" cx="0" cy="0" r="1" gradientUnits="userSpaceOnUse" gradientTransform="translate(50.9972 47.5951) rotate(138.849) scale(1.47216 1.28896)">
<stop stop-color="#5C5051"/>
<stop offset="1" stop-color="#5C5051" stop-opacity="0"/>
</radialGradient>
<linearGradient id="paint23_linear_155_37" x1="49.8077" y1="46.524" x2="48.4121" y2="45.5943" gradientUnits="userSpaceOnUse">
<stop stop-color="#57505C" stop-opacity="0"/>
<stop offset="1" stop-color="#5C5051"/>
</linearGradient>
<linearGradient id="paint24_linear_155_37" x1="90.6424" y1="97.5" x2="75.8537" y2="23.9999" gradientUnits="userSpaceOnUse">
<stop stop-color="#FF58DA" stop-opacity="0.52"/>
<stop offset="1" stop-color="#FF589B" stop-opacity="0"/>
</linearGradient>
<linearGradient id="paint25_linear_155_37" x1="89.4029" y1="29.1761" x2="81.1992" y2="35.8858" gradientUnits="userSpaceOnUse">
<stop stop-color="#FFB3D1"/>
<stop offset="1" stop-color="#FFB3D1" stop-opacity="0"/>
</linearGradient>
<linearGradient id="paint26_linear_155_37" x1="80.3388" y1="34.108" x2="77.7075" y2="38.7854" gradientUnits="userSpaceOnUse">
<stop stop-color="#A92E39"/>
<stop offset="1" stop-color="#A92E39" stop-opacity="0"/>
</linearGradient>
<linearGradient id="paint27_linear_155_37" x1="-nan" y1="-nan" x2="-nan" y2="-nan" gradientUnits="userSpaceOnUse">
<stop stop-color="#FF5CAB"/>
<stop offset="1" stop-color="#FF5CAB" stop-opacity="0"/>
</linearGradient>
</defs>
</svg>
