<svg width="133" height="57" viewBox="0 0 133 57" fill="none" xmlns="http://www.w3.org/2000/svg">
<rect width="133" height="57" rx="24" fill="white"/>
<path d="M21.5 37H16.1136V19.5455H21.7386C23.4318 19.5455 24.8807 19.8949 26.0852 20.5938C27.2898 21.2869 28.2131 22.2841 28.8551 23.5852C29.4972 24.8807 29.8182 26.4318 29.8182 28.2386C29.8182 30.0568 29.4943 31.6222 28.8466 32.9347C28.1989 34.2415 27.2557 35.2472 26.017 35.9517C24.7784 36.6506 23.2727 37 21.5 37ZM18.2273 35.125H21.3636C22.8068 35.125 24.0028 34.8466 24.9517 34.2898C25.9006 33.733 26.608 32.9403 27.0739 31.9119C27.5398 30.8835 27.7727 29.6591 27.7727 28.2386C27.7727 26.8295 27.5426 25.6165 27.0824 24.5994C26.6222 23.5767 25.9347 22.7926 25.0199 22.2472C24.1051 21.696 22.9659 21.4205 21.6023 21.4205H18.2273V35.125ZM33.3636 37V19.5455H43.8977V21.4205H35.4773V27.3182H43.3523V29.1932H35.4773V35.125H44.0341V37H33.3636ZM47.7074 37V19.5455H49.821V35.125H57.9347V37H47.7074ZM61.2074 37V19.5455H71.7415V21.4205H63.321V27.3182H71.196V29.1932H63.321V35.125H71.8778V37H61.2074ZM74.5966 21.4205V19.5455H87.6875V21.4205H82.1989V37H80.0852V21.4205H74.5966ZM89.6264 37H87.4105L93.8196 19.5455H96.0014L102.411 37H100.195L94.9787 22.3068H94.8423L89.6264 37ZM90.4446 30.1818H99.3764V32.0568H90.4446V30.1818ZM105.129 37V19.5455H111.027C112.391 19.5455 113.51 19.7784 114.385 20.2443C115.26 20.7045 115.908 21.3381 116.328 22.1449C116.749 22.9517 116.959 23.8693 116.959 24.8977C116.959 25.9261 116.749 26.8381 116.328 27.6335C115.908 28.429 115.263 29.054 114.393 29.5085C113.524 29.9574 112.413 30.1818 111.061 30.1818H106.288V28.2727H110.993C111.925 28.2727 112.675 28.1364 113.243 27.8636C113.817 27.5909 114.232 27.2045 114.487 26.7045C114.749 26.1989 114.879 25.5966 114.879 24.8977C114.879 24.1989 114.749 23.5881 114.487 23.0653C114.226 22.5426 113.808 22.1392 113.234 21.8551C112.661 21.5653 111.902 21.4205 110.959 21.4205H107.243V37H105.129ZM113.345 29.1591L117.641 37H115.186L110.959 29.1591H113.345Z" fill="#FF3737"/>
</svg>
