<svg width="63" height="81" viewBox="0 0 63 81" fill="none" xmlns="http://www.w3.org/2000/svg">
<g clip-path="url(#clip0_10_232)">
<g filter="url(#filter0_d_10_232)">
<path d="M42.5833 10.4167H38.4167V6.25H17.5833V10.4167H13.4167C11.125 10.4167 9.25 12.2917 9.25 14.5833V16.6667C9.25 21.9792 13.25 26.3125 18.3958 26.9583C19.0547 28.5195 20.0838 29.8968 21.3941 30.9712C22.7044 32.0456 24.2567 32.7848 25.9167 33.125V39.5833H17.5833V43.75H38.4167V39.5833H30.0833V33.125C31.7433 32.7848 33.2956 32.0456 34.6059 30.9712C35.9162 29.8968 36.9453 28.5195 37.6042 26.9583C42.75 26.3125 46.75 21.9792 46.75 16.6667V14.5833C46.75 12.2917 44.875 10.4167 42.5833 10.4167ZM13.4167 16.6667V14.5833H17.5833V22.5417C15.1667 21.6667 13.4167 19.375 13.4167 16.6667ZM42.5833 16.6667C42.5833 19.375 40.8333 21.6667 38.4167 22.5417V14.5833H42.5833V16.6667Z" fill="white"/>
</g>
</g>
<g filter="url(#filter1_d_10_232)">
<path d="M0.884943 72V61.8182H7.74574V63.593H3.03764V66.0192H7.39276V67.794H3.03764V70.2251H7.76562V72H0.884943ZM16.5368 64.3636L13.867 72H11.4806L8.8109 64.3636H11.0481L12.6341 69.8274H12.7136L14.2946 64.3636H16.5368ZM20.8546 72.1491C20.0691 72.1491 19.3929 71.9901 18.8262 71.6719C18.2627 71.3504 17.8285 70.8963 17.5236 70.3097C17.2187 69.7197 17.0662 69.022 17.0662 68.2166C17.0662 67.4311 17.2187 66.7417 17.5236 66.1484C17.8285 65.5552 18.2578 65.0928 18.8113 64.7614C19.3681 64.4299 20.021 64.2642 20.7701 64.2642C21.2739 64.2642 21.7428 64.3454 22.177 64.5078C22.6145 64.6669 22.9957 64.9072 23.3205 65.2287C23.6486 65.5502 23.9038 65.9545 24.0861 66.4418C24.2684 66.9257 24.3596 67.4924 24.3596 68.142V68.7237H17.9114V67.4112H22.3659C22.3659 67.1063 22.2997 66.8362 22.1671 66.6009C22.0345 66.3655 21.8506 66.1816 21.6152 66.049C21.3832 65.9131 21.1131 65.8452 20.8049 65.8452C20.4834 65.8452 20.1983 65.9197 19.9498 66.0689C19.7045 66.2147 19.5123 66.4119 19.373 66.6605C19.2338 66.9058 19.1626 67.1792 19.1593 67.4808V68.7287C19.1593 69.1065 19.2289 69.433 19.3681 69.7081C19.5106 69.9832 19.7111 70.1953 19.9696 70.3445C20.2282 70.4936 20.5347 70.5682 20.8894 70.5682C21.1247 70.5682 21.3401 70.535 21.5357 70.4688C21.7312 70.4025 21.8986 70.303 22.0378 70.1705C22.177 70.0379 22.2831 69.8755 22.356 69.6832L24.3148 69.8125C24.2154 70.2831 24.0115 70.6941 23.7033 71.0455C23.3984 71.3935 23.004 71.6652 22.5201 71.8608C22.0395 72.053 21.4843 72.1491 20.8546 72.1491ZM27.8596 67.5852V72H25.7417V64.3636H27.7601V65.7109H27.8496C28.0186 65.2668 28.302 64.9155 28.6998 64.657C29.0975 64.3951 29.5797 64.2642 30.1465 64.2642C30.6768 64.2642 31.1391 64.3802 31.5336 64.6122C31.928 64.8442 32.2346 65.1757 32.4533 65.6065C32.6721 66.0341 32.7814 66.5445 32.7814 67.1378V72H30.6635V67.5156C30.6668 67.0483 30.5475 66.6837 30.3056 66.4219C30.0636 66.1567 29.7305 66.0241 29.3063 66.0241C29.0212 66.0241 28.7694 66.0855 28.5506 66.2081C28.3352 66.3307 28.1661 66.5097 28.0435 66.745C27.9242 66.977 27.8629 67.2571 27.8596 67.5852ZM38.5124 64.3636V65.9545H33.9137V64.3636H38.5124ZM34.9577 62.5341H37.0756V69.6534C37.0756 69.849 37.1055 70.0014 37.1651 70.1108C37.2248 70.2169 37.3076 70.2914 37.4137 70.3345C37.5231 70.3776 37.649 70.3991 37.7915 70.3991C37.891 70.3991 37.9904 70.3909 38.0898 70.3743C38.1893 70.3544 38.2655 70.3395 38.3185 70.3295L38.6516 71.9055C38.5456 71.9387 38.3964 71.9768 38.2042 72.0199C38.012 72.0663 37.7783 72.0945 37.5032 72.1044C36.9928 72.1243 36.5453 72.0563 36.1609 71.9006C35.7797 71.7448 35.4831 71.5028 35.271 71.1747C35.0588 70.8466 34.9544 70.4323 34.9577 69.9318V62.5341ZM43.2603 72.1491C42.488 72.1491 41.8202 71.9851 41.2567 71.657C40.6966 71.3255 40.2641 70.8648 39.9592 70.2749C39.6542 69.6816 39.5018 68.9938 39.5018 68.2116C39.5018 67.4228 39.6542 66.7334 39.9592 66.1435C40.2641 65.5502 40.6966 65.0895 41.2567 64.7614C41.8202 64.4299 42.488 64.2642 43.2603 64.2642C44.0326 64.2642 44.6987 64.4299 45.2589 64.7614C45.8223 65.0895 46.2565 65.5502 46.5614 66.1435C46.8664 66.7334 47.0188 67.4228 47.0188 68.2116C47.0188 68.9938 46.8664 69.6816 46.5614 70.2749C46.2565 70.8648 45.8223 71.3255 45.2589 71.657C44.6987 71.9851 44.0326 72.1491 43.2603 72.1491ZM43.2702 70.5085C43.6216 70.5085 43.9149 70.4091 44.1502 70.2102C44.3855 70.008 44.5629 69.733 44.6822 69.3849C44.8048 69.0369 44.8661 68.6409 44.8661 68.1967C44.8661 67.7526 44.8048 67.3565 44.6822 67.0085C44.5629 66.6605 44.3855 66.3854 44.1502 66.1832C43.9149 65.9811 43.6216 65.88 43.2702 65.88C42.9156 65.88 42.6173 65.9811 42.3754 66.1832C42.1367 66.3854 41.9561 66.6605 41.8335 67.0085C41.7141 67.3565 41.6545 67.7526 41.6545 68.1967C41.6545 68.6409 41.7141 69.0369 41.8335 69.3849C41.9561 69.733 42.1367 70.008 42.3754 70.2102C42.6173 70.4091 42.9156 70.5085 43.2702 70.5085ZM54.7496 66.5412L52.8107 66.6605C52.7776 66.4948 52.7063 66.3456 52.5969 66.2131C52.4876 66.0772 52.3434 65.9695 52.1644 65.8899C51.9888 65.8071 51.7783 65.7656 51.533 65.7656C51.2049 65.7656 50.9281 65.8352 50.7028 65.9744C50.4774 66.1103 50.3647 66.2926 50.3647 66.5213C50.3647 66.7036 50.4376 66.8577 50.5835 66.9837C50.7293 67.1096 50.9795 67.2107 51.3342 67.2869L52.7163 67.5653C53.4587 67.7178 54.0122 67.9631 54.3768 68.3011C54.7414 68.6392 54.9237 69.0833 54.9237 69.6335C54.9237 70.134 54.7762 70.5732 54.4812 70.951C54.1895 71.3288 53.7885 71.6238 53.2781 71.8359C52.771 72.0447 52.186 72.1491 51.5231 72.1491C50.5122 72.1491 49.7068 71.9387 49.1069 71.5178C48.5103 71.0935 48.1606 70.5168 48.0579 69.7876L50.141 69.6783C50.204 69.9865 50.3564 70.2218 50.5984 70.3842C50.8403 70.5433 51.1502 70.6229 51.5281 70.6229C51.8993 70.6229 52.1976 70.5516 52.4229 70.4091C52.6516 70.2633 52.7676 70.076 52.771 69.8473C52.7676 69.6551 52.6864 69.4976 52.5273 69.375C52.3683 69.2491 52.123 69.1529 51.7915 69.0866L50.4691 68.8232C49.7234 68.674 49.1682 68.4155 48.8036 68.0476C48.4424 67.6797 48.2617 67.2107 48.2617 66.6406C48.2617 66.1501 48.3943 65.7275 48.6594 65.3729C48.9279 65.0182 49.3041 64.7448 49.788 64.5526C50.2752 64.3603 50.8453 64.2642 51.4982 64.2642C52.4627 64.2642 53.2217 64.468 53.7752 64.8757C54.332 65.2834 54.6568 65.8385 54.7496 66.5412Z" fill="white"/>
</g>
<defs>
<filter id="filter0_d_10_232" x="5.25" y="6.25" width="45.5" height="45.5" filterUnits="userSpaceOnUse" color-interpolation-filters="sRGB">
<feFlood flood-opacity="0" result="BackgroundImageFix"/>
<feColorMatrix in="SourceAlpha" type="matrix" values="0 0 0 0 0 0 0 0 0 0 0 0 0 0 0 0 0 0 127 0" result="hardAlpha"/>
<feOffset dy="4"/>
<feGaussianBlur stdDeviation="2"/>
<feComposite in2="hardAlpha" operator="out"/>
<feColorMatrix type="matrix" values="0 0 0 0 0 0 0 0 0 0 0 0 0 0 0 0 0 0 0.25 0"/>
<feBlend mode="normal" in2="BackgroundImageFix" result="effect1_dropShadow_10_232"/>
<feBlend mode="normal" in="SourceGraphic" in2="effect1_dropShadow_10_232" result="shape"/>
</filter>
<filter id="filter1_d_10_232" x="0.88501" y="61.8181" width="62.0386" height="18.3311" filterUnits="userSpaceOnUse" color-interpolation-filters="sRGB">
<feFlood flood-opacity="0" result="BackgroundImageFix"/>
<feColorMatrix in="SourceAlpha" type="matrix" values="0 0 0 0 0 0 0 0 0 0 0 0 0 0 0 0 0 0 127 0" result="hardAlpha"/>
<feOffset dx="4" dy="4"/>
<feGaussianBlur stdDeviation="2"/>
<feComposite in2="hardAlpha" operator="out"/>
<feColorMatrix type="matrix" values="0 0 0 0 0 0 0 0 0 0 0 0 0 0 0 0 0 0 0.25 0"/>
<feBlend mode="normal" in2="BackgroundImageFix" result="effect1_dropShadow_10_232"/>
<feBlend mode="normal" in="SourceGraphic" in2="effect1_dropShadow_10_232" result="shape"/>
</filter>
<clipPath id="clip0_10_232">
<rect width="50" height="50" fill="white" transform="translate(3)"/>
</clipPath>
</defs>
</svg>
