<svg width="54" height="84" viewBox="0 0 54 84" fill="none" xmlns="http://www.w3.org/2000/svg">
<g filter="url(#filter0_d_10_228)">
<path d="M39.7501 13.75C38.2501 11.25 35.5001 10 32.5001 10H17.5001C14.5001 10 11.7501 11.25 10.2501 13.75C4.50011 22.5 3.25011 35.75 7.25011 38.5C11.2501 41.25 20.2501 29.25 25.0001 29.25C29.7501 29.25 38.5001 41.25 42.7501 38.5C46.7501 35.75 45.5001 22.5 39.7501 13.75ZM20.0001 22.5H17.5001V25H15.0001V22.5H12.5001V20H15.0001V17.5H17.5001V20H20.0001V22.5ZM33.5001 23.75C33.5001 25 32.5001 26 31.2501 26C30.0001 26 29.0001 25 29.0001 23.75C29.0001 22.5 30.0001 21.5 31.2501 21.5C32.5001 21.5 33.5001 22.5 33.5001 23.75ZM38.2501 18.75C38.2501 20 37.2501 21 36.0001 21C34.7501 21 33.7501 20 33.7501 18.75C33.7501 17.5 34.7501 16.5 36.0001 16.5C37.2501 16.5 38.2501 17.5 38.2501 18.75Z" fill="white"/>
</g>
<g filter="url(#filter1_d_10_228)">
<path d="M8.96165 61.8182H11.0895V68.9176C11.0895 69.5739 10.942 70.1439 10.647 70.6278C10.3554 71.1117 9.94934 71.4846 9.42898 71.7464C8.90862 72.0083 8.30374 72.1392 7.61435 72.1392C7.00118 72.1392 6.44437 72.0315 5.94389 71.8161C5.44673 71.5973 5.05232 71.2659 4.76065 70.8217C4.46899 70.3743 4.32481 69.8125 4.32812 69.1364H6.47088C6.47751 69.4048 6.5322 69.6352 6.63494 69.8274C6.741 70.0163 6.88518 70.1622 7.06747 70.2649C7.25308 70.3643 7.47183 70.4141 7.72372 70.4141C7.98887 70.4141 8.21259 70.3577 8.39489 70.245C8.58049 70.129 8.72135 69.96 8.81747 69.7379C8.91359 69.5159 8.96165 69.2424 8.96165 68.9176V61.8182ZM16.2798 72.1491C15.5076 72.1491 14.8397 71.9851 14.2763 71.657C13.7161 71.3255 13.2836 70.8648 12.9787 70.2749C12.6738 69.6816 12.5213 68.9938 12.5213 68.2116C12.5213 67.4228 12.6738 66.7334 12.9787 66.1435C13.2836 65.5502 13.7161 65.0895 14.2763 64.7614C14.8397 64.4299 15.5076 64.2642 16.2798 64.2642C17.0521 64.2642 17.7183 64.4299 18.2784 64.7614C18.8419 65.0895 19.276 65.5502 19.581 66.1435C19.8859 66.7334 20.0384 67.4228 20.0384 68.2116C20.0384 68.9938 19.8859 69.6816 19.581 70.2749C19.276 70.8648 18.8419 71.3255 18.2784 71.657C17.7183 71.9851 17.0521 72.1491 16.2798 72.1491ZM16.2898 70.5085C16.6411 70.5085 16.9344 70.4091 17.1697 70.2102C17.4051 70.008 17.5824 69.733 17.7017 69.3849C17.8243 69.0369 17.8857 68.6409 17.8857 68.1967C17.8857 67.7526 17.8243 67.3565 17.7017 67.0085C17.5824 66.6605 17.4051 66.3854 17.1697 66.1832C16.9344 65.9811 16.6411 65.88 16.2898 65.88C15.9351 65.88 15.6368 65.9811 15.3949 66.1832C15.1563 66.3854 14.9756 66.6605 14.853 67.0085C14.7337 67.3565 14.674 67.7526 14.674 68.1967C14.674 68.6409 14.7337 69.0369 14.853 69.3849C14.9756 69.733 15.1563 70.008 15.3949 70.2102C15.6368 70.4091 15.9351 70.5085 16.2898 70.5085ZM24.8558 75.0227C24.1697 75.0227 23.5814 74.9283 23.0909 74.7393C22.6037 74.5537 22.2159 74.3002 21.9276 73.9787C21.6392 73.6572 21.4519 73.2959 21.3658 72.8949L23.3246 72.6314C23.3842 72.7839 23.4787 72.9264 23.608 73.0589C23.7372 73.1915 23.9079 73.2976 24.12 73.3771C24.3355 73.46 24.5973 73.5014 24.9055 73.5014C25.3662 73.5014 25.7457 73.3887 26.044 73.1634C26.3456 72.9413 26.4964 72.5684 26.4964 72.0447V70.6477H26.407C26.3142 70.8598 26.175 71.0604 25.9893 71.2493C25.8037 71.4382 25.5651 71.5923 25.2734 71.7116C24.9818 71.831 24.6338 71.8906 24.2294 71.8906C23.656 71.8906 23.134 71.758 22.6634 71.4929C22.196 71.2244 21.8232 70.8151 21.5447 70.2649C21.2696 69.7114 21.1321 69.0121 21.1321 68.1669C21.1321 67.3018 21.273 66.5793 21.5547 65.9993C21.8364 65.4193 22.2109 64.9851 22.6783 64.6967C23.1489 64.4084 23.6643 64.2642 24.2244 64.2642C24.652 64.2642 25.0099 64.3371 25.2983 64.483C25.5866 64.6255 25.8187 64.8045 25.9943 65.0199C26.1733 65.232 26.3108 65.4408 26.407 65.6463H26.4865V64.3636H28.5895V72.0746C28.5895 72.7242 28.4304 73.2678 28.1122 73.7053C27.794 74.1428 27.3532 74.4709 26.7898 74.6896C26.2296 74.9117 25.585 75.0227 24.8558 75.0227ZM24.9006 70.2997C25.242 70.2997 25.5303 70.2152 25.7656 70.0462C26.0043 69.8738 26.1866 69.6286 26.3125 69.3104C26.4418 68.9889 26.5064 68.6044 26.5064 68.157C26.5064 67.7095 26.4434 67.3217 26.3175 66.9936C26.1915 66.6622 26.0092 66.4053 25.7706 66.223C25.532 66.0407 25.242 65.9496 24.9006 65.9496C24.5526 65.9496 24.2592 66.044 24.0206 66.233C23.782 66.4186 23.6013 66.6771 23.4787 67.0085C23.3561 67.34 23.2947 67.7228 23.2947 68.157C23.2947 68.5978 23.3561 68.9789 23.4787 69.3004C23.6046 69.6186 23.7853 69.8655 24.0206 70.0412C24.2592 70.2135 24.5526 70.2997 24.9006 70.2997ZM33.7251 72.1491C32.9529 72.1491 32.285 71.9851 31.7216 71.657C31.1615 71.3255 30.7289 70.8648 30.424 70.2749C30.1191 69.6816 29.9666 68.9938 29.9666 68.2116C29.9666 67.4228 30.1191 66.7334 30.424 66.1435C30.7289 65.5502 31.1615 65.0895 31.7216 64.7614C32.285 64.4299 32.9529 64.2642 33.7251 64.2642C34.4974 64.2642 35.1636 64.4299 35.7237 64.7614C36.2872 65.0895 36.7214 65.5502 37.0263 66.1435C37.3312 66.7334 37.4837 67.4228 37.4837 68.2116C37.4837 68.9938 37.3312 69.6816 37.0263 70.2749C36.7214 70.8648 36.2872 71.3255 35.7237 71.657C35.1636 71.9851 34.4974 72.1491 33.7251 72.1491ZM33.7351 70.5085C34.0864 70.5085 34.3797 70.4091 34.6151 70.2102C34.8504 70.008 35.0277 69.733 35.147 69.3849C35.2696 69.0369 35.331 68.6409 35.331 68.1967C35.331 67.7526 35.2696 67.3565 35.147 67.0085C35.0277 66.6605 34.8504 66.3854 34.6151 66.1832C34.3797 65.9811 34.0864 65.88 33.7351 65.88C33.3804 65.88 33.0821 65.9811 32.8402 66.1832C32.6016 66.3854 32.4209 66.6605 32.2983 67.0085C32.179 67.3565 32.1193 67.7526 32.1193 68.1967C32.1193 68.6409 32.179 69.0369 32.2983 69.3849C32.4209 69.733 32.6016 70.008 32.8402 70.2102C33.0821 70.4091 33.3804 70.5085 33.7351 70.5085ZM45.2145 66.5412L43.2756 66.6605C43.2424 66.4948 43.1712 66.3456 43.0618 66.2131C42.9524 66.0772 42.8082 65.9695 42.6293 65.8899C42.4536 65.8071 42.2431 65.7656 41.9979 65.7656C41.6697 65.7656 41.393 65.8352 41.1676 65.9744C40.9422 66.1103 40.8295 66.2926 40.8295 66.5213C40.8295 66.7036 40.9025 66.8577 41.0483 66.9837C41.1941 67.1096 41.4444 67.2107 41.799 67.2869L43.1811 67.5653C43.9235 67.7178 44.477 67.9631 44.8416 68.3011C45.2062 68.6392 45.3885 69.0833 45.3885 69.6335C45.3885 70.134 45.241 70.5732 44.946 70.951C44.6544 71.3288 44.2533 71.6238 43.7429 71.8359C43.2358 72.0447 42.6508 72.1491 41.9879 72.1491C40.977 72.1491 40.1716 71.9387 39.5717 71.5178C38.9751 71.0935 38.6255 70.5168 38.5227 69.7876L40.6058 69.6783C40.6688 69.9865 40.8213 70.2218 41.0632 70.3842C41.3052 70.5433 41.6151 70.6229 41.9929 70.6229C42.3641 70.6229 42.6624 70.5516 42.8878 70.4091C43.1165 70.2633 43.2325 70.076 43.2358 69.8473C43.2325 69.6551 43.1513 69.4976 42.9922 69.375C42.8331 69.2491 42.5878 69.1529 42.2564 69.0866L40.9339 68.8232C40.1882 68.674 39.633 68.4155 39.2685 68.0476C38.9072 67.6797 38.7266 67.2107 38.7266 66.6406C38.7266 66.1501 38.8591 65.7275 39.1243 65.3729C39.3928 65.0182 39.7689 64.7448 40.2528 64.5526C40.7401 64.3603 41.3101 64.2642 41.9631 64.2642C42.9276 64.2642 43.6866 64.468 44.2401 64.8757C44.7969 65.2834 45.1217 65.8385 45.2145 66.5412Z" fill="white"/>
</g>
<defs>
<filter id="filter0_d_10_228" x="0.921143" y="10" width="48.158" height="36.9094" filterUnits="userSpaceOnUse" color-interpolation-filters="sRGB">
<feFlood flood-opacity="0" result="BackgroundImageFix"/>
<feColorMatrix in="SourceAlpha" type="matrix" values="0 0 0 0 0 0 0 0 0 0 0 0 0 0 0 0 0 0 127 0" result="hardAlpha"/>
<feOffset dy="4"/>
<feGaussianBlur stdDeviation="2"/>
<feComposite in2="hardAlpha" operator="out"/>
<feColorMatrix type="matrix" values="0 0 0 0 0 0 0 0 0 0 0 0 0 0 0 0 0 0 0.25 0"/>
<feBlend mode="normal" in2="BackgroundImageFix" result="effect1_dropShadow_10_228"/>
<feBlend mode="normal" in="SourceGraphic" in2="effect1_dropShadow_10_228" result="shape"/>
</filter>
<filter id="filter1_d_10_228" x="4.32324" y="61.8181" width="49.0652" height="21.2046" filterUnits="userSpaceOnUse" color-interpolation-filters="sRGB">
<feFlood flood-opacity="0" result="BackgroundImageFix"/>
<feColorMatrix in="SourceAlpha" type="matrix" values="0 0 0 0 0 0 0 0 0 0 0 0 0 0 0 0 0 0 127 0" result="hardAlpha"/>
<feOffset dx="4" dy="4"/>
<feGaussianBlur stdDeviation="2"/>
<feComposite in2="hardAlpha" operator="out"/>
<feColorMatrix type="matrix" values="0 0 0 0 0 0 0 0 0 0 0 0 0 0 0 0 0 0 0.25 0"/>
<feBlend mode="normal" in2="BackgroundImageFix" result="effect1_dropShadow_10_228"/>
<feBlend mode="normal" in="SourceGraphic" in2="effect1_dropShadow_10_228" result="shape"/>
</filter>
</defs>
</svg>
