<svg width="59" height="83" viewBox="0 0 59 83" fill="none" xmlns="http://www.w3.org/2000/svg">
<g filter="url(#filter0_d_10_219)">
<g clip-path="url(#clip0_10_219)">
<g filter="url(#filter1_d_10_219)">
<path d="M21.9062 25C20.934 25 20.1354 24.6354 19.5104 23.9062C18.8854 23.1771 18.6597 22.3264 18.8333 21.3542L19.4583 17.6042C19.7361 16.1111 20.4396 14.8875 21.5687 13.9333C22.6965 12.9778 24.0069 12.5 25.5 12.5C27.0278 12.5 28.3562 12.9778 29.4854 13.9333C30.6132 14.8875 31.316 16.1111 31.5938 17.6042L32.2188 21.3542C32.3924 22.3264 32.1667 23.1771 31.5417 23.9062C30.9167 24.6354 30.1181 25 29.1458 25H21.9062ZM6.95833 27.0312C6.15972 27.066 5.47431 26.9097 4.90208 26.5625C4.32847 26.2153 3.95486 25.6771 3.78125 24.9479C3.71181 24.6354 3.69444 24.3229 3.72917 24.0104C3.76389 23.6979 3.85069 23.4028 3.98958 23.125C3.98958 23.1597 3.97222 23.0903 3.9375 22.9167C3.86806 22.8472 3.69444 22.4306 3.41667 21.6667C3.34722 21.25 3.39931 20.8507 3.57292 20.4687C3.74653 20.0868 3.97222 19.7569 4.25 19.4792L4.35417 19.375C4.42361 18.7153 4.69306 18.1597 5.1625 17.7083C5.63056 17.2569 6.21181 17.0312 6.90625 17.0312C7.01042 17.0312 7.34028 17.1007 7.89583 17.2396L8.05208 17.1875C8.22569 17.0139 8.45139 16.8833 8.72917 16.7958C9.00694 16.7097 9.30208 16.6667 9.61458 16.6667C9.99653 16.6667 10.3354 16.7271 10.6312 16.8479C10.9257 16.9701 11.1597 17.1528 11.3333 17.3958C11.3681 17.3958 11.3944 17.4049 11.4125 17.4229C11.4292 17.4396 11.4549 17.4479 11.4896 17.4479C11.9757 17.4826 12.4014 17.6299 12.7667 17.8896C13.1306 18.1507 13.3993 18.5069 13.5729 18.9583C13.6424 19.2014 13.6681 19.4361 13.65 19.6625C13.6333 19.8875 13.5903 20.1042 13.5208 20.3125C13.5208 20.3472 13.5382 20.4167 13.5729 20.5208C13.816 20.7639 14.0069 21.0326 14.1458 21.3271C14.2847 21.6229 14.3542 21.9271 14.3542 22.2396C14.3542 22.3785 14.25 22.7431 14.0417 23.3333C14.0069 23.4028 14.0069 23.4722 14.0417 23.5417L14.1458 24.375C14.1458 25.1042 13.8424 25.7292 13.2354 26.25C12.6271 26.7708 11.8889 27.0312 11.0208 27.0312H6.95833ZM42.1667 27.0833C41.0208 27.0833 40.0396 26.675 39.2229 25.8583C38.4076 25.0431 38 24.0625 38 22.9167C38 22.5 38.0604 22.1097 38.1812 21.7458C38.3035 21.3806 38.4688 21.0243 38.6771 20.6771L37.2188 19.375C36.8715 19.0972 36.8111 18.75 37.0375 18.3333C37.2625 17.9167 37.5833 17.7083 38 17.7083H42.1667C43.3125 17.7083 44.2937 18.116 45.1104 18.9312C45.9257 19.7479 46.3333 20.7292 46.3333 21.875V22.9167C46.3333 24.0625 45.9257 25.0431 45.1104 25.8583C44.2937 26.675 43.3125 27.0833 42.1667 27.0833ZM0.5 37.5V34.2187C0.5 32.691 1.27292 31.4667 2.81875 30.5458C4.36319 29.6264 6.36806 29.1667 8.83333 29.1667C9.28472 29.1667 9.71875 29.175 10.1354 29.1917C10.5521 29.2097 10.9514 29.2535 11.3333 29.3229C10.8472 30.0174 10.4826 30.7639 10.2396 31.5625C9.99653 32.3611 9.875 33.2118 9.875 34.1146V37.5H0.5ZM13 37.5V34.1146C13 31.8576 14.1549 30.0347 16.4646 28.6458C18.7729 27.2569 21.7847 26.5625 25.5 26.5625C29.25 26.5625 32.2708 27.2569 34.5625 28.6458C36.8542 30.0347 38 31.8576 38 34.1146V37.5H13ZM42.1667 29.1667C44.6667 29.1667 46.6806 29.6264 48.2083 30.5458C49.7361 31.4667 50.5 32.691 50.5 34.2187V37.5H41.125V34.1146C41.125 33.2118 41.0118 32.3611 40.7854 31.5625C40.5604 30.7639 40.2222 30.0174 39.7708 29.3229C40.1528 29.2535 40.5437 29.2097 40.9437 29.1917C41.3424 29.175 41.75 29.1667 42.1667 29.1667Z" fill="white"/>
</g>
</g>
<path d="M8.13636 65.1094C8.06676 64.8674 7.96899 64.6536 7.84304 64.468C7.71709 64.2791 7.56297 64.12 7.38068 63.9908C7.2017 63.8582 6.99621 63.7571 6.7642 63.6875C6.53551 63.6179 6.28196 63.5831 6.00355 63.5831C5.48319 63.5831 5.02581 63.7124 4.63139 63.9709C4.24029 64.2294 3.93537 64.6056 3.71662 65.0994C3.49787 65.59 3.38849 66.1899 3.38849 66.8991C3.38849 67.6084 3.49621 68.2116 3.71165 68.7088C3.92708 69.206 4.23201 69.5855 4.62642 69.8473C5.02083 70.1058 5.48651 70.2351 6.02344 70.2351C6.51065 70.2351 6.92661 70.1489 7.27131 69.9766C7.61932 69.8009 7.88447 69.554 8.06676 69.2358C8.25237 68.9176 8.34517 68.5414 8.34517 68.1072L8.78267 68.1719H6.15767V66.5511H10.4183V67.8338C10.4183 68.7287 10.2294 69.4976 9.85156 70.1406C9.47372 70.7803 8.95336 71.2741 8.29048 71.6222C7.6276 71.9669 6.86861 72.1392 6.01349 72.1392C5.05895 72.1392 4.22041 71.9287 3.49787 71.5078C2.77533 71.0836 2.21188 70.482 1.80753 69.7031C1.40649 68.9209 1.20597 67.9929 1.20597 66.919C1.20597 66.0937 1.32528 65.358 1.56392 64.7116C1.80587 64.062 2.14394 63.5118 2.57812 63.0611C3.01231 62.6103 3.51776 62.2673 4.09446 62.032C4.67116 61.7966 5.29593 61.679 5.96875 61.679C6.54545 61.679 7.08239 61.7635 7.57955 61.9325C8.0767 62.0982 8.51752 62.3336 8.90199 62.6385C9.28977 62.9434 9.6063 63.3063 9.85156 63.7273C10.0968 64.1449 10.2543 64.6056 10.3239 65.1094H8.13636ZM11.9956 72V64.3636H14.0488V65.696H14.1284C14.2676 65.2221 14.5012 64.8641 14.8294 64.6222C15.1575 64.3769 15.5353 64.2543 15.9629 64.2543C16.069 64.2543 16.1833 64.2609 16.3059 64.2741C16.4286 64.2874 16.5363 64.3056 16.6291 64.3288V66.2081C16.5297 66.1783 16.3921 66.1518 16.2164 66.1286C16.0408 66.1054 15.88 66.0938 15.7342 66.0938C15.4226 66.0938 15.1442 66.1617 14.899 66.2976C14.657 66.4302 14.4648 66.6158 14.3223 66.8544C14.1831 67.093 14.1135 67.3681 14.1135 67.6797V72H11.9956ZM22.6211 68.7486V64.3636H24.739V72H22.7056V70.6129H22.6261C22.4537 71.0604 22.167 71.42 21.766 71.6918C21.3683 71.9635 20.8827 72.0994 20.3093 72.0994C19.7989 72.0994 19.3498 71.9834 18.962 71.7514C18.5742 71.5194 18.271 71.1896 18.0522 70.7621C17.8368 70.3345 17.7274 69.8224 17.7241 69.2259V64.3636H19.842V68.848C19.8453 69.2988 19.9663 69.6551 20.2049 69.9169C20.4435 70.1787 20.7634 70.3097 21.1644 70.3097C21.4196 70.3097 21.6583 70.2517 21.8803 70.1357C22.1024 70.0163 22.2814 69.8407 22.4173 69.6087C22.5565 69.3767 22.6244 69.09 22.6211 68.7486ZM26.4331 74.8636V64.3636H28.5211V65.6463H28.6156C28.7084 65.4408 28.8426 65.232 29.0183 65.0199C29.1973 64.8045 29.4293 64.6255 29.7143 64.483C30.0027 64.3371 30.3606 64.2642 30.7882 64.2642C31.345 64.2642 31.8587 64.41 32.3294 64.7017C32.8 64.9901 33.1762 65.4259 33.4579 66.0092C33.7396 66.5893 33.8805 67.3168 33.8805 68.1918C33.8805 69.0436 33.743 69.7628 33.4679 70.3494C33.1961 70.9328 32.8249 71.3752 32.3542 71.6768C31.8869 71.9751 31.3632 72.1243 30.7832 72.1243C30.3722 72.1243 30.0225 72.0563 29.7342 71.9205C29.4492 71.7846 29.2155 71.6139 29.0332 71.4084C28.8509 71.1996 28.7117 70.9891 28.6156 70.777H28.551V74.8636H26.4331ZM28.5062 68.1818C28.5062 68.6359 28.5692 69.032 28.6951 69.37C28.8211 69.7081 29.0034 69.9716 29.242 70.1605C29.4806 70.3461 29.7707 70.4389 30.112 70.4389C30.4567 70.4389 30.7484 70.3445 30.987 70.1555C31.2257 69.9633 31.4063 69.6982 31.5289 69.3601C31.6549 69.0187 31.7179 68.6259 31.7179 68.1818C31.7179 67.741 31.6565 67.3532 31.5339 67.0185C31.4113 66.6837 31.2306 66.4219 30.992 66.233C30.7534 66.044 30.46 65.9496 30.112 65.9496C29.7673 65.9496 29.4757 66.0407 29.237 66.223C29.0017 66.4053 28.8211 66.6638 28.6951 66.9986C28.5692 67.3333 28.5062 67.7277 28.5062 68.1818ZM38.7427 72.1491C37.9705 72.1491 37.3026 71.9851 36.7392 71.657C36.179 71.3255 35.7465 70.8648 35.4416 70.2749C35.1367 69.6816 34.9842 68.9938 34.9842 68.2116C34.9842 67.4228 35.1367 66.7334 35.4416 66.1435C35.7465 65.5502 36.179 65.0895 36.7392 64.7614C37.3026 64.4299 37.9705 64.2642 38.7427 64.2642C39.515 64.2642 40.1812 64.4299 40.7413 64.7614C41.3047 65.0895 41.7389 65.5502 42.0439 66.1435C42.3488 66.7334 42.5012 67.4228 42.5012 68.2116C42.5012 68.9938 42.3488 69.6816 42.0439 70.2749C41.7389 70.8648 41.3047 71.3255 40.7413 71.657C40.1812 71.9851 39.515 72.1491 38.7427 72.1491ZM38.7527 70.5085C39.104 70.5085 39.3973 70.4091 39.6326 70.2102C39.868 70.008 40.0453 69.733 40.1646 69.3849C40.2872 69.0369 40.3485 68.6409 40.3485 68.1967C40.3485 67.7526 40.2872 67.3565 40.1646 67.0085C40.0453 66.6605 39.868 66.3854 39.6326 66.1832C39.3973 65.9811 39.104 65.88 38.7527 65.88C38.398 65.88 38.0997 65.9811 37.8578 66.1832C37.6191 66.3854 37.4385 66.6605 37.3159 67.0085C37.1966 67.3565 37.1369 67.7526 37.1369 68.1967C37.1369 68.6409 37.1966 69.0369 37.3159 69.3849C37.4385 69.733 37.6191 70.008 37.8578 70.2102C38.0997 70.4091 38.398 70.5085 38.7527 70.5085ZM50.2321 66.5412L48.2931 66.6605C48.26 66.4948 48.1887 66.3456 48.0794 66.2131C47.97 66.0772 47.8258 65.9695 47.6468 65.8899C47.4712 65.8071 47.2607 65.7656 47.0154 65.7656C46.6873 65.7656 46.4106 65.8352 46.1852 65.9744C45.9598 66.1103 45.8471 66.2926 45.8471 66.5213C45.8471 66.7036 45.92 66.8577 46.0659 66.9837C46.2117 67.1096 46.4619 67.2107 46.8166 67.2869L48.1987 67.5653C48.9411 67.7178 49.4946 67.9631 49.8592 68.3011C50.2238 68.6392 50.4061 69.0833 50.4061 69.6335C50.4061 70.134 50.2586 70.5732 49.9636 70.951C49.6719 71.3288 49.2709 71.6238 48.7605 71.8359C48.2534 72.0447 47.6684 72.1491 47.0055 72.1491C45.9946 72.1491 45.1892 71.9387 44.5893 71.5178C43.9927 71.0935 43.6431 70.5168 43.5403 69.7876L45.6234 69.6783C45.6864 69.9865 45.8388 70.2218 46.0808 70.3842C46.3227 70.5433 46.6326 70.6229 47.0105 70.6229C47.3817 70.6229 47.68 70.5516 47.9054 70.4091C48.1341 70.2633 48.2501 70.076 48.2534 69.8473C48.2501 69.6551 48.1689 69.4976 48.0098 69.375C47.8507 69.2491 47.6054 69.1529 47.274 69.0866L45.9515 68.8232C45.2058 68.674 44.6506 68.4155 44.286 68.0476C43.9248 67.6797 43.7441 67.2107 43.7441 66.6406C43.7441 66.1501 43.8767 65.7275 44.1419 65.3729C44.4103 65.0182 44.7865 64.7448 45.2704 64.5526C45.7576 64.3603 46.3277 64.2642 46.9806 64.2642C47.9451 64.2642 48.7041 64.468 49.2576 64.8757C49.8145 65.2834 50.1393 65.8385 50.2321 66.5412Z" fill="white"/>
</g>
<defs>
<filter id="filter0_d_10_219" x="0.5" y="0" width="59" height="83" filterUnits="userSpaceOnUse" color-interpolation-filters="sRGB">
<feFlood flood-opacity="0" result="BackgroundImageFix"/>
<feColorMatrix in="SourceAlpha" type="matrix" values="0 0 0 0 0 0 0 0 0 0 0 0 0 0 0 0 0 0 127 0" result="hardAlpha"/>
<feOffset dx="4" dy="4"/>
<feGaussianBlur stdDeviation="2"/>
<feComposite in2="hardAlpha" operator="out"/>
<feColorMatrix type="matrix" values="0 0 0 0 0 0 0 0 0 0 0 0 0 0 0 0 0 0 0.25 0"/>
<feBlend mode="normal" in2="BackgroundImageFix" result="effect1_dropShadow_10_219"/>
<feBlend mode="normal" in="SourceGraphic" in2="effect1_dropShadow_10_219" result="shape"/>
</filter>
<filter id="filter1_d_10_219" x="-3.5" y="12.5" width="58" height="33" filterUnits="userSpaceOnUse" color-interpolation-filters="sRGB">
<feFlood flood-opacity="0" result="BackgroundImageFix"/>
<feColorMatrix in="SourceAlpha" type="matrix" values="0 0 0 0 0 0 0 0 0 0 0 0 0 0 0 0 0 0 127 0" result="hardAlpha"/>
<feOffset dy="4"/>
<feGaussianBlur stdDeviation="2"/>
<feComposite in2="hardAlpha" operator="out"/>
<feColorMatrix type="matrix" values="0 0 0 0 0 0 0 0 0 0 0 0 0 0 0 0 0 0 0.25 0"/>
<feBlend mode="normal" in2="BackgroundImageFix" result="effect1_dropShadow_10_219"/>
<feBlend mode="normal" in="SourceGraphic" in2="effect1_dropShadow_10_219" result="shape"/>
</filter>
<clipPath id="clip0_10_219">
<rect width="50" height="50" fill="white" transform="translate(0.5)"/>
</clipPath>
</defs>
</svg>
