<svg width="23" height="25" viewBox="0 0 23 25" fill="none" xmlns="http://www.w3.org/2000/svg">
<path d="M16.3056 0.00170898C14.1519 0.00170898 12.3116 1.91403 11.3006 3.23243C10.2895 1.91403 8.45334 0.00170898 6.3007 0.00170898C2.59036 0.00170898 0 3.22347 0 7.83531C0 12.9169 3.21714 16.2014 6.32947 19.3783C7.79882 20.8798 9.31953 22.4311 10.4858 24.1515C10.682 24.4395 10.9697 24.6059 11.2718 24.6059H11.3314C11.6345 24.6059 11.9212 24.4382 12.1164 24.1515C13.2847 22.4311 14.8044 20.8785 16.2748 19.3783C19.3861 16.2027 22.6053 12.9182 22.6053 7.83531C22.6053 3.22347 20.0149 0.00170898 16.3056 0.00170898Z" fill="#F13D3D"/>
</svg>
