<svg width="76" height="81" viewBox="0 0 76 81" fill="none" xmlns="http://www.w3.org/2000/svg">
<g clip-path="url(#clip0_10_223)">
<path d="M30.3125 23.4375V35.9375L41.25 29.6875L30.3125 23.4375Z" fill="white"/>
<g filter="url(#filter0_d_10_223)">
<path d="M50.625 43.75H19.375C18.5465 43.7492 17.7521 43.4197 17.1662 42.8338C16.5803 42.2479 16.2508 41.4535 16.25 40.625V18.75C16.2508 17.9215 16.5803 17.1271 17.1662 16.5412C17.7521 15.9553 18.5465 15.6258 19.375 15.625H50.625C51.4535 15.6258 52.2479 15.9553 52.8338 16.5412C53.4197 17.1271 53.7492 17.9215 53.75 18.75V40.625C53.7492 41.4535 53.4197 42.2479 52.8338 42.8338C52.2479 43.4197 51.4535 43.7492 50.625 43.75ZM19.375 18.75V40.625H50.625V18.75H19.375ZM19.375 9.375H50.625V12.5H19.375V9.375ZM22.5 3.125H47.5V6.25H22.5V3.125Z" fill="white"/>
</g>
</g>
<g filter="url(#filter1_d_10_223)">
<path d="M1.38494 72V61.8182H5.46165C6.2107 61.8182 6.83546 61.9292 7.33594 62.1513C7.83641 62.3733 8.2126 62.6816 8.46449 63.076C8.71638 63.4671 8.84233 63.9179 8.84233 64.4283C8.84233 64.826 8.76278 65.1757 8.60369 65.4773C8.4446 65.7756 8.22585 66.0208 7.94744 66.2131C7.67235 66.402 7.35748 66.5362 7.00284 66.6158V66.7152C7.39063 66.7318 7.75355 66.8411 8.09162 67.0433C8.433 67.2455 8.70975 67.5289 8.92188 67.8935C9.134 68.2547 9.24006 68.6856 9.24006 69.1861C9.24006 69.7263 9.10582 70.2086 8.83736 70.6328C8.57221 71.0537 8.17945 71.3868 7.65909 71.6321C7.13873 71.8774 6.4974 72 5.73509 72H1.38494ZM3.53764 70.2401H5.29261C5.89252 70.2401 6.33002 70.1257 6.60511 69.897C6.88021 69.665 7.01776 69.3568 7.01776 68.9723C7.01776 68.6906 6.94981 68.442 6.81392 68.2266C6.67803 68.0111 6.48414 67.8421 6.23224 67.7195C5.98366 67.5968 5.68703 67.5355 5.34233 67.5355H3.53764V70.2401ZM3.53764 66.0788H5.13352C5.4285 66.0788 5.69034 66.0275 5.91903 65.9247C6.15104 65.8187 6.33333 65.6695 6.46591 65.4773C6.6018 65.285 6.66974 65.0547 6.66974 64.7862C6.66974 64.4183 6.53883 64.1217 6.27699 63.8963C6.01847 63.6709 5.65057 63.5582 5.1733 63.5582H3.53764V66.0788ZM10.601 72V64.3636H12.7189V72H10.601ZM11.665 63.3793C11.3501 63.3793 11.08 63.2749 10.8546 63.0661C10.6325 62.8539 10.5215 62.6004 10.5215 62.3054C10.5215 62.0137 10.6325 61.7635 10.8546 61.5547C11.08 61.3426 11.3501 61.2365 11.665 61.2365C11.9798 61.2365 12.2483 61.3426 12.4703 61.5547C12.6957 61.7635 12.8084 62.0137 12.8084 62.3054C12.8084 62.6004 12.6957 62.8539 12.4703 63.0661C12.2483 63.2749 11.9798 63.3793 11.665 63.3793ZM14.4553 72V61.8182H16.5732V65.6463H16.6378C16.7306 65.4408 16.8648 65.232 17.0405 65.0199C17.2195 64.8045 17.4515 64.6255 17.7365 64.483C18.0249 64.3371 18.3828 64.2642 18.8104 64.2642C19.3672 64.2642 19.8809 64.41 20.3516 64.7017C20.8222 64.9901 21.1984 65.4259 21.4801 66.0092C21.7618 66.5893 21.9027 67.3168 21.9027 68.1918C21.9027 69.0436 21.7652 69.7628 21.4901 70.3494C21.2183 70.9328 20.8471 71.3752 20.3764 71.6768C19.9091 71.9751 19.3854 72.1243 18.8054 72.1243C18.3944 72.1243 18.0447 72.0563 17.7564 71.9205C17.4714 71.7846 17.2377 71.6139 17.0554 71.4084C16.8731 71.1996 16.7339 70.9891 16.6378 70.777H16.5433V72H14.4553ZM16.5284 68.1818C16.5284 68.6359 16.5914 69.032 16.7173 69.37C16.8433 69.7081 17.0256 69.9716 17.2642 70.1605C17.5028 70.3461 17.7929 70.4389 18.1342 70.4389C18.4789 70.4389 18.7706 70.3445 19.0092 70.1555C19.2479 69.9633 19.4285 69.6982 19.5511 69.3601C19.6771 69.0187 19.7401 68.6259 19.7401 68.1818C19.7401 67.741 19.6787 67.3532 19.5561 67.0185C19.4335 66.6837 19.2528 66.4219 19.0142 66.233C18.7756 66.044 18.4822 65.9496 18.1342 65.9496C17.7895 65.9496 17.4979 66.0407 17.2592 66.223C17.0239 66.4053 16.8433 66.6638 16.7173 66.9986C16.5914 67.3333 16.5284 67.7277 16.5284 68.1818ZM25.4338 61.8182V72H23.3159V61.8182H25.4338ZM27.1303 72V64.3636H29.2482V72H27.1303ZM28.1942 63.3793C27.8794 63.3793 27.6093 63.2749 27.3839 63.0661C27.1618 62.8539 27.0508 62.6004 27.0508 62.3054C27.0508 62.0137 27.1618 61.7635 27.3839 61.5547C27.6093 61.3426 27.8794 61.2365 28.1942 61.2365C28.5091 61.2365 28.7776 61.3426 28.9996 61.5547C29.225 61.7635 29.3377 62.0137 29.3377 62.3054C29.3377 62.6004 29.225 62.8539 28.9996 63.0661C28.7776 63.2749 28.5091 63.3793 28.1942 63.3793ZM34.3951 72.1491C33.6228 72.1491 32.955 71.9851 32.3915 71.657C31.8314 71.3255 31.3989 70.8648 31.0939 70.2749C30.789 69.6816 30.6365 68.9938 30.6365 68.2116C30.6365 67.4228 30.789 66.7334 31.0939 66.1435C31.3989 65.5502 31.8314 65.0895 32.3915 64.7614C32.955 64.4299 33.6228 64.2642 34.3951 64.2642C35.1673 64.2642 35.8335 64.4299 36.3936 64.7614C36.9571 65.0895 37.3913 65.5502 37.6962 66.1435C38.0011 66.7334 38.1536 67.4228 38.1536 68.2116C38.1536 68.9938 38.0011 69.6816 37.6962 70.2749C37.3913 70.8648 36.9571 71.3255 36.3936 71.657C35.8335 71.9851 35.1673 72.1491 34.3951 72.1491ZM34.405 70.5085C34.7563 70.5085 35.0497 70.4091 35.285 70.2102C35.5203 70.008 35.6976 69.733 35.8169 69.3849C35.9396 69.0369 36.0009 68.6409 36.0009 68.1967C36.0009 67.7526 35.9396 67.3565 35.8169 67.0085C35.6976 66.6605 35.5203 66.3854 35.285 66.1832C35.0497 65.9811 34.7563 65.88 34.405 65.88C34.0504 65.88 33.7521 65.9811 33.5101 66.1832C33.2715 66.3854 33.0909 66.6605 32.9682 67.0085C32.8489 67.3565 32.7892 67.7526 32.7892 68.1967C32.7892 68.6409 32.8489 69.0369 32.9682 69.3849C33.0909 69.733 33.2715 70.008 33.5101 70.2102C33.7521 70.4091 34.0504 70.5085 34.405 70.5085ZM43.5925 64.3636V65.9545H38.9938V64.3636H43.5925ZM40.0378 62.5341H42.1557V69.6534C42.1557 69.849 42.1855 70.0014 42.2452 70.1108C42.3049 70.2169 42.3877 70.2914 42.4938 70.3345C42.6032 70.3776 42.7291 70.3991 42.8716 70.3991C42.9711 70.3991 43.0705 70.3909 43.1699 70.3743C43.2694 70.3544 43.3456 70.3395 43.3986 70.3295L43.7317 71.9055C43.6257 71.9387 43.4765 71.9768 43.2843 72.0199C43.092 72.0663 42.8584 72.0945 42.5833 72.1044C42.0729 72.1243 41.6254 72.0563 41.2409 71.9006C40.8598 71.7448 40.5632 71.5028 40.351 71.1747C40.1389 70.8466 40.0345 70.4323 40.0378 69.9318V62.5341ZM48.3702 72.1491C47.5847 72.1491 46.9086 71.9901 46.3418 71.6719C45.7783 71.3504 45.3442 70.8963 45.0392 70.3097C44.7343 69.7197 44.5819 69.022 44.5819 68.2166C44.5819 67.4311 44.7343 66.7417 45.0392 66.1484C45.3442 65.5552 45.7734 65.0928 46.3269 64.7614C46.8837 64.4299 47.5366 64.2642 48.2857 64.2642C48.7895 64.2642 49.2585 64.3454 49.6926 64.5078C50.1301 64.6669 50.5113 64.9072 50.8361 65.2287C51.1642 65.5502 51.4194 65.9545 51.6017 66.4418C51.784 66.9257 51.8752 67.4924 51.8752 68.142V68.7237H45.427V67.4112H49.8816C49.8816 67.1063 49.8153 66.8362 49.6827 66.6009C49.5501 66.3655 49.3662 66.1816 49.1309 66.049C48.8989 65.9131 48.6287 65.8452 48.3205 65.8452C47.999 65.8452 47.714 65.9197 47.4654 66.0689C47.2201 66.2147 47.0279 66.4119 46.8887 66.6605C46.7495 66.9058 46.6782 67.1792 46.6749 67.4808V68.7287C46.6749 69.1065 46.7445 69.433 46.8837 69.7081C47.0262 69.9832 47.2267 70.1953 47.4853 70.3445C47.7438 70.4936 48.0504 70.5682 48.405 70.5682C48.6403 70.5682 48.8558 70.535 49.0513 70.4688C49.2469 70.4025 49.4142 70.303 49.5534 70.1705C49.6926 70.0379 49.7987 69.8755 49.8716 69.6832L51.8304 69.8125C51.731 70.2831 51.5272 70.6941 51.2189 71.0455C50.914 71.3935 50.5196 71.6652 50.0357 71.8608C49.5551 72.053 48.9999 72.1491 48.3702 72.1491ZM56.7076 72.1491C55.9254 72.1491 55.2525 71.9834 54.6891 71.652C54.129 71.3172 53.6981 70.8532 53.3965 70.2599C53.0982 69.6667 52.949 68.9839 52.949 68.2116C52.949 67.4295 53.0998 66.7434 53.4015 66.1534C53.7064 65.5601 54.1389 65.0978 54.699 64.7663C55.2592 64.4316 55.9254 64.2642 56.6976 64.2642C57.3638 64.2642 57.9471 64.3852 58.4476 64.6271C58.9481 64.8691 59.3442 65.2088 59.6358 65.6463C59.9275 66.0838 60.0882 66.5975 60.1181 67.1875H58.1195C58.0632 66.8063 57.914 66.4998 57.6721 66.2678C57.4334 66.0324 57.1202 65.9148 56.7324 65.9148C56.4043 65.9148 56.1176 66.0043 55.8723 66.1832C55.6304 66.3589 55.4415 66.6158 55.3056 66.9538C55.1697 67.2919 55.1017 67.7012 55.1017 68.1818C55.1017 68.669 55.168 69.0833 55.3006 69.4247C55.4365 69.7661 55.6271 70.0263 55.8723 70.2053C56.1176 70.3842 56.4043 70.4737 56.7324 70.4737C56.9744 70.4737 57.1915 70.424 57.3837 70.3246C57.5792 70.2251 57.74 70.081 57.8659 69.892C57.9952 69.6998 58.0797 69.4695 58.1195 69.201H60.1181C60.0849 69.7843 59.9258 70.2981 59.6408 70.7422C59.3591 71.183 58.9696 71.5277 58.4725 71.7763C57.9753 72.0249 57.387 72.1491 56.7076 72.1491ZM63.6516 72.1442C63.1644 72.1442 62.7302 72.0597 62.3491 71.8906C61.9679 71.7183 61.6663 71.4647 61.4442 71.13C61.2255 70.7919 61.1161 70.371 61.1161 69.8672C61.1161 69.4429 61.194 69.0866 61.3498 68.7983C61.5056 68.5099 61.7177 68.2779 61.9862 68.1023C62.2546 67.9266 62.5595 67.794 62.9009 67.7045C63.2456 67.6151 63.6069 67.5521 63.9847 67.5156C64.4289 67.4692 64.7868 67.4261 65.0586 67.3864C65.3304 67.3433 65.5276 67.2803 65.6502 67.1974C65.7728 67.1146 65.8342 66.992 65.8342 66.8295V66.7997C65.8342 66.4848 65.7347 66.2412 65.5359 66.0689C65.3403 65.8965 65.0619 65.8104 64.7006 65.8104C64.3195 65.8104 64.0162 65.8949 63.7908 66.0639C63.5655 66.2296 63.4163 66.4384 63.3434 66.6903L61.3846 66.5312C61.484 66.0672 61.6796 65.6662 61.9712 65.3281C62.2629 64.9867 62.6391 64.7249 63.0998 64.5426C63.5638 64.357 64.1007 64.2642 64.7106 64.2642C65.1348 64.2642 65.5408 64.3139 65.9286 64.4134C66.3197 64.5128 66.6661 64.6669 66.9677 64.8757C67.2726 65.0845 67.5129 65.353 67.6886 65.6811C67.8642 66.0059 67.9521 66.3954 67.9521 66.8494V72H65.9435V70.9411H65.8839C65.7612 71.1797 65.5972 71.3902 65.3917 71.5724C65.1862 71.7514 64.9393 71.8923 64.6509 71.995C64.3626 72.0945 64.0295 72.1442 63.6516 72.1442ZM64.2582 70.6825C64.5697 70.6825 64.8448 70.6212 65.0835 70.4986C65.3221 70.3726 65.5094 70.2036 65.6452 69.9915C65.7811 69.7794 65.8491 69.5391 65.8491 69.2706V68.4602C65.7828 68.5033 65.6916 68.5431 65.5756 68.5795C65.463 68.6127 65.3353 68.6442 65.1928 68.674C65.0503 68.7005 64.9078 68.7254 64.7653 68.7486C64.6228 68.7685 64.4935 68.7867 64.3775 68.8033C64.1289 68.8397 63.9118 68.8977 63.7262 68.9773C63.5406 69.0568 63.3964 69.1645 63.2937 69.3004C63.1909 69.433 63.1396 69.5987 63.1396 69.7976C63.1396 70.0859 63.244 70.3063 63.4528 70.4588C63.6649 70.608 63.9334 70.6825 64.2582 70.6825Z" fill="white"/>
</g>
<defs>
<filter id="filter0_d_10_223" x="12.25" y="3.125" width="45.5" height="48.625" filterUnits="userSpaceOnUse" color-interpolation-filters="sRGB">
<feFlood flood-opacity="0" result="BackgroundImageFix"/>
<feColorMatrix in="SourceAlpha" type="matrix" values="0 0 0 0 0 0 0 0 0 0 0 0 0 0 0 0 0 0 127 0" result="hardAlpha"/>
<feOffset dy="4"/>
<feGaussianBlur stdDeviation="2"/>
<feComposite in2="hardAlpha" operator="out"/>
<feColorMatrix type="matrix" values="0 0 0 0 0 0 0 0 0 0 0 0 0 0 0 0 0 0 0.25 0"/>
<feBlend mode="normal" in2="BackgroundImageFix" result="effect1_dropShadow_10_223"/>
<feBlend mode="normal" in="SourceGraphic" in2="effect1_dropShadow_10_223" result="shape"/>
</filter>
<filter id="filter1_d_10_223" x="1.38501" y="61.2366" width="74.5671" height="18.9126" filterUnits="userSpaceOnUse" color-interpolation-filters="sRGB">
<feFlood flood-opacity="0" result="BackgroundImageFix"/>
<feColorMatrix in="SourceAlpha" type="matrix" values="0 0 0 0 0 0 0 0 0 0 0 0 0 0 0 0 0 0 127 0" result="hardAlpha"/>
<feOffset dx="4" dy="4"/>
<feGaussianBlur stdDeviation="2"/>
<feComposite in2="hardAlpha" operator="out"/>
<feColorMatrix type="matrix" values="0 0 0 0 0 0 0 0 0 0 0 0 0 0 0 0 0 0 0.25 0"/>
<feBlend mode="normal" in2="BackgroundImageFix" result="effect1_dropShadow_10_223"/>
<feBlend mode="normal" in="SourceGraphic" in2="effect1_dropShadow_10_223" result="shape"/>
</filter>
<clipPath id="clip0_10_223">
<rect width="50" height="50" fill="white" transform="translate(10)"/>
</clipPath>
</defs>
</svg>
