<svg width="600" height="97" viewBox="0 0 600 97" fill="none" xmlns="http://www.w3.org/2000/svg">
<rect y="0.5" width="600" height="96" rx="16" fill="white"/>
<path d="M242.411 63.5V34.4091H262.013V39.4801H248.562V46.4119H261.005V51.483H248.562V58.429H262.07V63.5H242.411ZM272.841 50.8864V63.5H266.79V41.6818H272.557V45.5312H272.812C273.295 44.2623 274.105 43.2585 275.241 42.5199C276.378 41.7718 277.756 41.3977 279.375 41.3977C280.89 41.3977 282.211 41.7292 283.338 42.392C284.465 43.0549 285.341 44.0019 285.966 45.233C286.591 46.4545 286.903 47.9129 286.903 49.608V63.5H280.852V50.6875C280.862 49.3523 280.521 48.3106 279.83 47.5625C279.138 46.8049 278.187 46.4261 276.974 46.4261C276.16 46.4261 275.44 46.6013 274.815 46.9517C274.2 47.3021 273.717 47.8134 273.366 48.4858C273.026 49.1487 272.85 49.9489 272.841 50.8864ZM303.278 41.6818V46.2273H290.138V41.6818H303.278ZM293.121 36.4545H299.173V56.7955C299.173 57.3542 299.258 57.7898 299.428 58.1023C299.599 58.4053 299.835 58.6184 300.138 58.7415C300.451 58.8646 300.811 58.9261 301.218 58.9261C301.502 58.9261 301.786 58.9025 302.07 58.8551C302.354 58.7983 302.572 58.7557 302.724 58.7273L303.675 63.2301C303.372 63.3248 302.946 63.4337 302.397 63.5568C301.848 63.6894 301.18 63.7699 300.394 63.7983C298.936 63.8551 297.657 63.661 296.559 63.2159C295.47 62.7708 294.622 62.0795 294.016 61.142C293.41 60.2045 293.112 59.0208 293.121 57.5909V36.4545ZM307.219 63.5V41.6818H313.086V45.4886H313.313C313.711 44.1345 314.379 43.1117 315.316 42.4205C316.254 41.7197 317.333 41.3693 318.555 41.3693C318.858 41.3693 319.184 41.3883 319.535 41.4261C319.885 41.464 320.193 41.5161 320.458 41.5824V46.9517C320.174 46.8665 319.781 46.7907 319.279 46.7244C318.777 46.6581 318.318 46.625 317.901 46.625C317.011 46.625 316.216 46.8191 315.515 47.2074C314.824 47.5862 314.274 48.1165 313.867 48.7983C313.469 49.4801 313.271 50.2661 313.271 51.1562V63.5H307.219ZM329.183 63.9119C327.791 63.9119 326.551 63.6705 325.462 63.1875C324.373 62.6951 323.511 61.9706 322.876 61.0142C322.251 60.0483 321.939 58.8456 321.939 57.4062C321.939 56.1941 322.161 55.1761 322.607 54.3523C323.052 53.5284 323.658 52.8655 324.425 52.3636C325.192 51.8617 326.063 51.483 327.038 51.2273C328.023 50.9716 329.055 50.7917 330.135 50.6875C331.404 50.5549 332.427 50.4318 333.203 50.3182C333.98 50.1951 334.543 50.0152 334.893 49.7784C335.244 49.5417 335.419 49.1913 335.419 48.7273V48.642C335.419 47.7424 335.135 47.0464 334.567 46.554C334.008 46.0616 333.213 45.8153 332.18 45.8153C331.091 45.8153 330.225 46.0568 329.581 46.5398C328.937 47.0133 328.511 47.6098 328.303 48.3295L322.706 47.875C322.99 46.5492 323.549 45.4034 324.382 44.4375C325.215 43.4621 326.29 42.714 327.607 42.1932C328.932 41.6629 330.466 41.3977 332.209 41.3977C333.421 41.3977 334.581 41.5398 335.689 41.8239C336.806 42.108 337.796 42.5483 338.658 43.1449C339.529 43.7415 340.215 44.5085 340.717 45.446C341.219 46.3741 341.47 47.4867 341.47 48.7841V63.5H335.732V60.4744H335.561C335.211 61.1562 334.742 61.7576 334.155 62.2784C333.568 62.7898 332.862 63.1922 332.038 63.4858C331.214 63.7699 330.263 63.9119 329.183 63.9119ZM330.916 59.7358C331.806 59.7358 332.592 59.5606 333.274 59.2102C333.956 58.8504 334.491 58.3674 334.879 57.7614C335.268 57.1553 335.462 56.4687 335.462 55.7017V53.3864C335.272 53.5095 335.012 53.6231 334.68 53.7273C334.358 53.822 333.994 53.9119 333.587 53.9972C333.179 54.0729 332.772 54.1439 332.365 54.2102C331.958 54.267 331.589 54.3191 331.257 54.3665C330.547 54.4706 329.927 54.6364 329.396 54.8636C328.866 55.0909 328.454 55.3987 328.161 55.7869C327.867 56.1657 327.72 56.6392 327.72 57.2074C327.72 58.0312 328.018 58.661 328.615 59.0966C329.221 59.5227 329.988 59.7358 330.916 59.7358ZM346.165 63.5V41.6818H352.031V45.4886H352.259C352.656 44.1345 353.324 43.1117 354.261 42.4205C355.199 41.7197 356.278 41.3693 357.5 41.3693C357.803 41.3693 358.13 41.3883 358.48 41.4261C358.83 41.464 359.138 41.5161 359.403 41.5824V46.9517C359.119 46.8665 358.726 46.7907 358.224 46.7244C357.723 46.6581 357.263 46.625 356.847 46.625C355.956 46.625 355.161 46.8191 354.46 47.2074C353.769 47.5862 353.22 48.1165 352.812 48.7983C352.415 49.4801 352.216 50.2661 352.216 51.1562V63.5H346.165Z" fill="black"/>
</svg>
