<svg width="203" height="44" viewBox="0 0 203 44" fill="none" xmlns="http://www.w3.org/2000/svg">
<path d="M5.55472 8.20288L0.521589 10.7329C-0.0686152 11.0315 -0.183377 11.8015 0.30846 12.2572L4.58744 16.1386L5.55472 8.20288V8.20288Z" fill="url(#paint0_radial_10_11)"/>
<path d="M5.55472 8.20288L0.521589 10.7329C-0.0686152 11.0315 -0.183377 11.8015 0.30846 12.2572L4.58744 16.1386L5.55472 8.20288V8.20288Z" fill="url(#paint1_radial_10_11)"/>
<path d="M17.2112 41.6429H14.3913L16.3587 32.2144H13.8995L11.9321 41.6429H8.98109C7.78429 41.6429 6.80061 42.4601 6.57109 43.5444C6.50551 43.7801 6.71864 44.0001 6.96456 44.0001H19.2113C19.4736 44.0001 19.6704 43.7801 19.6212 43.5444C19.3916 42.4601 18.408 41.6429 17.2112 41.6429V41.6429Z" fill="url(#paint2_linear_10_11)"/>
<path d="M17.2112 41.6429H14.3913L16.3587 32.2144H13.8995L11.9321 41.6429H8.98109C7.78429 41.6429 6.80061 42.4601 6.57109 43.5444C6.50551 43.7801 6.71864 44.0001 6.96456 44.0001H19.2113C19.4736 44.0001 19.6704 43.7801 19.6212 43.5444C19.3916 42.4601 18.408 41.6429 17.2112 41.6429V41.6429Z" fill="url(#paint3_linear_10_11)"/>
<path d="M17.2112 41.6429H14.3913L16.3587 32.2144H13.8995L11.9321 41.6429H8.98109C7.78429 41.6429 6.80061 42.4601 6.57109 43.5444C6.50551 43.7801 6.71864 44.0001 6.96456 44.0001H19.2113C19.4736 44.0001 19.6704 43.7801 19.6212 43.5444C19.3916 42.4601 18.408 41.6429 17.2112 41.6429V41.6429Z" fill="url(#paint4_radial_10_11)"/>
<path d="M17.2112 41.6429H14.3913L16.3587 32.2144H13.8995L11.9321 41.6429H8.98109C7.78429 41.6429 6.80061 42.4601 6.57109 43.5444C6.50551 43.7801 6.71864 44.0001 6.96456 44.0001H19.2113C19.4736 44.0001 19.6704 43.7801 19.6212 43.5444C19.3916 42.4601 18.408 41.6429 17.2112 41.6429V41.6429Z" fill="url(#paint5_linear_10_11)"/>
<g filter="url(#filter0_f_10_11)">
<path d="M7.91553 43.3369H15.5751" stroke="url(#paint6_linear_10_11)" stroke-opacity="0.75" stroke-width="0.25"/>
</g>
<path d="M25.5069 41.6429H22.5887L24.556 32.2144H22.0969L20.1295 41.6429H17.1785C15.9817 41.6429 14.998 42.4601 14.7685 43.5444C14.7029 43.7801 14.916 44.0001 15.1619 44.0001H27.5071C27.7694 44.0001 27.9661 43.7801 27.9169 43.5444C27.804 43.0104 27.5028 42.5299 27.064 42.1837C26.6251 41.8374 26.0753 41.6465 25.5069 41.6429V41.6429Z" fill="url(#paint7_linear_10_11)"/>
<path d="M25.5069 41.6429H22.5887L24.556 32.2144H22.0969L20.1295 41.6429H17.1785C15.9817 41.6429 14.998 42.4601 14.7685 43.5444C14.7029 43.7801 14.916 44.0001 15.1619 44.0001H27.5071C27.7694 44.0001 27.9661 43.7801 27.9169 43.5444C27.804 43.0104 27.5028 42.5299 27.064 42.1837C26.6251 41.8374 26.0753 41.6465 25.5069 41.6429V41.6429Z" fill="url(#paint8_linear_10_11)"/>
<path d="M25.5069 41.6429H22.5887L24.556 32.2144H22.0969L20.1295 41.6429H17.1785C15.9817 41.6429 14.998 42.4601 14.7685 43.5444C14.7029 43.7801 14.916 44.0001 15.1619 44.0001H27.5071C27.7694 44.0001 27.9661 43.7801 27.9169 43.5444C27.804 43.0104 27.5028 42.5299 27.064 42.1837C26.6251 41.8374 26.0753 41.6465 25.5069 41.6429V41.6429Z" fill="url(#paint9_linear_10_11)"/>
<path d="M25.5069 41.6429H22.5887L24.556 32.2144H22.0969L20.1295 41.6429H17.1785C15.9817 41.6429 14.998 42.4601 14.7685 43.5444C14.7029 43.7801 14.916 44.0001 15.1619 44.0001H27.5071C27.7694 44.0001 27.9661 43.7801 27.9169 43.5444C27.804 43.0104 27.5028 42.5299 27.064 42.1837C26.6251 41.8374 26.0753 41.6465 25.5069 41.6429V41.6429Z" fill="url(#paint10_radial_10_11)"/>
<g filter="url(#filter1_f_10_11)">
<path d="M15.8572 43.3369H27.1039" stroke="url(#paint11_linear_10_11)" stroke-opacity="0.75" stroke-width="0.25"/>
</g>
<path d="M23.4248 36.1427L23.6543 27.9242L42.3114 19.5956C42.4915 19.5159 42.6896 19.4807 42.8876 19.4932C43.0856 19.5056 43.2773 19.5653 43.4451 19.6668C43.6129 19.7683 43.7515 19.9084 43.8485 20.0743C43.9454 20.2403 43.9975 20.4269 44 20.617V34.9956C44 35.6242 43.4754 36.127 42.8196 36.127H23.4248V36.1427V36.1427Z" fill="url(#paint12_linear_10_11)"/>
<path d="M23.4248 36.1427L23.6543 27.9242L42.3114 19.5956C42.4915 19.5159 42.6896 19.4807 42.8876 19.4932C43.0856 19.5056 43.2773 19.5653 43.4451 19.6668C43.6129 19.7683 43.7515 19.9084 43.8485 20.0743C43.9454 20.2403 43.9975 20.4269 44 20.617V34.9956C44 35.6242 43.4754 36.127 42.8196 36.127H23.4248V36.1427V36.1427Z" fill="url(#paint13_linear_10_11)"/>
<path d="M23.4248 36.1427L23.6543 27.9242L42.3114 19.5956C42.4915 19.5159 42.6896 19.4807 42.8876 19.4932C43.0856 19.5056 43.2773 19.5653 43.4451 19.6668C43.6129 19.7683 43.7515 19.9084 43.8485 20.0743C43.9454 20.2403 43.9975 20.4269 44 20.617V34.9956C44 35.6242 43.4754 36.127 42.8196 36.127H23.4248V36.1427V36.1427Z" fill="url(#paint14_linear_10_11)"/>
<path d="M23.8837 6.63143C23.6706 5.97143 23.3919 5.34286 23.0312 4.76143H24.0477C26.1626 4.76143 27.8676 3.12714 27.8676 1.1C27.8676 0.502857 27.343 0 26.72 0L14.4896 0C9.27616 0 5.01357 3.89714 4.66929 8.81571L2.55439 26.3843C1.93139 31.5857 6.16119 36.1429 11.6206 36.1429H34.1631L23.8837 6.63143V6.63143Z" fill="url(#paint15_linear_10_11)"/>
<path d="M23.8837 6.63143C23.6706 5.97143 23.3919 5.34286 23.0312 4.76143H24.0477C26.1626 4.76143 27.8676 3.12714 27.8676 1.1C27.8676 0.502857 27.343 0 26.72 0L14.4896 0C9.27616 0 5.01357 3.89714 4.66929 8.81571L2.55439 26.3843C1.93139 31.5857 6.16119 36.1429 11.6206 36.1429H34.1631L23.8837 6.63143V6.63143Z" fill="url(#paint16_linear_10_11)"/>
<path d="M23.8837 6.63143C23.6706 5.97143 23.3919 5.34286 23.0312 4.76143H24.0477C26.1626 4.76143 27.8676 3.12714 27.8676 1.1C27.8676 0.502857 27.343 0 26.72 0L14.4896 0C9.27616 0 5.01357 3.89714 4.66929 8.81571L2.55439 26.3843C1.93139 31.5857 6.16119 36.1429 11.6206 36.1429H34.1631L23.8837 6.63143V6.63143Z" fill="url(#paint17_radial_10_11)"/>
<path d="M23.8837 6.63143C23.6706 5.97143 23.3919 5.34286 23.0312 4.76143H24.0477C26.1626 4.76143 27.8676 3.12714 27.8676 1.1C27.8676 0.502857 27.343 0 26.72 0L14.4896 0C9.27616 0 5.01357 3.89714 4.66929 8.81571L2.55439 26.3843C1.93139 31.5857 6.16119 36.1429 11.6206 36.1429H34.1631L23.8837 6.63143V6.63143Z" fill="url(#paint18_linear_10_11)"/>
<path d="M23.8837 6.63143C23.6706 5.97143 23.3919 5.34286 23.0312 4.76143H24.0477C26.1626 4.76143 27.8676 3.12714 27.8676 1.1C27.8676 0.502857 27.343 0 26.72 0L14.4896 0C9.27616 0 5.01357 3.89714 4.66929 8.81571L2.55439 26.3843C1.93139 31.5857 6.16119 36.1429 11.6206 36.1429H34.1631L23.8837 6.63143V6.63143Z" fill="url(#paint19_radial_10_11)"/>
<path d="M16.6868 14.1428V25.0328C16.6868 27.9794 17.908 30.8052 20.0817 32.8888C22.2554 34.9723 25.2036 36.1428 28.2777 36.1428H34.1634L26.5071 14.1428H16.6868Z" fill="url(#paint20_linear_10_11)"/>
<path d="M11.4796 11.0363C11.697 11.0363 11.9055 10.9535 12.0593 10.8061C12.213 10.6588 12.2994 10.4589 12.2994 10.2506C12.2994 10.0422 12.213 9.84233 12.0593 9.69498C11.9055 9.54763 11.697 9.46484 11.4796 9.46484C11.2622 9.46484 11.0537 9.54763 10.9 9.69498C10.7463 9.84233 10.6599 10.0422 10.6599 10.2506C10.6599 10.4589 10.7463 10.6588 10.9 10.8061C11.0537 10.9535 11.2622 11.0363 11.4796 11.0363Z" fill="url(#paint21_radial_10_11)"/>
<path d="M11.4796 11.0363C11.697 11.0363 11.9055 10.9535 12.0593 10.8061C12.213 10.6588 12.2994 10.4589 12.2994 10.2506C12.2994 10.0422 12.213 9.84233 12.0593 9.69498C11.9055 9.54763 11.697 9.46484 11.4796 9.46484C11.2622 9.46484 11.0537 9.54763 10.9 9.69498C10.7463 9.84233 10.6599 10.0422 10.6599 10.2506C10.6599 10.4589 10.7463 10.6588 10.9 10.8061C11.0537 10.9535 11.2622 11.0363 11.4796 11.0363Z" fill="url(#paint22_radial_10_11)"/>
<path d="M11.4796 11.0363C11.697 11.0363 11.9055 10.9535 12.0593 10.8061C12.213 10.6588 12.2994 10.4589 12.2994 10.2506C12.2994 10.0422 12.213 9.84233 12.0593 9.69498C11.9055 9.54763 11.697 9.46484 11.4796 9.46484C11.2622 9.46484 11.0537 9.54763 10.9 9.69498C10.7463 9.84233 10.6599 10.0422 10.6599 10.2506C10.6599 10.4589 10.7463 10.6588 10.9 10.8061C11.0537 10.9535 11.2622 11.0363 11.4796 11.0363Z" fill="url(#paint23_linear_10_11)"/>
<g filter="url(#filter2_f_10_11)">
<path d="M18.9573 26.3482L16.1948 6.57959H22.0313L31.8156 32.7486C31.8632 32.8762 31.8755 33.0135 31.8513 33.1471C31.8272 33.2806 31.7674 33.4059 31.6778 33.5108C31.5882 33.6157 31.4718 33.6965 31.34 33.7455C31.2081 33.7945 31.0653 33.81 30.9254 33.7904L25.8857 33.0786C24.1251 32.8296 22.497 32.0383 21.2471 30.8241C19.9972 29.6099 19.1934 28.0388 18.9573 26.3482V26.3482Z" fill="url(#paint24_linear_10_11)"/>
</g>
<g filter="url(#filter3_f_10_11)">
<path d="M23.0034 3.90351C23.9395 3.93494 26.1676 3.82022 26.8725 1.81665" stroke="url(#paint25_linear_10_11)" stroke-width="0.25"/>
</g>
<path fill-rule="evenodd" clip-rule="evenodd" d="M23.0313 4.76131C23.392 5.34274 23.6707 5.97131 23.8839 6.63131L24.7626 9.15031L17.7457 4.75659H24.0478L24.0494 4.76131H23.033H23.0313Z" fill="url(#paint26_linear_10_11)"/>
<g filter="url(#filter4_f_10_11)">
<path d="M43.1638 20.5276V34.5227" stroke="url(#paint27_linear_10_11)" stroke-width="0.4" stroke-linecap="round"/>
</g>
<path d="M76.716 18.672C76.716 19.8107 76.4547 20.856 75.932 21.808C75.4093 22.7413 74.6067 23.4973 73.524 24.076C72.4413 24.6547 71.0973 24.944 69.492 24.944H66.524V32H61.736V12.344H69.492C71.06 12.344 72.3853 12.6147 73.468 13.156C74.5507 13.6973 75.3627 14.444 75.904 15.396C76.4453 16.348 76.716 17.44 76.716 18.672ZM69.128 21.136C70.0427 21.136 70.724 20.9213 71.172 20.492C71.62 20.0627 71.844 19.456 71.844 18.672C71.844 17.888 71.62 17.2813 71.172 16.852C70.724 16.4227 70.0427 16.208 69.128 16.208H66.524V21.136H69.128ZM81.6167 14.752C80.7767 14.752 80.086 14.5093 79.5447 14.024C79.022 13.52 78.7607 12.904 78.7607 12.176C78.7607 11.4293 79.022 10.8133 79.5447 10.328C80.086 9.824 80.7767 9.572 81.6167 9.572C82.438 9.572 83.11 9.824 83.6327 10.328C84.174 10.8133 84.4447 11.4293 84.4447 12.176C84.4447 12.904 84.174 13.52 83.6327 14.024C83.11 14.5093 82.438 14.752 81.6167 14.752ZM83.9967 16.376V32H79.2087V16.376H83.9967ZM102.894 16.376V32H98.1065V29.872C97.6211 30.5627 96.9585 31.1227 96.1185 31.552C95.2971 31.9627 94.3825 32.168 93.3745 32.168C92.1798 32.168 91.1251 31.9067 90.2105 31.384C89.2958 30.8427 88.5865 30.068 88.0825 29.06C87.5785 28.052 87.3265 26.8667 87.3265 25.504V16.376H92.0865V24.86C92.0865 25.9053 92.3571 26.7173 92.8985 27.296C93.4398 27.8747 94.1678 28.164 95.0825 28.164C96.0158 28.164 96.7531 27.8747 97.2945 27.296C97.8358 26.7173 98.1065 25.9053 98.1065 24.86V16.376H102.894ZM121.314 18.672C121.314 19.8107 121.052 20.856 120.53 21.808C120.007 22.7413 119.204 23.4973 118.122 24.076C117.039 24.6547 115.695 24.944 114.09 24.944H111.122V32H106.334V12.344H114.09C115.658 12.344 116.983 12.6147 118.066 13.156C119.148 13.6973 119.96 14.444 120.502 15.396C121.043 16.348 121.314 17.44 121.314 18.672ZM113.726 21.136C114.64 21.136 115.322 20.9213 115.77 20.492C116.218 20.0627 116.442 19.456 116.442 18.672C116.442 17.888 116.218 17.2813 115.77 16.852C115.322 16.4227 114.64 16.208 113.726 16.208H111.122V21.136H113.726ZM128.594 12.344V32H123.806V12.344H128.594ZM147.492 16.376V32H142.704V29.872C142.219 30.5627 141.556 31.1227 140.716 31.552C139.895 31.9627 138.98 32.168 137.972 32.168C136.777 32.168 135.723 31.9067 134.808 31.384C133.893 30.8427 133.184 30.068 132.68 29.06C132.176 28.052 131.924 26.8667 131.924 25.504V16.376H136.684V24.86C136.684 25.9053 136.955 26.7173 137.496 27.296C138.037 27.8747 138.765 28.164 139.68 28.164C140.613 28.164 141.351 27.8747 141.892 27.296C142.433 26.7173 142.704 25.9053 142.704 24.86V16.376H147.492ZM173.359 16.376L169.131 32H163.839L161.375 21.864L158.827 32H153.563L149.307 16.376H154.095L156.307 27.548L158.939 16.376H164.007L166.667 27.492L168.851 16.376H173.359ZM189.913 23.936C189.913 24.384 189.885 24.8507 189.829 25.336H178.993C179.068 26.3067 179.376 27.0533 179.917 27.576C180.477 28.08 181.159 28.332 181.961 28.332C183.156 28.332 183.987 27.828 184.453 26.82H189.549C189.288 27.8467 188.812 28.7707 188.121 29.592C187.449 30.4133 186.6 31.0573 185.573 31.524C184.547 31.9907 183.399 32.224 182.129 32.224C180.599 32.224 179.236 31.8973 178.041 31.244C176.847 30.5907 175.913 29.6573 175.241 28.444C174.569 27.2307 174.233 25.812 174.233 24.188C174.233 22.564 174.56 21.1453 175.213 19.932C175.885 18.7187 176.819 17.7853 178.013 17.132C179.208 16.4787 180.58 16.152 182.129 16.152C183.641 16.152 184.985 16.4693 186.161 17.104C187.337 17.7387 188.252 18.644 188.905 19.82C189.577 20.996 189.913 22.368 189.913 23.936ZM185.013 22.676C185.013 21.8547 184.733 21.2013 184.173 20.716C183.613 20.2307 182.913 19.988 182.073 19.988C181.271 19.988 180.589 20.2213 180.029 20.688C179.488 21.1547 179.152 21.8173 179.021 22.676H185.013ZM197.227 18.98C197.787 18.1213 198.487 17.4493 199.327 16.964C200.167 16.46 201.1 16.208 202.127 16.208V21.276H200.811C199.616 21.276 198.72 21.5373 198.123 22.06C197.526 22.564 197.227 23.46 197.227 24.748V32H192.439V16.376H197.227V18.98Z" fill="white"/>
<defs>
<filter id="filter0_f_10_11" x="7.66553" y="42.9619" width="8.15955" height="0.75" filterUnits="userSpaceOnUse" color-interpolation-filters="sRGB">
<feFlood flood-opacity="0" result="BackgroundImageFix"/>
<feBlend mode="normal" in="SourceGraphic" in2="BackgroundImageFix" result="shape"/>
<feGaussianBlur stdDeviation="0.125" result="effect1_foregroundBlur_10_11"/>
</filter>
<filter id="filter1_f_10_11" x="15.6072" y="42.9619" width="11.7467" height="0.75" filterUnits="userSpaceOnUse" color-interpolation-filters="sRGB">
<feFlood flood-opacity="0" result="BackgroundImageFix"/>
<feBlend mode="normal" in="SourceGraphic" in2="BackgroundImageFix" result="shape"/>
<feGaussianBlur stdDeviation="0.125" result="effect1_foregroundBlur_10_11"/>
</filter>
<filter id="filter2_f_10_11" x="14.1948" y="4.57959" width="19.6686" height="31.219" filterUnits="userSpaceOnUse" color-interpolation-filters="sRGB">
<feFlood flood-opacity="0" result="BackgroundImageFix"/>
<feBlend mode="normal" in="SourceGraphic" in2="BackgroundImageFix" result="shape"/>
<feGaussianBlur stdDeviation="1" result="effect1_foregroundBlur_10_11"/>
</filter>
<filter id="filter3_f_10_11" x="22.4993" y="1.27515" width="4.99121" height="3.25732" filterUnits="userSpaceOnUse" color-interpolation-filters="sRGB">
<feFlood flood-opacity="0" result="BackgroundImageFix"/>
<feBlend mode="normal" in="SourceGraphic" in2="BackgroundImageFix" result="shape"/>
<feGaussianBlur stdDeviation="0.25" result="effect1_foregroundBlur_10_11"/>
</filter>
<filter id="filter4_f_10_11" x="42.5639" y="19.9276" width="1.1999" height="15.195" filterUnits="userSpaceOnUse" color-interpolation-filters="sRGB">
<feFlood flood-opacity="0" result="BackgroundImageFix"/>
<feBlend mode="normal" in="SourceGraphic" in2="BackgroundImageFix" result="shape"/>
<feGaussianBlur stdDeviation="0.2" result="effect1_foregroundBlur_10_11"/>
</filter>
<radialGradient id="paint0_radial_10_11" cx="0" cy="0" r="1" gradientUnits="userSpaceOnUse" gradientTransform="translate(1.12819 11.737) scale(11.8861 7.02232)">
<stop stop-color="#EDB134"/>
<stop offset="1" stop-color="#BE8244"/>
</radialGradient>
<radialGradient id="paint1_radial_10_11" cx="0" cy="0" r="1" gradientUnits="userSpaceOnUse" gradientTransform="translate(1.53805 11.638) rotate(-11.4839) scale(4.80973 3.33112)">
<stop stop-color="#FFD150"/>
<stop offset="1" stop-color="#FFD150" stop-opacity="0"/>
</radialGradient>
<linearGradient id="paint2_linear_10_11" x1="14.8012" y1="34.4961" x2="12.9831" y2="45.0609" gradientUnits="userSpaceOnUse">
<stop stop-color="#D69946"/>
<stop offset="1" stop-color="#E99D23"/>
</linearGradient>
<linearGradient id="paint3_linear_10_11" x1="14.0896" y1="35.3085" x2="13.173" y2="40.6256" gradientUnits="userSpaceOnUse">
<stop stop-color="#B87E33"/>
<stop offset="1" stop-color="#B87E33" stop-opacity="0"/>
</linearGradient>
<radialGradient id="paint4_radial_10_11" cx="0" cy="0" r="1" gradientUnits="userSpaceOnUse" gradientTransform="translate(16.0881 44.0001) rotate(180) scale(3.53508 4.00186)">
<stop stop-color="#C67500"/>
<stop offset="1" stop-color="#C67500" stop-opacity="0"/>
</radialGradient>
<linearGradient id="paint5_linear_10_11" x1="13.0945" y1="45.1299" x2="13.0945" y2="42.7225" gradientUnits="userSpaceOnUse">
<stop stop-color="#F15CC7"/>
<stop offset="0.828" stop-color="#F15CC7" stop-opacity="0"/>
</linearGradient>
<linearGradient id="paint6_linear_10_11" x1="-nan" y1="-nan" x2="-nan" y2="-nan" gradientUnits="userSpaceOnUse">
<stop stop-color="#FDB65D"/>
<stop offset="1" stop-color="#FDB65D" stop-opacity="0"/>
</linearGradient>
<linearGradient id="paint7_linear_10_11" x1="23.0609" y1="34.4961" x2="21.4972" y2="42.8261" gradientUnits="userSpaceOnUse">
<stop stop-color="#D69946"/>
<stop offset="1" stop-color="#E99D23"/>
</linearGradient>
<linearGradient id="paint8_linear_10_11" x1="22.3444" y1="35.3085" x2="21.4339" y2="40.627" gradientUnits="userSpaceOnUse">
<stop stop-color="#B87E33"/>
<stop offset="1" stop-color="#B87E33" stop-opacity="0"/>
</linearGradient>
<linearGradient id="paint9_linear_10_11" x1="21.3411" y1="45.1299" x2="21.3411" y2="42.7225" gradientUnits="userSpaceOnUse">
<stop stop-color="#F15CC7"/>
<stop offset="0.828" stop-color="#F15CC7" stop-opacity="0"/>
</linearGradient>
<radialGradient id="paint10_radial_10_11" cx="0" cy="0" r="1" gradientUnits="userSpaceOnUse" gradientTransform="translate(27.9251 43.2631) rotate(-173.225) scale(3.33027 2.02046)">
<stop stop-color="#FFBD59"/>
<stop offset="1" stop-color="#FFBD59" stop-opacity="0"/>
</radialGradient>
<linearGradient id="paint11_linear_10_11" x1="-nan" y1="-nan" x2="-nan" y2="-nan" gradientUnits="userSpaceOnUse">
<stop stop-color="#FDB65D"/>
<stop offset="1" stop-color="#FDB65D" stop-opacity="0"/>
</linearGradient>
<linearGradient id="paint12_linear_10_11" x1="23.4248" y1="30.0723" x2="41.7048" y2="30.0723" gradientUnits="userSpaceOnUse">
<stop stop-color="#ED1C26"/>
<stop offset="1" stop-color="#EC098C"/>
</linearGradient>
<linearGradient id="paint13_linear_10_11" x1="28.3301" y1="40.6606" x2="28.3301" y2="33.7856" gradientUnits="userSpaceOnUse">
<stop offset="0.271" stop-color="#992E9B"/>
<stop offset="1" stop-color="#9F31A1" stop-opacity="0"/>
</linearGradient>
<linearGradient id="paint14_linear_10_11" x1="22.4411" y1="17.1882" x2="27.1178" y2="27.9647" gradientUnits="userSpaceOnUse">
<stop stop-color="#302E9B" stop-opacity="0.83"/>
<stop offset="1" stop-color="#9F31A1" stop-opacity="0"/>
</linearGradient>
<linearGradient id="paint15_linear_10_11" x1="12.2501" y1="-7.744" x2="12.2501" y2="43.0179" gradientUnits="userSpaceOnUse">
<stop stop-color="#ED1C26"/>
<stop offset="1" stop-color="#EC098C"/>
</linearGradient>
<linearGradient id="paint16_linear_10_11" x1="10.0418" y1="38.0097" x2="10.0418" y2="24.75" gradientUnits="userSpaceOnUse">
<stop stop-color="#3D2E9B" stop-opacity="0.77"/>
<stop offset="1" stop-color="#9F31A1" stop-opacity="0"/>
</linearGradient>
<radialGradient id="paint17_radial_10_11" cx="0" cy="0" r="1" gradientUnits="userSpaceOnUse" gradientTransform="translate(23.464 28.4829) rotate(134.082) scale(7.38307 10.1761)">
<stop offset="0.525" stop-color="#BA2159"/>
<stop offset="1" stop-color="#BA2159" stop-opacity="0"/>
</radialGradient>
<linearGradient id="paint18_linear_10_11" x1="1.02477" y1="21.9026" x2="9.53028" y2="21.9026" gradientUnits="userSpaceOnUse">
<stop stop-color="#B2516B"/>
<stop offset="1" stop-color="#B2516B" stop-opacity="0"/>
</linearGradient>
<radialGradient id="paint19_radial_10_11" cx="0" cy="0" r="1" gradientUnits="userSpaceOnUse" gradientTransform="translate(34.1631 36.1429) rotate(-125.16) scale(43.668 30.3461)">
<stop offset="0.904" stop-color="#B2516B" stop-opacity="0"/>
<stop offset="1" stop-color="#B2516B"/>
</radialGradient>
<linearGradient id="paint20_linear_10_11" x1="25.4251" y1="31.625" x2="19.1583" y2="12.8542" gradientUnits="userSpaceOnUse">
<stop stop-color="#EC098C"/>
<stop offset="1" stop-color="#ED1746"/>
</linearGradient>
<radialGradient id="paint21_radial_10_11" cx="0" cy="0" r="1" gradientUnits="userSpaceOnUse" gradientTransform="translate(11.7223 9.99756) rotate(126.998) scale(1.10676 0.999166)">
<stop offset="0.006" stop-color="#343543"/>
<stop offset="1" stop-color="#3B2838"/>
</radialGradient>
<radialGradient id="paint22_radial_10_11" cx="0" cy="0" r="1" gradientUnits="userSpaceOnUse" gradientTransform="translate(11.7846 10.0553) rotate(138.849) scale(0.578347 0.506377)">
<stop stop-color="#5C5051"/>
<stop offset="1" stop-color="#5C5051" stop-opacity="0"/>
</radialGradient>
<linearGradient id="paint23_linear_10_11" x1="11.3173" y1="9.63456" x2="10.769" y2="9.26933" gradientUnits="userSpaceOnUse">
<stop stop-color="#57505C" stop-opacity="0"/>
<stop offset="1" stop-color="#5C5051"/>
</linearGradient>
<linearGradient id="paint24_linear_10_11" x1="27.3595" y1="29.6607" x2="21.5497" y2="0.785694" gradientUnits="userSpaceOnUse">
<stop stop-color="#FF58DA" stop-opacity="0.52"/>
<stop offset="1" stop-color="#FF589B" stop-opacity="0"/>
</linearGradient>
<linearGradient id="paint25_linear_10_11" x1="26.8725" y1="2.81922" x2="23.6497" y2="5.45518" gradientUnits="userSpaceOnUse">
<stop stop-color="#FFB3D1"/>
<stop offset="1" stop-color="#FFB3D1" stop-opacity="0"/>
</linearGradient>
<linearGradient id="paint26_linear_10_11" x1="23.3117" y1="4.75659" x2="22.278" y2="6.59414" gradientUnits="userSpaceOnUse">
<stop stop-color="#A92E39"/>
<stop offset="1" stop-color="#A92E39" stop-opacity="0"/>
</linearGradient>
<linearGradient id="paint27_linear_10_11" x1="-nan" y1="-nan" x2="-nan" y2="-nan" gradientUnits="userSpaceOnUse">
<stop stop-color="#FF5CAB"/>
<stop offset="1" stop-color="#FF5CAB" stop-opacity="0"/>
</linearGradient>
</defs>
</svg>
