<svg width="136" height="40" viewBox="0 0 136 40" fill="none" xmlns="http://www.w3.org/2000/svg">
<g clip-path="url(#clip0_10_69)">
<rect width="40" height="40" rx="20" fill="#999999"/>
<path d="M20 1.25C10.9375 1.25 6 6.875 6 14.3125V37.5H34V14.3125C34 3.25 26.4375 3.4375 26.4375 3.4375C26.4375 3.4375 25.875 1.25 20 1.25Z" fill="#231F20"/>
<path d="M26.25 30.6875V26.25H13.75V30.6875C5.9375 30.875 4.375 32.1875 4.375 38.75H35.625C35.625 32.1875 34.0625 30.875 26.25 30.6875Z" fill="#B386E2"/>
<path d="M9.5625 20.625C9.5625 20.625 7.4375 20.0625 7.4375 17C7.4375 14.5625 9 14.125 9 14.125C14.6875 14.125 25.1875 6.8125 25.1875 6.8125C25.1875 6.8125 27.375 13.25 30.75 14.125C30.75 14.125 32.375 14.4375 32.375 17C32.375 20.0625 30.1875 20.625 30.1875 20.625C30.1875 25.25 23.75 30.875 19.875 30.875C16.0625 30.875 9.5625 25.25 9.5625 20.625" fill="#B47D56"/>
<path d="M20 23.625C18 23.625 17 22.1875 18 22.1875H22C23 22.1875 22 23.625 20 23.625Z" fill="#935E3E"/>
<path d="M23 19.3749C22.3125 19.3749 22.375 18.4999 22.375 18.4999C23.4375 12.9999 29.5625 15.9374 29.5625 15.9374C30.0625 16.8749 28.4375 19.2499 28 19.3749C26 19.8749 23 19.3749 23 19.3749Z" fill="#F5F5F5"/>
<path d="M25.75 19.3125C26.9581 19.3125 27.9375 18.3331 27.9375 17.125C27.9375 15.9169 26.9581 14.9375 25.75 14.9375C24.5419 14.9375 23.5625 15.9169 23.5625 17.125C23.5625 18.3331 24.5419 19.3125 25.75 19.3125Z" fill="#664E27"/>
<path d="M25.75 17.875C26.1642 17.875 26.5 17.5392 26.5 17.125C26.5 16.7108 26.1642 16.375 25.75 16.375C25.3358 16.375 25 16.7108 25 17.125C25 17.5392 25.3358 17.875 25.75 17.875Z" fill="#2B2925"/>
<path d="M22.375 18.5001C23.4375 11.9376 28.875 16.3126 31 15.3751C28.875 17.4376 24.5625 13.0001 22.375 18.5001Z" fill="#3B3226"/>
<path d="M16.9376 19.3749C17.6251 19.3749 17.5626 18.4999 17.5626 18.4999C16.5001 12.9999 10.3751 15.9374 10.3751 15.9374C9.87506 16.8749 11.5001 19.2499 11.9376 19.3749C13.9376 19.8749 16.9376 19.3749 16.9376 19.3749Z" fill="#F5F5F5"/>
<path d="M14.1875 19.3125C15.3956 19.3125 16.375 18.3331 16.375 17.125C16.375 15.9169 15.3956 14.9375 14.1875 14.9375C12.9794 14.9375 12 15.9169 12 17.125C12 18.3331 12.9794 19.3125 14.1875 19.3125Z" fill="#664E27"/>
<path d="M17.5625 18.5001C16.5 11.9376 11.0625 16.3126 8.9375 15.3751C11.0625 17.4376 15.4375 13.0001 17.5625 18.5001Z" fill="#3B3226"/>
<path d="M14.1875 17.875C14.6017 17.875 14.9375 17.5392 14.9375 17.125C14.9375 16.7108 14.6017 16.375 14.1875 16.375C13.7733 16.375 13.4375 16.7108 13.4375 17.125C13.4375 17.5392 13.7733 17.875 14.1875 17.875Z" fill="#2B2925"/>
<path d="M20 29.0625C21.0355 29.0625 21.875 28.223 21.875 27.1875C21.875 26.152 21.0355 25.3125 20 25.3125C18.9645 25.3125 18.125 26.152 18.125 27.1875C18.125 28.223 18.9645 29.0625 20 29.0625Z" fill="#664E27"/>
<rect width="40" height="40" rx="20" fill="white"/>
<g filter="url(#filter0_i_10_69)">
<path d="M10.4661 24.9993C11.328 24.9993 12.1547 24.6569 12.7642 24.0474C13.3737 23.4379 13.7161 22.6112 13.7161 21.7493C13.7161 20.8873 13.3737 20.0607 12.7642 19.4512C12.1547 18.8417 11.328 18.4993 10.4661 18.4993C9.60411 18.4993 8.77746 18.8417 8.16797 19.4512C7.55847 20.0607 7.21606 20.8873 7.21606 21.7493C7.21606 22.6112 7.55847 23.4379 8.16797 24.0474C8.77746 24.6569 9.60411 24.9993 10.4661 24.9993V24.9993Z" fill="url(#paint0_linear_10_69)"/>
<path d="M10.4661 24.9993C11.328 24.9993 12.1547 24.6569 12.7642 24.0474C13.3737 23.4379 13.7161 22.6112 13.7161 21.7493C13.7161 20.8873 13.3737 20.0607 12.7642 19.4512C12.1547 18.8417 11.328 18.4993 10.4661 18.4993C9.60411 18.4993 8.77746 18.8417 8.16797 19.4512C7.55847 20.0607 7.21606 20.8873 7.21606 21.7493C7.21606 22.6112 7.55847 23.4379 8.16797 24.0474C8.77746 24.6569 9.60411 24.9993 10.4661 24.9993V24.9993Z" fill="url(#paint1_radial_10_69)"/>
</g>
<g filter="url(#filter1_i_10_69)">
<path d="M29.4661 24.9993C30.328 24.9993 31.1547 24.6569 31.7642 24.0474C32.3737 23.4379 32.7161 22.6112 32.7161 21.7493C32.7161 20.8873 32.3737 20.0607 31.7642 19.4512C31.1547 18.8417 30.328 18.4993 29.4661 18.4993C28.6041 18.4993 27.7775 18.8417 27.168 19.4512C26.5585 20.0607 26.2161 20.8873 26.2161 21.7493C26.2161 22.6112 26.5585 23.4379 27.168 24.0474C27.7775 24.6569 28.6041 24.9993 29.4661 24.9993V24.9993Z" fill="url(#paint2_radial_10_69)"/>
<path d="M29.4661 24.9993C30.328 24.9993 31.1547 24.6569 31.7642 24.0474C32.3737 23.4379 32.7161 22.6112 32.7161 21.7493C32.7161 20.8873 32.3737 20.0607 31.7642 19.4512C31.1547 18.8417 30.328 18.4993 29.4661 18.4993C28.6041 18.4993 27.7775 18.8417 27.168 19.4512C26.5585 20.0607 26.2161 20.8873 26.2161 21.7493C26.2161 22.6112 26.5585 23.4379 27.168 24.0474C27.7775 24.6569 28.6041 24.9993 29.4661 24.9993V24.9993Z" fill="url(#paint3_radial_10_69)"/>
</g>
<g filter="url(#filter2_f_10_69)">
<path d="M29.4661 23.7773C29.738 23.7858 30.0087 23.7396 30.2623 23.6415C30.516 23.5434 30.7473 23.3953 30.9426 23.206C31.1379 23.0168 31.2931 22.7902 31.3992 22.5398C31.5052 22.2894 31.5599 22.0202 31.5599 21.7483C31.5599 21.4763 31.5052 21.2071 31.3992 20.9567C31.2931 20.7063 31.1379 20.4797 30.9426 20.2905C30.7473 20.1012 30.516 19.9531 30.2623 19.855C30.0087 19.7569 29.738 19.7107 29.4661 19.7193C28.9357 19.731 28.4309 19.95 28.0599 20.3294C27.6889 20.7087 27.4812 21.2182 27.4812 21.7488C27.4812 22.2793 27.6889 22.7888 28.0599 23.1682C28.4309 23.5475 28.9357 23.7665 29.4661 23.7783V23.7773Z" fill="url(#paint4_radial_10_69)"/>
<path d="M29.4661 23.7773C29.738 23.7858 30.0087 23.7396 30.2623 23.6415C30.516 23.5434 30.7473 23.3953 30.9426 23.206C31.1379 23.0168 31.2931 22.7902 31.3992 22.5398C31.5052 22.2894 31.5599 22.0202 31.5599 21.7483C31.5599 21.4763 31.5052 21.2071 31.3992 20.9567C31.2931 20.7063 31.1379 20.4797 30.9426 20.2905C30.7473 20.1012 30.516 19.9531 30.2623 19.855C30.0087 19.7569 29.738 19.7107 29.4661 19.7193C28.9357 19.731 28.4309 19.95 28.0599 20.3294C27.6889 20.7087 27.4812 21.2182 27.4812 21.7488C27.4812 22.2793 27.6889 22.7888 28.0599 23.1682C28.4309 23.5475 28.9357 23.7665 29.4661 23.7783V23.7773Z" fill="url(#paint5_radial_10_69)"/>
</g>
<g filter="url(#filter3_f_10_69)">
<path d="M10.4661 23.7773C10.738 23.7858 11.0087 23.7396 11.2623 23.6415C11.516 23.5434 11.7473 23.3953 11.9426 23.206C12.1379 23.0168 12.2931 22.7902 12.3992 22.5398C12.5052 22.2894 12.5599 22.0202 12.5599 21.7483C12.5599 21.4763 12.5052 21.2071 12.3992 20.9567C12.2931 20.7063 12.1379 20.4797 11.9426 20.2905C11.7473 20.1012 11.516 19.9531 11.2623 19.855C11.0087 19.7569 10.738 19.7107 10.4661 19.7193C9.93569 19.731 9.43093 19.95 9.05993 20.3294C8.68894 20.7087 8.4812 21.2182 8.4812 21.7488C8.4812 22.2793 8.68894 22.7888 9.05993 23.1682C9.43093 23.5475 9.93569 23.7665 10.4661 23.7783V23.7773Z" fill="url(#paint6_linear_10_69)"/>
</g>
<g filter="url(#filter4_i_10_69)">
<path d="M27.5951 25.2192L33.5951 29.2492C34.1451 29.6192 34.1851 30.4192 33.6751 30.8492L30.4851 33.6592C29.7651 34.2992 28.6351 33.9992 28.3051 33.0992L25.9851 26.6092L27.5951 25.2192V25.2192Z" fill="#262229"/>
<path d="M27.5951 25.2192L33.5951 29.2492C34.1451 29.6192 34.1851 30.4192 33.6751 30.8492L30.4851 33.6592C29.7651 34.2992 28.6351 33.9992 28.3051 33.0992L25.9851 26.6092L27.5951 25.2192V25.2192Z" fill="url(#paint7_linear_10_69)"/>
<path d="M27.5951 25.2192L33.5951 29.2492C34.1451 29.6192 34.1851 30.4192 33.6751 30.8492L30.4851 33.6592C29.7651 34.2992 28.6351 33.9992 28.3051 33.0992L25.9851 26.6092L27.5951 25.2192V25.2192Z" fill="url(#paint8_radial_10_69)"/>
<path d="M27.5951 25.2192L33.5951 29.2492C34.1451 29.6192 34.1851 30.4192 33.6751 30.8492L30.4851 33.6592C29.7651 34.2992 28.6351 33.9992 28.3051 33.0992L25.9851 26.6092L27.5951 25.2192V25.2192Z" fill="url(#paint9_radial_10_69)"/>
<path d="M27.5951 25.2192L33.5951 29.2492C34.1451 29.6192 34.1851 30.4192 33.6751 30.8492L30.4851 33.6592C29.7651 34.2992 28.6351 33.9992 28.3051 33.0992L25.9851 26.6092L27.5951 25.2192V25.2192Z" fill="url(#paint10_radial_10_69)"/>
</g>
<g filter="url(#filter5_i_10_69)">
<path d="M12.4051 25.2192L6.40508 29.2492C5.85508 29.6192 5.81508 30.4192 6.32508 30.8492L9.51508 33.6592C10.2351 34.2992 11.3651 33.9992 11.6951 33.0992L14.0151 26.6092L12.4051 25.2192V25.2192Z" fill="#221F26"/>
<path d="M12.4051 25.2192L6.40508 29.2492C5.85508 29.6192 5.81508 30.4192 6.32508 30.8492L9.51508 33.6592C10.2351 34.2992 11.3651 33.9992 11.6951 33.0992L14.0151 26.6092L12.4051 25.2192V25.2192Z" fill="url(#paint11_radial_10_69)"/>
<path d="M12.4051 25.2192L6.40508 29.2492C5.85508 29.6192 5.81508 30.4192 6.32508 30.8492L9.51508 33.6592C10.2351 34.2992 11.3651 33.9992 11.6951 33.0992L14.0151 26.6092L12.4051 25.2192V25.2192Z" fill="url(#paint12_linear_10_69)"/>
</g>
<g filter="url(#filter6_i_10_69)">
<path d="M22.8251 16.9992C19.2251 16.3922 16.2431 14.6182 14.8551 11.8562C14.4721 14.1722 13.3991 16.3892 10.5331 17.6242C10.2001 17.7672 9.86508 17.9462 9.80908 18.5312L10.0021 24.2142C10.2421 30.0732 14.6261 33.9992 19.9661 33.9992C25.2971 33.9992 29.6921 30.0732 29.9311 24.2142L30.1411 18.0102C30.1468 17.8908 30.1077 17.7736 30.0315 17.6815C29.9553 17.5894 29.8474 17.529 29.7291 17.5122C28.8791 17.3992 27.7531 17.3412 26.5721 17.2802C25.2921 17.2142 23.9481 17.1442 22.8251 16.9992V16.9992Z" fill="url(#paint13_radial_10_69)"/>
<path d="M22.8251 16.9992C19.2251 16.3922 16.2431 14.6182 14.8551 11.8562C14.4721 14.1722 13.3991 16.3892 10.5331 17.6242C10.2001 17.7672 9.86508 17.9462 9.80908 18.5312L10.0021 24.2142C10.2421 30.0732 14.6261 33.9992 19.9661 33.9992C25.2971 33.9992 29.6921 30.0732 29.9311 24.2142L30.1411 18.0102C30.1468 17.8908 30.1077 17.7736 30.0315 17.6815C29.9553 17.5894 29.8474 17.529 29.7291 17.5122C28.8791 17.3992 27.7531 17.3412 26.5721 17.2802C25.2921 17.2142 23.9481 17.1442 22.8251 16.9992V16.9992Z" fill="url(#paint14_radial_10_69)"/>
<path d="M22.8251 16.9992C19.2251 16.3922 16.2431 14.6182 14.8551 11.8562C14.4721 14.1722 13.3991 16.3892 10.5331 17.6242C10.2001 17.7672 9.86508 17.9462 9.80908 18.5312L10.0021 24.2142C10.2421 30.0732 14.6261 33.9992 19.9661 33.9992C25.2971 33.9992 29.6921 30.0732 29.9311 24.2142L30.1411 18.0102C30.1468 17.8908 30.1077 17.7736 30.0315 17.6815C29.9553 17.5894 29.8474 17.529 29.7291 17.5122C28.8791 17.3992 27.7531 17.3412 26.5721 17.2802C25.2921 17.2142 23.9481 17.1442 22.8251 16.9992V16.9992Z" fill="url(#paint15_radial_10_69)"/>
<path d="M22.8251 16.9992C19.2251 16.3922 16.2431 14.6182 14.8551 11.8562C14.4721 14.1722 13.3991 16.3892 10.5331 17.6242C10.2001 17.7672 9.86508 17.9462 9.80908 18.5312L10.0021 24.2142C10.2421 30.0732 14.6261 33.9992 19.9661 33.9992C25.2971 33.9992 29.6921 30.0732 29.9311 24.2142L30.1411 18.0102C30.1468 17.8908 30.1077 17.7736 30.0315 17.6815C29.9553 17.5894 29.8474 17.529 29.7291 17.5122C28.8791 17.3992 27.7531 17.3412 26.5721 17.2802C25.2921 17.2142 23.9481 17.1442 22.8251 16.9992V16.9992Z" fill="url(#paint16_radial_10_69)"/>
</g>
<path d="M22.8251 16.9992C19.2251 16.3922 16.2431 14.6182 14.8551 11.8562C14.4721 14.1722 13.3991 16.3892 10.5331 17.6242C10.2001 17.7672 9.86508 17.9462 9.80908 18.5312L10.0021 24.2142C10.2421 30.0732 14.6261 33.9992 19.9661 33.9992C25.2971 33.9992 29.6921 30.0732 29.9311 24.2142L30.1411 18.0102C30.1468 17.8908 30.1077 17.7736 30.0315 17.6815C29.9553 17.5894 29.8474 17.529 29.7291 17.5122C28.8791 17.3992 27.7531 17.3412 26.5721 17.2802C25.2921 17.2142 23.9481 17.1442 22.8251 16.9992V16.9992Z" fill="url(#paint17_radial_10_69)"/>
<path d="M22.8251 16.9992C19.2251 16.3922 16.2431 14.6182 14.8551 11.8562C14.4721 14.1722 13.3991 16.3892 10.5331 17.6242C10.2001 17.7672 9.86508 17.9462 9.80908 18.5312L10.0021 24.2142C10.2421 30.0732 14.6261 33.9992 19.9661 33.9992C25.2971 33.9992 29.6921 30.0732 29.9311 24.2142L30.1411 18.0102C30.1468 17.8908 30.1077 17.7736 30.0315 17.6815C29.9553 17.5894 29.8474 17.529 29.7291 17.5122C28.8791 17.3992 27.7531 17.3412 26.5721 17.2802C25.2921 17.2142 23.9481 17.1442 22.8251 16.9992V16.9992Z" fill="url(#paint18_radial_10_69)"/>
<path d="M22.8251 16.9992C19.2251 16.3922 16.2431 14.6182 14.8551 11.8562C14.4721 14.1722 13.3991 16.3892 10.5331 17.6242C10.2001 17.7672 9.86508 17.9462 9.80908 18.5312L10.0021 24.2142C10.2421 30.0732 14.6261 33.9992 19.9661 33.9992C25.2971 33.9992 29.6921 30.0732 29.9311 24.2142L30.1411 18.0102C30.1468 17.8908 30.1077 17.7736 30.0315 17.6815C29.9553 17.5894 29.8474 17.529 29.7291 17.5122C28.8791 17.3992 27.7531 17.3412 26.5721 17.2802C25.2921 17.2142 23.9481 17.1442 22.8251 16.9992V16.9992Z" fill="url(#paint19_radial_10_69)"/>
<path d="M16.9881 26.5953C16.9137 26.5556 16.8283 26.5417 16.7452 26.556C16.6621 26.5703 16.5861 26.6119 16.5293 26.6742C16.4725 26.7365 16.4381 26.816 16.4316 26.9C16.425 26.9841 16.4467 27.0679 16.4931 27.1383L16.5351 27.1113L16.9881 26.5953Z" fill="#2A0219" stroke="url(#paint20_linear_10_69)" stroke-width="0.1"/>
<g filter="url(#filter7_i_10_69)">
<path d="M13.5771 18.0894C14.1671 17.8794 14.9471 17.7744 16.0071 17.8744" stroke="#110A18" stroke-width="1.1" stroke-miterlimit="10" stroke-linecap="round" stroke-linejoin="round"/>
</g>
<g filter="url(#filter8_f_10_69)">
<path d="M13.5771 18.0894C14.1671 17.8794 14.9471 17.7744 16.0071 17.8744" stroke="url(#paint21_linear_10_69)" stroke-width="0.5" stroke-miterlimit="10" stroke-linecap="round" stroke-linejoin="round"/>
</g>
<g filter="url(#filter9_i_10_69)">
<path d="M26.356 18.1084C25.766 17.8984 24.946 17.7484 23.886 17.8484" stroke="#110A18" stroke-width="1.1" stroke-miterlimit="10" stroke-linecap="round" stroke-linejoin="round"/>
</g>
<g filter="url(#filter10_f_10_69)">
<path d="M26.356 18.1084C25.766 17.8984 24.946 17.7484 23.886 17.8484" stroke="url(#paint22_linear_10_69)" stroke-width="0.5" stroke-miterlimit="10" stroke-linecap="round" stroke-linejoin="round"/>
</g>
<g filter="url(#filter11_i_10_69)">
<path d="M7.99512 15.0593C7.99512 11.1593 11.1551 7.99927 15.0551 7.99927V8.96927C15.0551 12.1493 14.5951 15.8743 10.5331 17.6243C10.1941 17.7703 9.85312 17.9523 9.80712 18.5613C9.20512 18.7013 8.51712 19.0383 8.01212 19.6183C8.00065 19.4552 7.99498 19.2918 7.99512 19.1283V15.0583V15.0593Z" fill="url(#paint23_radial_10_69)"/>
</g>
<path d="M7.99512 15.0593C7.99512 11.1593 11.1551 7.99927 15.0551 7.99927V8.96927C15.0551 12.1493 14.5951 15.8743 10.5331 17.6243C10.1941 17.7703 9.85312 17.9523 9.80712 18.5613C9.20512 18.7013 8.51712 19.0383 8.01212 19.6183C8.00065 19.4552 7.99498 19.2918 7.99512 19.1283V15.0583V15.0593Z" fill="url(#paint24_radial_10_69)"/>
<g filter="url(#filter12_f_10_69)">
<path d="M21.288 25.0583C21.3116 25.1588 21.3119 25.2634 21.289 25.3641C21.2662 25.4647 21.2207 25.5589 21.156 25.6393C20.9682 25.8797 20.7238 26.0699 20.4446 26.1929C20.1654 26.3159 19.8602 26.3679 19.556 26.3443C19.2512 26.3184 18.9573 26.2183 18.6999 26.0529C18.4425 25.8876 18.2293 25.6618 18.079 25.3953C18.0129 25.2781 17.9827 25.1441 17.9922 25.0099C18.0016 24.8757 18.0502 24.7472 18.132 24.6403L19.438 22.2133C19.4825 22.1302 19.5502 22.0618 19.633 22.0165C19.7157 21.9713 19.8099 21.9511 19.9039 21.9585C19.9979 21.966 20.0877 22.0006 20.1624 22.0583C20.237 22.116 20.2932 22.1942 20.324 22.2833L21.257 24.9603C21.2633 24.9761 21.2689 24.9921 21.274 25.0083L21.292 25.0583H21.288V25.0583Z" fill="url(#paint25_linear_10_69)"/>
</g>
<g filter="url(#filter13_f_10_69)">
<path d="M21.681 24.5052C21.7139 24.6086 21.7229 24.7182 21.7073 24.8256C21.6918 24.933 21.652 25.0354 21.591 25.1252C21.241 25.6532 20.641 25.9992 19.971 25.9992C19.6488 25.9973 19.3319 25.9168 19.0479 25.7647C18.7638 25.6125 18.5212 25.3934 18.341 25.1262C18.2619 25.0087 18.219 24.8705 18.2178 24.7288C18.2166 24.5871 18.257 24.4481 18.334 24.3292L19.504 21.6722C19.5439 21.5815 19.6092 21.5044 19.6921 21.4502C19.7751 21.396 19.872 21.3672 19.971 21.3672C20.0701 21.3672 20.167 21.396 20.2499 21.4502C20.3329 21.5044 20.3982 21.5815 20.438 21.6722L21.641 24.4042C21.6486 24.4206 21.6556 24.4373 21.662 24.4542L21.685 24.5052H21.681V24.5052Z" fill="#492F30"/>
<path d="M21.681 24.5052C21.7139 24.6086 21.7229 24.7182 21.7073 24.8256C21.6918 24.933 21.652 25.0354 21.591 25.1252C21.241 25.6532 20.641 25.9992 19.971 25.9992C19.6488 25.9973 19.3319 25.9168 19.0479 25.7647C18.7638 25.6125 18.5212 25.3934 18.341 25.1262C18.2619 25.0087 18.219 24.8705 18.2178 24.7288C18.2166 24.5871 18.257 24.4481 18.334 24.3292L19.504 21.6722C19.5439 21.5815 19.6092 21.5044 19.6921 21.4502C19.7751 21.396 19.872 21.3672 19.971 21.3672C20.0701 21.3672 20.167 21.396 20.2499 21.4502C20.3329 21.5044 20.3982 21.5815 20.438 21.6722L21.641 24.4042C21.6486 24.4206 21.6556 24.4373 21.662 24.4542L21.685 24.5052H21.681V24.5052Z" fill="url(#paint26_radial_10_69)"/>
<path d="M21.681 24.5052C21.7139 24.6086 21.7229 24.7182 21.7073 24.8256C21.6918 24.933 21.652 25.0354 21.591 25.1252C21.241 25.6532 20.641 25.9992 19.971 25.9992C19.6488 25.9973 19.3319 25.9168 19.0479 25.7647C18.7638 25.6125 18.5212 25.3934 18.341 25.1262C18.2619 25.0087 18.219 24.8705 18.2178 24.7288C18.2166 24.5871 18.257 24.4481 18.334 24.3292L19.504 21.6722C19.5439 21.5815 19.6092 21.5044 19.6921 21.4502C19.7751 21.396 19.872 21.3672 19.971 21.3672C20.0701 21.3672 20.167 21.396 20.2499 21.4502C20.3329 21.5044 20.3982 21.5815 20.438 21.6722L21.641 24.4042C21.6486 24.4206 21.6556 24.4373 21.662 24.4542L21.685 24.5052H21.681V24.5052Z" fill="url(#paint27_radial_10_69)"/>
<path d="M21.681 24.5052C21.7139 24.6086 21.7229 24.7182 21.7073 24.8256C21.6918 24.933 21.652 25.0354 21.591 25.1252C21.241 25.6532 20.641 25.9992 19.971 25.9992C19.6488 25.9973 19.3319 25.9168 19.0479 25.7647C18.7638 25.6125 18.5212 25.3934 18.341 25.1262C18.2619 25.0087 18.219 24.8705 18.2178 24.7288C18.2166 24.5871 18.257 24.4481 18.334 24.3292L19.504 21.6722C19.5439 21.5815 19.6092 21.5044 19.6921 21.4502C19.7751 21.396 19.872 21.3672 19.971 21.3672C20.0701 21.3672 20.167 21.396 20.2499 21.4502C20.3329 21.5044 20.3982 21.5815 20.438 21.6722L21.641 24.4042C21.6486 24.4206 21.6556 24.4373 21.662 24.4542L21.685 24.5052H21.681V24.5052Z" fill="url(#paint28_linear_10_69)"/>
<path d="M21.681 24.5052C21.7139 24.6086 21.7229 24.7182 21.7073 24.8256C21.6918 24.933 21.652 25.0354 21.591 25.1252C21.241 25.6532 20.641 25.9992 19.971 25.9992C19.6488 25.9973 19.3319 25.9168 19.0479 25.7647C18.7638 25.6125 18.5212 25.3934 18.341 25.1262C18.2619 25.0087 18.219 24.8705 18.2178 24.7288C18.2166 24.5871 18.257 24.4481 18.334 24.3292L19.504 21.6722C19.5439 21.5815 19.6092 21.5044 19.6921 21.4502C19.7751 21.396 19.872 21.3672 19.971 21.3672C20.0701 21.3672 20.167 21.396 20.2499 21.4502C20.3329 21.5044 20.3982 21.5815 20.438 21.6722L21.641 24.4042C21.6486 24.4206 21.6556 24.4373 21.662 24.4542L21.685 24.5052H21.681V24.5052Z" fill="url(#paint29_linear_10_69)"/>
</g>
<path d="M21.681 24.5052C21.7139 24.6086 21.7229 24.7182 21.7073 24.8256C21.6918 24.933 21.652 25.0354 21.591 25.1252C21.241 25.6532 20.641 25.9992 19.971 25.9992C19.6488 25.9973 19.3319 25.9168 19.0479 25.7647C18.7638 25.6125 18.5212 25.3934 18.341 25.1262C18.2619 25.0087 18.219 24.8705 18.2178 24.7288C18.2166 24.5871 18.257 24.4481 18.334 24.3292L19.504 21.6722C19.5439 21.5815 19.6092 21.5044 19.6921 21.4502C19.7751 21.396 19.872 21.3672 19.971 21.3672C20.0701 21.3672 20.167 21.396 20.2499 21.4502C20.3329 21.5044 20.3982 21.5815 20.438 21.6722L21.641 24.4042C21.6486 24.4206 21.6556 24.4373 21.662 24.4542L21.685 24.5052H21.681V24.5052Z" fill="url(#paint30_radial_10_69)"/>
<path d="M21.681 24.5052C21.7139 24.6086 21.7229 24.7182 21.7073 24.8256C21.6918 24.933 21.652 25.0354 21.591 25.1252C21.241 25.6532 20.641 25.9992 19.971 25.9992C19.6488 25.9973 19.3319 25.9168 19.0479 25.7647C18.7638 25.6125 18.5212 25.3934 18.341 25.1262C18.2619 25.0087 18.219 24.8705 18.2178 24.7288C18.2166 24.5871 18.257 24.4481 18.334 24.3292L19.504 21.6722C19.5439 21.5815 19.6092 21.5044 19.6921 21.4502C19.7751 21.396 19.872 21.3672 19.971 21.3672C20.0701 21.3672 20.167 21.396 20.2499 21.4502C20.3329 21.5044 20.3982 21.5815 20.438 21.6722L21.641 24.4042C21.6486 24.4206 21.6556 24.4373 21.662 24.4542L21.685 24.5052H21.681V24.5052Z" fill="url(#paint31_linear_10_69)"/>
<g filter="url(#filter14_i_10_69)">
<path d="M22.8251 16.9993C17.8211 16.1553 14.0151 13.0593 14.0151 8.18927C14.0151 6.97927 14.9951 5.99927 16.1951 5.99927H22.0051C27.5251 5.99927 32.0051 10.4793 32.0051 15.9993V19.7193C31.5314 19.1266 30.8653 18.7183 30.1221 18.5653L30.1421 18.0103C30.1478 17.8907 30.1086 17.7734 30.0321 17.6812C29.9557 17.5891 29.8477 17.5288 29.7291 17.5123C28.8791 17.3993 27.7531 17.3413 26.5721 17.2803C25.2921 17.2143 23.9481 17.1443 22.8251 16.9993V16.9993Z" fill="#32272A"/>
<path d="M22.8251 16.9993C17.8211 16.1553 14.0151 13.0593 14.0151 8.18927C14.0151 6.97927 14.9951 5.99927 16.1951 5.99927H22.0051C27.5251 5.99927 32.0051 10.4793 32.0051 15.9993V19.7193C31.5314 19.1266 30.8653 18.7183 30.1221 18.5653L30.1421 18.0103C30.1478 17.8907 30.1086 17.7734 30.0321 17.6812C29.9557 17.5891 29.8477 17.5288 29.7291 17.5123C28.8791 17.3993 27.7531 17.3413 26.5721 17.2803C25.2921 17.2143 23.9481 17.1443 22.8251 16.9993V16.9993Z" fill="url(#paint32_radial_10_69)"/>
<path d="M22.8251 16.9993C17.8211 16.1553 14.0151 13.0593 14.0151 8.18927C14.0151 6.97927 14.9951 5.99927 16.1951 5.99927H22.0051C27.5251 5.99927 32.0051 10.4793 32.0051 15.9993V19.7193C31.5314 19.1266 30.8653 18.7183 30.1221 18.5653L30.1421 18.0103C30.1478 17.8907 30.1086 17.7734 30.0321 17.6812C29.9557 17.5891 29.8477 17.5288 29.7291 17.5123C28.8791 17.3993 27.7531 17.3413 26.5721 17.2803C25.2921 17.2143 23.9481 17.1443 22.8251 16.9993V16.9993Z" fill="url(#paint33_radial_10_69)"/>
</g>
<path d="M24.7731 20.1072C25.4658 20.1074 26.1385 20.3392 26.6843 20.7657C27.2301 21.1923 27.6176 21.7891 27.7851 22.4612C27.8077 22.5514 27.8093 22.6455 27.7899 22.7365C27.7705 22.8274 27.7306 22.9127 27.6732 22.9858C27.6157 23.059 27.5424 23.118 27.4587 23.1585C27.3749 23.1989 27.2831 23.2197 27.1901 23.2192H22.2301C22.1548 23.2195 22.0803 23.2033 22.012 23.1716C21.9436 23.1398 21.8832 23.0934 21.8348 23.0357C21.7865 22.9779 21.7515 22.9101 21.7324 22.8373C21.7132 22.7644 21.7104 22.6883 21.7241 22.6142C21.8633 21.9078 22.2434 21.2717 22.7995 20.8145C23.3556 20.3573 24.0532 20.1073 24.7731 20.1072V20.1072Z" fill="white"/>
<path d="M24.3131 20.7112C24.6182 20.7114 24.9191 20.782 25.1925 20.9175C25.4659 21.053 25.7043 21.2497 25.8893 21.4923C26.0743 21.735 26.2008 22.017 26.259 22.3165C26.3173 22.616 26.3057 22.9249 26.2251 23.2192H22.3921C22.3454 23.0487 22.3212 22.8729 22.3201 22.6962C22.3201 21.6042 23.2131 20.7112 24.3131 20.7112Z" fill="url(#paint34_radial_10_69)"/>
<path d="M23.1761 22.6953C23.1761 22.0653 23.6811 21.5593 24.3131 21.5593C24.9441 21.5593 25.4491 22.0643 25.4491 22.6953C25.4491 22.8853 25.4041 23.0653 25.3231 23.2193H23.3121C23.221 23.0602 23.174 22.8797 23.1761 22.6963V22.6953Z" fill="black"/>
<g filter="url(#filter15_f_10_69)">
<path d="M24.167 21.1312C24.308 21.3202 24.013 21.5512 23.677 21.8012C23.341 22.0532 23.092 22.2292 22.95 22.0412C22.809 21.8512 22.967 21.4942 23.303 21.2432C23.639 20.9922 24.026 20.9422 24.167 21.1312V21.1312Z" fill="#C7A7A3"/>
<path d="M24.167 21.1312C24.308 21.3202 24.013 21.5512 23.677 21.8012C23.341 22.0532 23.092 22.2292 22.95 22.0412C22.809 21.8512 22.967 21.4942 23.303 21.2432C23.639 20.9922 24.026 20.9422 24.167 21.1312V21.1312Z" fill="url(#paint35_radial_10_69)"/>
</g>
<g filter="url(#filter16_f_10_69)">
<path d="M26.08 22.4343C26.0213 22.0457 25.8414 21.6856 25.566 21.4053L24.988 22.0403L25.248 22.5473L26.08 22.4343V22.4343Z" fill="url(#paint36_linear_10_69)"/>
</g>
<path d="M15.192 20.1292C14.5005 20.1294 13.8289 20.3608 13.284 20.7866C12.7392 21.2124 12.3523 21.8082 12.185 22.4792C12.1626 22.5691 12.1611 22.663 12.1805 22.7536C12.1999 22.8443 12.2398 22.9293 12.2972 23.0021C12.3545 23.075 12.4277 23.1337 12.5112 23.174C12.5947 23.2142 12.6863 23.2348 12.779 23.2342H17.73C17.8051 23.2345 17.8793 23.2183 17.9474 23.1867C18.0155 23.1551 18.0758 23.1088 18.1239 23.0512C18.172 22.9936 18.2069 22.9261 18.2259 22.8535C18.245 22.7809 18.2477 22.705 18.234 22.6312C18.0937 21.9271 17.7141 21.2933 17.1596 20.8372C16.6051 20.3812 15.91 20.131 15.192 20.1292Z" fill="white"/>
<path d="M15.6512 20.7322C15.3467 20.7323 15.0464 20.8027 14.7735 20.9378C14.5007 21.0729 14.2627 21.2691 14.078 21.5111C13.8933 21.7532 13.7669 22.0346 13.7087 22.3334C13.6504 22.6322 13.6619 22.9405 13.7422 23.2342H17.5682C17.6147 23.064 17.6389 22.8886 17.6402 22.7122C17.6365 22.1865 17.4253 21.6835 17.0526 21.3127C16.6799 20.9418 16.1759 20.7332 15.6502 20.7322H15.6512Z" fill="url(#paint37_radial_10_69)"/>
<path d="M16.7851 22.7124C16.7856 22.5633 16.7567 22.4156 16.6999 22.2778C16.6431 22.14 16.5595 22.0147 16.4541 21.9093C16.3487 21.8039 16.2235 21.7204 16.0857 21.6636C15.9479 21.6068 15.8002 21.5778 15.6511 21.5784C15.502 21.5778 15.3543 21.6068 15.2165 21.6636C15.0787 21.7204 14.9535 21.8039 14.8481 21.9093C14.7427 22.0147 14.6591 22.14 14.6023 22.2778C14.5455 22.4156 14.5166 22.5633 14.5171 22.7124C14.5171 22.9024 14.5621 23.0824 14.6431 23.2344H16.6501C16.7311 23.0814 16.7851 22.9014 16.7851 22.7124V22.7124Z" fill="black"/>
<g filter="url(#filter17_f_10_69)">
<path d="M17.4602 22.4792C17.4602 21.8392 16.9402 21.4132 16.7992 21.2842L16.1592 21.9032L16.5532 22.7052L17.4602 22.4792Z" fill="url(#paint38_linear_10_69)"/>
</g>
<g filter="url(#filter18_f_10_69)">
<path d="M15.2587 21.9651C15.6808 21.7414 15.9312 21.3869 15.818 21.1731C15.7047 20.9593 15.2707 20.9674 14.8486 21.191C14.4264 21.4146 14.176 21.7692 14.2893 21.983C14.4025 22.1967 14.8365 22.1887 15.2587 21.9651Z" fill="#C7A7A3" fill-opacity="0.9"/>
<path d="M15.2587 21.9651C15.6808 21.7414 15.9312 21.3869 15.818 21.1731C15.7047 20.9593 15.2707 20.9674 14.8486 21.191C14.4264 21.4146 14.176 21.7692 14.2893 21.983C14.4025 22.1967 14.8365 22.1887 15.2587 21.9651Z" fill="url(#paint39_radial_10_69)"/>
</g>
<g filter="url(#filter19_f_10_69)">
<path d="M30.932 16.3123C20.088 17.1453 15.613 11.9023 15.613 6.87427H21.818C29.109 6.87427 30.932 13.1663 30.932 16.3123Z" fill="url(#paint40_radial_10_69)"/>
</g>
<g filter="url(#filter20_f_10_69)">
<path d="M13.509 8.95117C12.186 9.38117 9.43403 11.1272 9.00903 14.6692" stroke="url(#paint41_linear_10_69)" stroke-width="0.4" stroke-linecap="round"/>
</g>
</g>
<path d="M62.112 14.044V26.5H60.474V17.212L56.334 26.5H55.182L51.024 17.194V26.5H49.386V14.044H51.15L55.758 24.34L60.366 14.044H62.112ZM73.8899 21.19C73.8899 21.502 73.8719 21.832 73.8359 22.18H65.9519C66.0119 23.152 66.3419 23.914 66.9419 24.466C67.5539 25.006 68.2919 25.276 69.1559 25.276C69.8639 25.276 70.4519 25.114 70.9199 24.79C71.3999 24.454 71.7359 24.01 71.9279 23.458H73.6919C73.4279 24.406 72.8999 25.18 72.1079 25.78C71.3159 26.368 70.3319 26.662 69.1559 26.662C68.2199 26.662 67.3799 26.452 66.6359 26.032C65.9039 25.612 65.3279 25.018 64.9079 24.25C64.4879 23.47 64.2779 22.57 64.2779 21.55C64.2779 20.53 64.4819 19.636 64.8899 18.868C65.2979 18.1 65.8679 17.512 66.5999 17.104C67.3439 16.684 68.1959 16.474 69.1559 16.474C70.0919 16.474 70.9199 16.678 71.6399 17.086C72.3599 17.494 72.9119 18.058 73.2959 18.778C73.6919 19.486 73.8899 20.29 73.8899 21.19ZM72.1979 20.848C72.1979 20.224 72.0599 19.69 71.7839 19.246C71.5079 18.79 71.1299 18.448 70.6499 18.22C70.1819 17.98 69.6599 17.86 69.0839 17.86C68.2559 17.86 67.5479 18.124 66.9599 18.652C66.3839 19.18 66.0539 19.912 65.9699 20.848H72.1979ZM84.8 16.636V26.5H83.162V25.042C82.85 25.546 82.412 25.942 81.848 26.23C81.296 26.506 80.684 26.644 80.012 26.644C79.244 26.644 78.554 26.488 77.942 26.176C77.33 25.852 76.844 25.372 76.484 24.736C76.136 24.1 75.962 23.326 75.962 22.414V16.636H77.582V22.198C77.582 23.17 77.828 23.92 78.32 24.448C78.812 24.964 79.484 25.222 80.336 25.222C81.212 25.222 81.902 24.952 82.406 24.412C82.91 23.872 83.162 23.086 83.162 22.054V16.636H84.8ZM94.0025 18.454C94.3265 17.89 94.8065 17.422 95.4425 17.05C96.0905 16.666 96.8405 16.474 97.6925 16.474C98.5685 16.474 99.3605 16.684 100.069 17.104C100.789 17.524 101.353 18.118 101.761 18.886C102.169 19.642 102.373 20.524 102.373 21.532C102.373 22.528 102.169 23.416 101.761 24.196C101.353 24.976 100.789 25.582 100.069 26.014C99.3605 26.446 98.5685 26.662 97.6925 26.662C96.8525 26.662 96.1085 26.476 95.4605 26.104C94.8245 25.72 94.3385 25.246 94.0025 24.682V31.18H92.3645V16.636H94.0025V18.454ZM100.699 21.532C100.699 20.788 100.549 20.14 100.249 19.588C99.9485 19.036 99.5405 18.616 99.0245 18.328C98.5205 18.04 97.9625 17.896 97.3505 17.896C96.7505 17.896 96.1925 18.046 95.6765 18.346C95.1725 18.634 94.7645 19.06 94.4525 19.624C94.1525 20.176 94.0025 20.818 94.0025 21.55C94.0025 22.294 94.1525 22.948 94.4525 23.512C94.7645 24.064 95.1725 24.49 95.6765 24.79C96.1925 25.078 96.7505 25.222 97.3505 25.222C97.9625 25.222 98.5205 25.078 99.0245 24.79C99.5405 24.49 99.9485 24.064 100.249 23.512C100.549 22.948 100.699 22.288 100.699 21.532ZM113.529 21.19C113.529 21.502 113.511 21.832 113.475 22.18H105.591C105.651 23.152 105.981 23.914 106.581 24.466C107.193 25.006 107.931 25.276 108.795 25.276C109.503 25.276 110.091 25.114 110.559 24.79C111.039 24.454 111.375 24.01 111.567 23.458H113.331C113.067 24.406 112.539 25.18 111.747 25.78C110.955 26.368 109.971 26.662 108.795 26.662C107.859 26.662 107.019 26.452 106.275 26.032C105.543 25.612 104.967 25.018 104.547 24.25C104.127 23.47 103.917 22.57 103.917 21.55C103.917 20.53 104.121 19.636 104.529 18.868C104.937 18.1 105.507 17.512 106.239 17.104C106.983 16.684 107.835 16.474 108.795 16.474C109.731 16.474 110.559 16.678 111.279 17.086C111.999 17.494 112.551 18.058 112.935 18.778C113.331 19.486 113.529 20.29 113.529 21.19ZM111.837 20.848C111.837 20.224 111.699 19.69 111.423 19.246C111.147 18.79 110.769 18.448 110.289 18.22C109.821 17.98 109.299 17.86 108.723 17.86C107.895 17.86 107.187 18.124 106.599 18.652C106.023 19.18 105.693 19.912 105.609 20.848H111.837ZM117.329 18.238C117.617 17.674 118.025 17.236 118.553 16.924C119.093 16.612 119.747 16.456 120.515 16.456V18.148H120.083C118.247 18.148 117.329 19.144 117.329 21.136V26.5H115.691V16.636H117.329V18.238ZM126.42 17.986H124.35V26.5H122.712V17.986H121.434V16.636H122.712V15.934C122.712 14.83 122.994 14.026 123.558 13.522C124.134 13.006 125.052 12.748 126.312 12.748V14.116C125.592 14.116 125.082 14.26 124.782 14.548C124.494 14.824 124.35 15.286 124.35 15.934V16.636H126.42V17.986ZM129.175 15.034C128.863 15.034 128.599 14.926 128.383 14.71C128.167 14.494 128.059 14.23 128.059 13.918C128.059 13.606 128.167 13.342 128.383 13.126C128.599 12.91 128.863 12.802 129.175 12.802C129.475 12.802 129.727 12.91 129.931 13.126C130.147 13.342 130.255 13.606 130.255 13.918C130.255 14.23 130.147 14.494 129.931 14.71C129.727 14.926 129.475 15.034 129.175 15.034ZM129.967 16.636V26.5H128.329V16.636H129.967ZM134.397 13.18V26.5H132.759V13.18H134.397Z" fill="white"/>
<defs>
<filter id="filter0_i_10_69" x="7.21606" y="18.0993" width="6.5" height="6.9" filterUnits="userSpaceOnUse" color-interpolation-filters="sRGB">
<feFlood flood-opacity="0" result="BackgroundImageFix"/>
<feBlend mode="normal" in="SourceGraphic" in2="BackgroundImageFix" result="shape"/>
<feColorMatrix in="SourceAlpha" type="matrix" values="0 0 0 0 0 0 0 0 0 0 0 0 0 0 0 0 0 0 127 0" result="hardAlpha"/>
<feOffset dy="-0.4"/>
<feGaussianBlur stdDeviation="0.2"/>
<feComposite in2="hardAlpha" operator="arithmetic" k2="-1" k3="1"/>
<feColorMatrix type="matrix" values="0 0 0 0 0.188235 0 0 0 0 0.113725 0 0 0 0 0.168627 0 0 0 1 0"/>
<feBlend mode="normal" in2="shape" result="effect1_innerShadow_10_69"/>
</filter>
<filter id="filter1_i_10_69" x="26.2161" y="18.2493" width="6.7" height="6.75" filterUnits="userSpaceOnUse" color-interpolation-filters="sRGB">
<feFlood flood-opacity="0" result="BackgroundImageFix"/>
<feBlend mode="normal" in="SourceGraphic" in2="BackgroundImageFix" result="shape"/>
<feColorMatrix in="SourceAlpha" type="matrix" values="0 0 0 0 0 0 0 0 0 0 0 0 0 0 0 0 0 0 127 0" result="hardAlpha"/>
<feOffset dx="0.2" dy="-0.25"/>
<feGaussianBlur stdDeviation="0.25"/>
<feComposite in2="hardAlpha" operator="arithmetic" k2="-1" k3="1"/>
<feColorMatrix type="matrix" values="0 0 0 0 0.207843 0 0 0 0 0.12549 0 0 0 0 0.164706 0 0 0 1 0"/>
<feBlend mode="normal" in2="shape" result="effect1_innerShadow_10_69"/>
</filter>
<filter id="filter2_f_10_69" x="26.9812" y="19.2183" width="5.07861" height="5.06006" filterUnits="userSpaceOnUse" color-interpolation-filters="sRGB">
<feFlood flood-opacity="0" result="BackgroundImageFix"/>
<feBlend mode="normal" in="SourceGraphic" in2="BackgroundImageFix" result="shape"/>
<feGaussianBlur stdDeviation="0.25" result="effect1_foregroundBlur_10_69"/>
</filter>
<filter id="filter3_f_10_69" x="7.9812" y="19.2183" width="5.07861" height="5.06006" filterUnits="userSpaceOnUse" color-interpolation-filters="sRGB">
<feFlood flood-opacity="0" result="BackgroundImageFix"/>
<feBlend mode="normal" in="SourceGraphic" in2="BackgroundImageFix" result="shape"/>
<feGaussianBlur stdDeviation="0.25" result="effect1_foregroundBlur_10_69"/>
</filter>
<filter id="filter4_i_10_69" x="25.9851" y="24.4192" width="8.69883" height="9.58174" filterUnits="userSpaceOnUse" color-interpolation-filters="sRGB">
<feFlood flood-opacity="0" result="BackgroundImageFix"/>
<feBlend mode="normal" in="SourceGraphic" in2="BackgroundImageFix" result="shape"/>
<feColorMatrix in="SourceAlpha" type="matrix" values="0 0 0 0 0 0 0 0 0 0 0 0 0 0 0 0 0 0 127 0" result="hardAlpha"/>
<feOffset dx="0.65" dy="-0.8"/>
<feGaussianBlur stdDeviation="0.75"/>
<feComposite in2="hardAlpha" operator="arithmetic" k2="-1" k3="1"/>
<feColorMatrix type="matrix" values="0 0 0 0 0.113725 0 0 0 0 0.0666667 0 0 0 0 0.152941 0 0 0 1 0"/>
<feBlend mode="normal" in2="shape" result="effect1_innerShadow_10_69"/>
</filter>
<filter id="filter5_i_10_69" x="5.71631" y="24.4692" width="8.29883" height="9.53174" filterUnits="userSpaceOnUse" color-interpolation-filters="sRGB">
<feFlood flood-opacity="0" result="BackgroundImageFix"/>
<feBlend mode="normal" in="SourceGraphic" in2="BackgroundImageFix" result="shape"/>
<feColorMatrix in="SourceAlpha" type="matrix" values="0 0 0 0 0 0 0 0 0 0 0 0 0 0 0 0 0 0 127 0" result="hardAlpha"/>
<feOffset dx="-0.25" dy="-0.75"/>
<feGaussianBlur stdDeviation="0.5"/>
<feComposite in2="hardAlpha" operator="arithmetic" k2="-1" k3="1"/>
<feColorMatrix type="matrix" values="0 0 0 0 0.0941176 0 0 0 0 0.054902 0 0 0 0 0.12549 0 0 0 1 0"/>
<feBlend mode="normal" in2="shape" result="effect1_innerShadow_10_69"/>
</filter>
<filter id="filter6_i_10_69" x="9.80908" y="11.8562" width="20.3325" height="22.5431" filterUnits="userSpaceOnUse" color-interpolation-filters="sRGB">
<feFlood flood-opacity="0" result="BackgroundImageFix"/>
<feBlend mode="normal" in="SourceGraphic" in2="BackgroundImageFix" result="shape"/>
<feColorMatrix in="SourceAlpha" type="matrix" values="0 0 0 0 0 0 0 0 0 0 0 0 0 0 0 0 0 0 127 0" result="hardAlpha"/>
<feOffset dy="0.4"/>
<feGaussianBlur stdDeviation="0.3"/>
<feComposite in2="hardAlpha" operator="arithmetic" k2="-1" k3="1"/>
<feColorMatrix type="matrix" values="0 0 0 0 0.113725 0 0 0 0 0.0509804 0 0 0 0 0.0588235 0 0 0 1 0"/>
<feBlend mode="normal" in2="shape" result="effect1_innerShadow_10_69"/>
</filter>
<filter id="filter7_i_10_69" x="13.0271" y="17.0861" width="3.73003" height="1.55327" filterUnits="userSpaceOnUse" color-interpolation-filters="sRGB">
<feFlood flood-opacity="0" result="BackgroundImageFix"/>
<feBlend mode="normal" in="SourceGraphic" in2="BackgroundImageFix" result="shape"/>
<feColorMatrix in="SourceAlpha" type="matrix" values="0 0 0 0 0 0 0 0 0 0 0 0 0 0 0 0 0 0 127 0" result="hardAlpha"/>
<feOffset dx="0.2" dy="-0.2"/>
<feGaussianBlur stdDeviation="0.1"/>
<feComposite in2="hardAlpha" operator="arithmetic" k2="-1" k3="1"/>
<feColorMatrix type="matrix" values="0 0 0 0 0.0431373 0 0 0 0 0.0196078 0 0 0 0 0.0431373 0 0 0 1 0"/>
<feBlend mode="normal" in2="shape" result="effect1_innerShadow_10_69"/>
</filter>
<filter id="filter8_f_10_69" x="12.8271" y="17.0862" width="3.92993" height="1.75317" filterUnits="userSpaceOnUse" color-interpolation-filters="sRGB">
<feFlood flood-opacity="0" result="BackgroundImageFix"/>
<feBlend mode="normal" in="SourceGraphic" in2="BackgroundImageFix" result="shape"/>
<feGaussianBlur stdDeviation="0.25" result="effect1_foregroundBlur_10_69"/>
</filter>
<filter id="filter9_i_10_69" x="23.3359" y="17.0666" width="3.77031" height="1.59185" filterUnits="userSpaceOnUse" color-interpolation-filters="sRGB">
<feFlood flood-opacity="0" result="BackgroundImageFix"/>
<feBlend mode="normal" in="SourceGraphic" in2="BackgroundImageFix" result="shape"/>
<feColorMatrix in="SourceAlpha" type="matrix" values="0 0 0 0 0 0 0 0 0 0 0 0 0 0 0 0 0 0 127 0" result="hardAlpha"/>
<feOffset dx="0.2" dy="-0.2"/>
<feGaussianBlur stdDeviation="0.1"/>
<feComposite in2="hardAlpha" operator="arithmetic" k2="-1" k3="1"/>
<feColorMatrix type="matrix" values="0 0 0 0 0.0431373 0 0 0 0 0.0196078 0 0 0 0 0.0431373 0 0 0 1 0"/>
<feBlend mode="normal" in2="shape" result="effect1_innerShadow_10_69"/>
</filter>
<filter id="filter10_f_10_69" x="23.136" y="17.0667" width="3.96997" height="1.79175" filterUnits="userSpaceOnUse" color-interpolation-filters="sRGB">
<feFlood flood-opacity="0" result="BackgroundImageFix"/>
<feBlend mode="normal" in="SourceGraphic" in2="BackgroundImageFix" result="shape"/>
<feGaussianBlur stdDeviation="0.25" result="effect1_foregroundBlur_10_69"/>
</filter>
<filter id="filter11_i_10_69" x="7.49512" y="7.49927" width="7.56006" height="12.1189" filterUnits="userSpaceOnUse" color-interpolation-filters="sRGB">
<feFlood flood-opacity="0" result="BackgroundImageFix"/>
<feBlend mode="normal" in="SourceGraphic" in2="BackgroundImageFix" result="shape"/>
<feColorMatrix in="SourceAlpha" type="matrix" values="0 0 0 0 0 0 0 0 0 0 0 0 0 0 0 0 0 0 127 0" result="hardAlpha"/>
<feOffset dx="-0.5" dy="-0.5"/>
<feGaussianBlur stdDeviation="0.5"/>
<feComposite in2="hardAlpha" operator="arithmetic" k2="-1" k3="1"/>
<feColorMatrix type="matrix" values="0 0 0 0 0.0784314 0 0 0 0 0.0117647 0 0 0 0 0.0470588 0 0 0 1 0"/>
<feBlend mode="normal" in2="shape" result="effect1_innerShadow_10_69"/>
</filter>
<filter id="filter12_f_10_69" x="17.2405" y="21.207" width="4.81543" height="5.89282" filterUnits="userSpaceOnUse" color-interpolation-filters="sRGB">
<feFlood flood-opacity="0" result="BackgroundImageFix"/>
<feBlend mode="normal" in="SourceGraphic" in2="BackgroundImageFix" result="shape"/>
<feGaussianBlur stdDeviation="0.375" result="effect1_foregroundBlur_10_69"/>
</filter>
<filter id="filter13_f_10_69" x="17.9678" y="21.1172" width="3.99707" height="5.13208" filterUnits="userSpaceOnUse" color-interpolation-filters="sRGB">
<feFlood flood-opacity="0" result="BackgroundImageFix"/>
<feBlend mode="normal" in="SourceGraphic" in2="BackgroundImageFix" result="shape"/>
<feGaussianBlur stdDeviation="0.125" result="effect1_foregroundBlur_10_69"/>
</filter>
<filter id="filter14_i_10_69" x="14.0151" y="5.24927" width="18.74" height="14.47" filterUnits="userSpaceOnUse" color-interpolation-filters="sRGB">
<feFlood flood-opacity="0" result="BackgroundImageFix"/>
<feBlend mode="normal" in="SourceGraphic" in2="BackgroundImageFix" result="shape"/>
<feColorMatrix in="SourceAlpha" type="matrix" values="0 0 0 0 0 0 0 0 0 0 0 0 0 0 0 0 0 0 127 0" result="hardAlpha"/>
<feOffset dx="0.75" dy="-0.75"/>
<feGaussianBlur stdDeviation="0.625"/>
<feComposite in2="hardAlpha" operator="arithmetic" k2="-1" k3="1"/>
<feColorMatrix type="matrix" values="0 0 0 0 0.0745098 0 0 0 0 0.0156863 0 0 0 0 0.054902 0 0 0 1 0"/>
<feBlend mode="normal" in2="shape" result="effect1_innerShadow_10_69"/>
</filter>
<filter id="filter15_f_10_69" x="22.7984" y="20.9166" width="1.50469" height="1.30327" filterUnits="userSpaceOnUse" color-interpolation-filters="sRGB">
<feFlood flood-opacity="0" result="BackgroundImageFix"/>
<feBlend mode="normal" in="SourceGraphic" in2="BackgroundImageFix" result="shape"/>
<feGaussianBlur stdDeviation="0.05" result="effect1_foregroundBlur_10_69"/>
</filter>
<filter id="filter16_f_10_69" x="24.788" y="21.2053" width="1.49204" height="1.54209" filterUnits="userSpaceOnUse" color-interpolation-filters="sRGB">
<feFlood flood-opacity="0" result="BackgroundImageFix"/>
<feBlend mode="normal" in="SourceGraphic" in2="BackgroundImageFix" result="shape"/>
<feGaussianBlur stdDeviation="0.1" result="effect1_foregroundBlur_10_69"/>
</filter>
<filter id="filter17_f_10_69" x="15.9592" y="21.0842" width="1.70103" height="1.8209" filterUnits="userSpaceOnUse" color-interpolation-filters="sRGB">
<feFlood flood-opacity="0" result="BackgroundImageFix"/>
<feBlend mode="normal" in="SourceGraphic" in2="BackgroundImageFix" result="shape"/>
<feGaussianBlur stdDeviation="0.1" result="effect1_foregroundBlur_10_69"/>
</filter>
<filter id="filter18_f_10_69" x="14.162" y="20.9178" width="1.78325" height="1.32036" filterUnits="userSpaceOnUse" color-interpolation-filters="sRGB">
<feFlood flood-opacity="0" result="BackgroundImageFix"/>
<feBlend mode="normal" in="SourceGraphic" in2="BackgroundImageFix" result="shape"/>
<feGaussianBlur stdDeviation="0.05" result="effect1_foregroundBlur_10_69"/>
</filter>
<filter id="filter19_f_10_69" x="13.613" y="4.87427" width="19.3191" height="13.5259" filterUnits="userSpaceOnUse" color-interpolation-filters="sRGB">
<feFlood flood-opacity="0" result="BackgroundImageFix"/>
<feBlend mode="normal" in="SourceGraphic" in2="BackgroundImageFix" result="shape"/>
<feGaussianBlur stdDeviation="1" result="effect1_foregroundBlur_10_69"/>
</filter>
<filter id="filter20_f_10_69" x="8.05908" y="8.00122" width="6.3999" height="7.61792" filterUnits="userSpaceOnUse" color-interpolation-filters="sRGB">
<feFlood flood-opacity="0" result="BackgroundImageFix"/>
<feBlend mode="normal" in="SourceGraphic" in2="BackgroundImageFix" result="shape"/>
<feGaussianBlur stdDeviation="0.375" result="effect1_foregroundBlur_10_69"/>
</filter>
<linearGradient id="paint0_linear_10_69" x1="8.15006" y1="22.7093" x2="10.6931" y2="22.7093" gradientUnits="userSpaceOnUse">
<stop stop-color="#362324"/>
<stop offset="1" stop-color="#291B1B"/>
</linearGradient>
<radialGradient id="paint1_radial_10_69" cx="0" cy="0" r="1" gradientUnits="userSpaceOnUse" gradientTransform="translate(10.3681 21.4353) rotate(180) scale(2.8125 3.21299)">
<stop offset="0.57" stop-color="#49343A"/>
<stop offset="1" stop-color="#38282C" stop-opacity="0"/>
</radialGradient>
<radialGradient id="paint2_radial_10_69" cx="0" cy="0" r="1" gradientUnits="userSpaceOnUse" gradientTransform="translate(29.1341 23.2323) rotate(-38.1374) scale(4.55429 3.65279)">
<stop offset="0.573" stop-color="#4C3232"/>
<stop offset="0.955" stop-color="#6A5654"/>
</radialGradient>
<radialGradient id="paint3_radial_10_69" cx="0" cy="0" r="1" gradientUnits="userSpaceOnUse" gradientTransform="translate(29.4661 22.4353) rotate(-67.6828) scale(4.1043 3.51315)">
<stop offset="0.826" stop-color="#422A25" stop-opacity="0"/>
<stop offset="1" stop-color="#422A25"/>
</radialGradient>
<radialGradient id="paint4_radial_10_69" cx="0" cy="0" r="1" gradientUnits="userSpaceOnUse" gradientTransform="translate(29.4661 22.9973) rotate(-66.4257) scale(3.21465 2.50404)">
<stop stop-color="#4D3939"/>
<stop offset="1" stop-color="#473030"/>
</radialGradient>
<radialGradient id="paint5_radial_10_69" cx="0" cy="0" r="1" gradientUnits="userSpaceOnUse" gradientTransform="translate(28.7441 21.7493) scale(2.89063)">
<stop offset="0.733" stop-color="#371D1E" stop-opacity="0"/>
<stop offset="1" stop-color="#371D1E"/>
</radialGradient>
<linearGradient id="paint6_linear_10_69" x1="10.4661" y1="21.3573" x2="8.82215" y2="21.3573" gradientUnits="userSpaceOnUse">
<stop stop-color="#2D1C23"/>
<stop offset="1" stop-color="#2C1D22"/>
</linearGradient>
<linearGradient id="paint7_linear_10_69" x1="31.9001" y1="28.1082" x2="30.8381" y2="29.7492" gradientUnits="userSpaceOnUse">
<stop stop-color="#323131"/>
<stop offset="1" stop-color="#323131" stop-opacity="0"/>
</linearGradient>
<radialGradient id="paint8_radial_10_69" cx="0" cy="0" r="1" gradientUnits="userSpaceOnUse" gradientTransform="translate(28.6341 27.2172) rotate(38.48) scale(5.44903 0.939351)">
<stop stop-color="#3C3B3B"/>
<stop offset="1" stop-color="#3C3B3B" stop-opacity="0"/>
</radialGradient>
<radialGradient id="paint9_radial_10_69" cx="0" cy="0" r="1" gradientUnits="userSpaceOnUse" gradientTransform="translate(34.2281 29.8262) rotate(170.242) scale(2.48914 0.559656)">
<stop offset="0.153" stop-color="#494949"/>
<stop offset="1" stop-color="#494949" stop-opacity="0"/>
</radialGradient>
<radialGradient id="paint10_radial_10_69" cx="0" cy="0" r="1" gradientUnits="userSpaceOnUse" gradientTransform="translate(26.6661 29.1382) rotate(32.998) scale(2.86905 5.19008)">
<stop stop-color="#09040C"/>
<stop offset="1" stop-color="#09040C" stop-opacity="0"/>
</radialGradient>
<radialGradient id="paint11_radial_10_69" cx="0" cy="0" r="1" gradientUnits="userSpaceOnUse" gradientTransform="translate(12.1199 29.9989) rotate(153.831) scale(2.37151 5.41349)">
<stop stop-color="#140F18"/>
<stop offset="1" stop-color="#140F18" stop-opacity="0"/>
</radialGradient>
<linearGradient id="paint12_linear_10_69" x1="7.96308" y1="27.7802" x2="8.96308" y2="29.2172" gradientUnits="userSpaceOnUse">
<stop stop-color="#3C3A3A"/>
<stop offset="1" stop-color="#3C3A3A" stop-opacity="0"/>
</linearGradient>
<radialGradient id="paint13_radial_10_69" cx="0" cy="0" r="1" gradientUnits="userSpaceOnUse" gradientTransform="translate(25.0779 21.0098) rotate(121.935) scale(13.391 14.0248)">
<stop offset="0.103" stop-color="#513230"/>
<stop offset="1" stop-color="#3D2829"/>
</radialGradient>
<radialGradient id="paint14_radial_10_69" cx="0" cy="0" r="1" gradientUnits="userSpaceOnUse" gradientTransform="translate(21.37 18.3741) rotate(94.77) scale(16.8709 15.8687)">
<stop offset="0.762" stop-color="#462D45" stop-opacity="0"/>
<stop offset="1" stop-color="#462D45"/>
</radialGradient>
<radialGradient id="paint15_radial_10_69" cx="0" cy="0" r="1" gradientUnits="userSpaceOnUse" gradientTransform="translate(26.4161 22.9272) rotate(180) scale(16.6063 17.8828)">
<stop offset="0.875" stop-color="#544745" stop-opacity="0"/>
<stop offset="1" stop-color="#544745"/>
</radialGradient>
<radialGradient id="paint16_radial_10_69" cx="0" cy="0" r="1" gradientUnits="userSpaceOnUse" gradientTransform="translate(22.3042 16.4208) rotate(98.308) scale(6.57507 5.58105)">
<stop offset="0.265" stop-color="#402E31"/>
<stop offset="1" stop-color="#402E31" stop-opacity="0"/>
</radialGradient>
<radialGradient id="paint17_radial_10_69" cx="0" cy="0" r="1" gradientUnits="userSpaceOnUse" gradientTransform="translate(30.1411 22.9272) rotate(180) scale(2.16825 11.9901)">
<stop stop-color="#63514F"/>
<stop offset="1" stop-color="#63514F" stop-opacity="0"/>
</radialGradient>
<radialGradient id="paint18_radial_10_69" cx="0" cy="0" r="1" gradientUnits="userSpaceOnUse" gradientTransform="translate(25.0151 20.8882) rotate(-90) scale(2.33392 3.24473)">
<stop offset="0.375" stop-color="#43282A"/>
<stop offset="1" stop-color="#43282A" stop-opacity="0"/>
</radialGradient>
<radialGradient id="paint19_radial_10_69" cx="0" cy="0" r="1" gradientUnits="userSpaceOnUse" gradientTransform="translate(15.5411 20.8262) rotate(-80.4413) scale(2.463 2.61318)">
<stop offset="0.146" stop-color="#361F26"/>
<stop offset="1" stop-color="#361F26" stop-opacity="0"/>
</radialGradient>
<linearGradient id="paint20_linear_10_69" x1="17.9001" y1="28.5603" x2="18.3841" y2="27.7983" gradientUnits="userSpaceOnUse">
<stop stop-color="#594B4C"/>
<stop offset="1" stop-color="#594B4C" stop-opacity="0"/>
</linearGradient>
<linearGradient id="paint21_linear_10_69" x1="16.0071" y1="18.0894" x2="13.3611" y2="18.0894" gradientUnits="userSpaceOnUse">
<stop stop-color="#353535"/>
<stop offset="1" stop-color="#353535" stop-opacity="0"/>
</linearGradient>
<linearGradient id="paint22_linear_10_69" x1="26.356" y1="18.1084" x2="23.666" y2="18.1084" gradientUnits="userSpaceOnUse">
<stop stop-color="#353535"/>
<stop offset="1" stop-color="#353535" stop-opacity="0"/>
</linearGradient>
<radialGradient id="paint23_radial_10_69" cx="0" cy="0" r="1" gradientUnits="userSpaceOnUse" gradientTransform="translate(14.111 13.3006) rotate(-176.074) scale(6.64718 11.0947)">
<stop offset="0.412" stop-color="#22181C"/>
<stop offset="1" stop-color="#5E5959"/>
</radialGradient>
<radialGradient id="paint24_radial_10_69" cx="0" cy="0" r="1" gradientUnits="userSpaceOnUse" gradientTransform="translate(13.4287 12.4236) rotate(110.487) scale(3.15794 0.91085)">
<stop offset="0.21" stop-color="#3B3438"/>
<stop offset="1" stop-color="#3B3438" stop-opacity="0"/>
</radialGradient>
<linearGradient id="paint25_linear_10_69" x1="18.307" y1="25.7683" x2="21.795" y2="23.9773" gradientUnits="userSpaceOnUse">
<stop offset="0.274" stop-color="#352125"/>
<stop offset="1" stop-color="#5B4543"/>
</linearGradient>
<radialGradient id="paint26_radial_10_69" cx="0" cy="0" r="1" gradientUnits="userSpaceOnUse" gradientTransform="translate(21.521 24.5972) rotate(-103.678) scale(3.66057 1.55577)">
<stop stop-color="#634D4A"/>
<stop offset="1" stop-color="#634D4A" stop-opacity="0"/>
</radialGradient>
<radialGradient id="paint27_radial_10_69" cx="0" cy="0" r="1" gradientUnits="userSpaceOnUse" gradientTransform="translate(21.494 24.7632) rotate(180) scale(2.125 0.35938)">
<stop offset="0.36" stop-color="#634D4A"/>
<stop offset="1" stop-color="#634D4A" stop-opacity="0"/>
</radialGradient>
<linearGradient id="paint28_linear_10_69" x1="18.058" y1="24.1262" x2="19.459" y2="24.1882" gradientUnits="userSpaceOnUse">
<stop stop-color="#3A2725"/>
<stop offset="1" stop-color="#3A2725" stop-opacity="0"/>
</linearGradient>
<linearGradient id="paint29_linear_10_69" x1="19.79" y1="26.2972" x2="19.79" y2="24.5352" gradientUnits="userSpaceOnUse">
<stop stop-color="#3B1F30"/>
<stop offset="1" stop-color="#3B1F30" stop-opacity="0"/>
</linearGradient>
<radialGradient id="paint30_radial_10_69" cx="0" cy="0" r="1" gradientUnits="userSpaceOnUse" gradientTransform="translate(19.966 22.7792) rotate(90) scale(3.51563 2.65432)">
<stop offset="0.827" stop-color="#2F161F" stop-opacity="0"/>
<stop offset="1" stop-color="#2F161F"/>
</radialGradient>
<linearGradient id="paint31_linear_10_69" x1="18.853" y1="23.8882" x2="17.978" y2="23.6832" gradientUnits="userSpaceOnUse">
<stop stop-color="#2F161F" stop-opacity="0"/>
<stop offset="0.898" stop-color="#2F161F"/>
</linearGradient>
<radialGradient id="paint32_radial_10_69" cx="0" cy="0" r="1" gradientUnits="userSpaceOnUse" gradientTransform="translate(21.9131 4.32827) rotate(90) scale(4.94118 10.2724)">
<stop stop-color="#433D3F"/>
<stop offset="1" stop-color="#433D3F" stop-opacity="0"/>
</radialGradient>
<radialGradient id="paint33_radial_10_69" cx="0" cy="0" r="1" gradientUnits="userSpaceOnUse" gradientTransform="translate(34.3531 17.0453) rotate(180) scale(7.125 7.6875)">
<stop stop-color="#565253"/>
<stop offset="1" stop-color="#565253" stop-opacity="0"/>
</radialGradient>
<radialGradient id="paint34_radial_10_69" cx="0" cy="0" r="1" gradientUnits="userSpaceOnUse" gradientTransform="translate(24.3081 21.7722) rotate(90) scale(1.80382 2.86918)">
<stop offset="0.802" stop-color="#7D574A"/>
<stop offset="1" stop-color="#644945"/>
</radialGradient>
<radialGradient id="paint35_radial_10_69" cx="0" cy="0" r="1" gradientUnits="userSpaceOnUse" gradientTransform="translate(23.801 21.9592) rotate(-127.812) scale(0.841052 1.15794)">
<stop offset="0.766" stop-color="#FFE6E2" stop-opacity="0"/>
<stop offset="0.966" stop-color="#FFE6E2"/>
</radialGradient>
<linearGradient id="paint36_linear_10_69" x1="26.038" y1="21.8923" x2="25.34" y2="22.3223" gradientUnits="userSpaceOnUse">
<stop stop-color="#B4948D"/>
<stop offset="1" stop-color="#B4948D" stop-opacity="0"/>
</linearGradient>
<radialGradient id="paint37_radial_10_69" cx="0" cy="0" r="1" gradientUnits="userSpaceOnUse" gradientTransform="translate(15.6552 21.7902) rotate(90) scale(1.80042 2.86377)">
<stop offset="0.802" stop-color="#7D574A"/>
<stop offset="1" stop-color="#644945"/>
</radialGradient>
<linearGradient id="paint38_linear_10_69" x1="17.3062" y1="21.9102" x2="16.6102" y2="22.3392" gradientUnits="userSpaceOnUse">
<stop stop-color="#B4948D"/>
<stop offset="1" stop-color="#B4948D" stop-opacity="0"/>
</linearGradient>
<radialGradient id="paint39_radial_10_69" cx="0" cy="0" r="1" gradientUnits="userSpaceOnUse" gradientTransform="translate(15.3517 22.2112) rotate(-118.811) scale(1.09651 1.31805)">
<stop offset="0.766" stop-color="#FFE6E2" stop-opacity="0"/>
<stop offset="0.966" stop-color="#FFE6E2"/>
</radialGradient>
<radialGradient id="paint40_radial_10_69" cx="0" cy="0" r="1" gradientUnits="userSpaceOnUse" gradientTransform="translate(26.334 15.9013) rotate(-147.45) scale(10.8755 4.00738)">
<stop offset="0.212" stop-color="#4A4446"/>
<stop offset="1" stop-color="#4A4446" stop-opacity="0"/>
</radialGradient>
<linearGradient id="paint41_linear_10_69" x1="13.197" y1="9.18517" x2="9.37603" y2="15.5352" gradientUnits="userSpaceOnUse">
<stop stop-color="#504E4E"/>
<stop offset="1" stop-color="#504E4E" stop-opacity="0"/>
</linearGradient>
<clipPath id="clip0_10_69">
<rect width="40" height="40" rx="20" fill="white"/>
</clipPath>
</defs>
</svg>
