<svg width="61" height="61" viewBox="0 0 61 61" fill="none" xmlns="http://www.w3.org/2000/svg">
<rect width="60.0675" height="60.0016" rx="30" fill="white"/>
<g filter="url(#filter0_i_10_93)">
<path d="M20.4998 35C21.3617 35 22.1884 34.6576 22.7979 34.0481C23.4073 33.4386 23.7498 32.612 23.7498 31.75C23.7498 30.888 23.4073 30.0614 22.7979 29.4519C22.1884 28.8424 21.3617 28.5 20.4998 28.5C19.6378 28.5 18.8112 28.8424 18.2017 29.4519C17.5922 30.0614 17.2498 30.888 17.2498 31.75C17.2498 32.612 17.5922 33.4386 18.2017 34.0481C18.8112 34.6576 19.6378 35 20.4998 35Z" fill="url(#paint0_linear_10_93)"/>
<path d="M20.4998 35C21.3617 35 22.1884 34.6576 22.7979 34.0481C23.4073 33.4386 23.7498 32.612 23.7498 31.75C23.7498 30.888 23.4073 30.0614 22.7979 29.4519C22.1884 28.8424 21.3617 28.5 20.4998 28.5C19.6378 28.5 18.8112 28.8424 18.2017 29.4519C17.5922 30.0614 17.2498 30.888 17.2498 31.75C17.2498 32.612 17.5922 33.4386 18.2017 34.0481C18.8112 34.6576 19.6378 35 20.4998 35Z" fill="url(#paint1_radial_10_93)"/>
</g>
<g filter="url(#filter1_i_10_93)">
<path d="M39.4998 35C40.3617 35 41.1884 34.6576 41.7979 34.0481C42.4073 33.4386 42.7498 32.612 42.7498 31.75C42.7498 30.888 42.4073 30.0614 41.7979 29.4519C41.1884 28.8424 40.3617 28.5 39.4998 28.5C38.6378 28.5 37.8112 28.8424 37.2017 29.4519C36.5922 30.0614 36.2498 30.888 36.2498 31.75C36.2498 32.612 36.5922 33.4386 37.2017 34.0481C37.8112 34.6576 38.6378 35 39.4998 35Z" fill="url(#paint2_radial_10_93)"/>
<path d="M39.4998 35C40.3617 35 41.1884 34.6576 41.7979 34.0481C42.4073 33.4386 42.7498 32.612 42.7498 31.75C42.7498 30.888 42.4073 30.0614 41.7979 29.4519C41.1884 28.8424 40.3617 28.5 39.4998 28.5C38.6378 28.5 37.8112 28.8424 37.2017 29.4519C36.5922 30.0614 36.2498 30.888 36.2498 31.75C36.2498 32.612 36.5922 33.4386 37.2017 34.0481C37.8112 34.6576 38.6378 35 39.4998 35Z" fill="url(#paint3_radial_10_93)"/>
</g>
<g filter="url(#filter2_f_10_93)">
<path d="M39.4998 33.778C39.7717 33.7865 40.0424 33.7404 40.296 33.6422C40.5497 33.5441 40.781 33.396 40.9763 33.2068C41.1716 33.0175 41.3268 32.791 41.4329 32.5405C41.5389 32.2901 41.5935 32.0209 41.5935 31.749C41.5935 31.477 41.5389 31.2079 41.4329 30.9575C41.3268 30.707 41.1716 30.4805 40.9763 30.2912C40.781 30.102 40.5497 29.9539 40.296 29.8558C40.0424 29.7576 39.7717 29.7115 39.4998 29.72C38.9694 29.7318 38.4646 29.9508 38.0936 30.3301C37.7226 30.7094 37.5149 31.2189 37.5149 31.7495C37.5149 32.2801 37.7226 32.7896 38.0936 33.1689C38.4646 33.5482 38.9694 33.7672 39.4998 33.779V33.778Z" fill="url(#paint4_radial_10_93)"/>
<path d="M39.4998 33.778C39.7717 33.7865 40.0424 33.7404 40.296 33.6422C40.5497 33.5441 40.781 33.396 40.9763 33.2068C41.1716 33.0175 41.3268 32.791 41.4329 32.5405C41.5389 32.2901 41.5935 32.0209 41.5935 31.749C41.5935 31.477 41.5389 31.2079 41.4329 30.9575C41.3268 30.707 41.1716 30.4805 40.9763 30.2912C40.781 30.102 40.5497 29.9539 40.296 29.8558C40.0424 29.7576 39.7717 29.7115 39.4998 29.72C38.9694 29.7318 38.4646 29.9508 38.0936 30.3301C37.7226 30.7094 37.5149 31.2189 37.5149 31.7495C37.5149 32.2801 37.7226 32.7896 38.0936 33.1689C38.4646 33.5482 38.9694 33.7672 39.4998 33.779V33.778Z" fill="url(#paint5_radial_10_93)"/>
</g>
<g filter="url(#filter3_f_10_93)">
<path d="M20.4998 33.778C20.7717 33.7865 21.0424 33.7404 21.296 33.6422C21.5497 33.5441 21.781 33.396 21.9763 33.2068C22.1716 33.0175 22.3268 32.791 22.4329 32.5405C22.5389 32.2901 22.5935 32.0209 22.5935 31.749C22.5935 31.477 22.5389 31.2079 22.4329 30.9575C22.3268 30.707 22.1716 30.4805 21.9763 30.2912C21.781 30.102 21.5497 29.9539 21.296 29.8558C21.0424 29.7576 20.7717 29.7115 20.4998 29.72C19.9694 29.7318 19.4646 29.9508 19.0936 30.3301C18.7226 30.7094 18.5149 31.2189 18.5149 31.7495C18.5149 32.2801 18.7226 32.7896 19.0936 33.1689C19.4646 33.5482 19.9694 33.7672 20.4998 33.779V33.778Z" fill="url(#paint6_linear_10_93)"/>
</g>
<g filter="url(#filter4_i_10_93)">
<path d="M37.6288 35.22L43.6288 39.25C44.1788 39.62 44.2188 40.42 43.7088 40.85L40.5188 43.66C39.7988 44.3 38.6688 44 38.3388 43.1L36.0188 36.61L37.6288 35.22Z" fill="#262229"/>
<path d="M37.6288 35.22L43.6288 39.25C44.1788 39.62 44.2188 40.42 43.7088 40.85L40.5188 43.66C39.7988 44.3 38.6688 44 38.3388 43.1L36.0188 36.61L37.6288 35.22Z" fill="url(#paint7_linear_10_93)"/>
<path d="M37.6288 35.22L43.6288 39.25C44.1788 39.62 44.2188 40.42 43.7088 40.85L40.5188 43.66C39.7988 44.3 38.6688 44 38.3388 43.1L36.0188 36.61L37.6288 35.22Z" fill="url(#paint8_radial_10_93)"/>
<path d="M37.6288 35.22L43.6288 39.25C44.1788 39.62 44.2188 40.42 43.7088 40.85L40.5188 43.66C39.7988 44.3 38.6688 44 38.3388 43.1L36.0188 36.61L37.6288 35.22Z" fill="url(#paint9_radial_10_93)"/>
<path d="M37.6288 35.22L43.6288 39.25C44.1788 39.62 44.2188 40.42 43.7088 40.85L40.5188 43.66C39.7988 44.3 38.6688 44 38.3388 43.1L36.0188 36.61L37.6288 35.22Z" fill="url(#paint10_radial_10_93)"/>
</g>
<g filter="url(#filter5_i_10_93)">
<path d="M22.4388 35.22L16.4388 39.25C15.8888 39.62 15.8488 40.42 16.3588 40.85L19.5488 43.66C20.2688 44.3 21.3988 44 21.7288 43.1L24.0488 36.61L22.4388 35.22Z" fill="#221F26"/>
<path d="M22.4388 35.22L16.4388 39.25C15.8888 39.62 15.8488 40.42 16.3588 40.85L19.5488 43.66C20.2688 44.3 21.3988 44 21.7288 43.1L24.0488 36.61L22.4388 35.22Z" fill="url(#paint11_radial_10_93)"/>
<path d="M22.4388 35.22L16.4388 39.25C15.8888 39.62 15.8488 40.42 16.3588 40.85L19.5488 43.66C20.2688 44.3 21.3988 44 21.7288 43.1L24.0488 36.61L22.4388 35.22Z" fill="url(#paint12_linear_10_93)"/>
</g>
<g filter="url(#filter6_i_10_93)">
<path d="M32.8588 26.9999C29.2588 26.3929 26.2768 24.6189 24.8888 21.8569C24.5058 24.1729 23.4328 26.3899 20.5668 27.6249C20.2338 27.7679 19.8988 27.9469 19.8428 28.5319L20.0358 34.2149C20.2758 40.0739 24.6598 43.9999 29.9998 43.9999C35.3308 43.9999 39.7258 40.0739 39.9648 34.2149L40.1748 28.0109C40.1804 27.8915 40.1414 27.7743 40.0652 27.6822C39.989 27.5901 39.8811 27.5297 39.7628 27.5129C38.9128 27.3999 37.7868 27.3419 36.6058 27.2809C35.3258 27.2149 33.9818 27.1449 32.8588 26.9999Z" fill="url(#paint13_radial_10_93)"/>
<path d="M32.8588 26.9999C29.2588 26.3929 26.2768 24.6189 24.8888 21.8569C24.5058 24.1729 23.4328 26.3899 20.5668 27.6249C20.2338 27.7679 19.8988 27.9469 19.8428 28.5319L20.0358 34.2149C20.2758 40.0739 24.6598 43.9999 29.9998 43.9999C35.3308 43.9999 39.7258 40.0739 39.9648 34.2149L40.1748 28.0109C40.1804 27.8915 40.1414 27.7743 40.0652 27.6822C39.989 27.5901 39.8811 27.5297 39.7628 27.5129C38.9128 27.3999 37.7868 27.3419 36.6058 27.2809C35.3258 27.2149 33.9818 27.1449 32.8588 26.9999Z" fill="url(#paint14_radial_10_93)"/>
<path d="M32.8588 26.9999C29.2588 26.3929 26.2768 24.6189 24.8888 21.8569C24.5058 24.1729 23.4328 26.3899 20.5668 27.6249C20.2338 27.7679 19.8988 27.9469 19.8428 28.5319L20.0358 34.2149C20.2758 40.0739 24.6598 43.9999 29.9998 43.9999C35.3308 43.9999 39.7258 40.0739 39.9648 34.2149L40.1748 28.0109C40.1804 27.8915 40.1414 27.7743 40.0652 27.6822C39.989 27.5901 39.8811 27.5297 39.7628 27.5129C38.9128 27.3999 37.7868 27.3419 36.6058 27.2809C35.3258 27.2149 33.9818 27.1449 32.8588 26.9999Z" fill="url(#paint15_radial_10_93)"/>
<path d="M32.8588 26.9999C29.2588 26.3929 26.2768 24.6189 24.8888 21.8569C24.5058 24.1729 23.4328 26.3899 20.5668 27.6249C20.2338 27.7679 19.8988 27.9469 19.8428 28.5319L20.0358 34.2149C20.2758 40.0739 24.6598 43.9999 29.9998 43.9999C35.3308 43.9999 39.7258 40.0739 39.9648 34.2149L40.1748 28.0109C40.1804 27.8915 40.1414 27.7743 40.0652 27.6822C39.989 27.5901 39.8811 27.5297 39.7628 27.5129C38.9128 27.3999 37.7868 27.3419 36.6058 27.2809C35.3258 27.2149 33.9818 27.1449 32.8588 26.9999Z" fill="url(#paint16_radial_10_93)"/>
</g>
<path d="M32.8588 26.9999C29.2588 26.3929 26.2768 24.6189 24.8888 21.8569C24.5058 24.1729 23.4328 26.3899 20.5668 27.6249C20.2338 27.7679 19.8988 27.9469 19.8428 28.5319L20.0358 34.2149C20.2758 40.0739 24.6598 43.9999 29.9998 43.9999C35.3308 43.9999 39.7258 40.0739 39.9648 34.2149L40.1748 28.0109C40.1804 27.8915 40.1414 27.7743 40.0652 27.6822C39.989 27.5901 39.8811 27.5297 39.7628 27.5129C38.9128 27.3999 37.7868 27.3419 36.6058 27.2809C35.3258 27.2149 33.9818 27.1449 32.8588 26.9999Z" fill="url(#paint17_radial_10_93)"/>
<path d="M32.8588 26.9999C29.2588 26.3929 26.2768 24.6189 24.8888 21.8569C24.5058 24.1729 23.4328 26.3899 20.5668 27.6249C20.2338 27.7679 19.8988 27.9469 19.8428 28.5319L20.0358 34.2149C20.2758 40.0739 24.6598 43.9999 29.9998 43.9999C35.3308 43.9999 39.7258 40.0739 39.9648 34.2149L40.1748 28.0109C40.1804 27.8915 40.1414 27.7743 40.0652 27.6822C39.989 27.5901 39.8811 27.5297 39.7628 27.5129C38.9128 27.3999 37.7868 27.3419 36.6058 27.2809C35.3258 27.2149 33.9818 27.1449 32.8588 26.9999Z" fill="url(#paint18_radial_10_93)"/>
<path d="M32.8588 26.9999C29.2588 26.3929 26.2768 24.6189 24.8888 21.8569C24.5058 24.1729 23.4328 26.3899 20.5668 27.6249C20.2338 27.7679 19.8988 27.9469 19.8428 28.5319L20.0358 34.2149C20.2758 40.0739 24.6598 43.9999 29.9998 43.9999C35.3308 43.9999 39.7258 40.0739 39.9648 34.2149L40.1748 28.0109C40.1804 27.8915 40.1414 27.7743 40.0652 27.6822C39.989 27.5901 39.8811 27.5297 39.7628 27.5129C38.9128 27.3999 37.7868 27.3419 36.6058 27.2809C35.3258 27.2149 33.9818 27.1449 32.8588 26.9999Z" fill="url(#paint19_radial_10_93)"/>
<path d="M27.0218 36.596C26.9474 36.5563 26.862 36.5425 26.7789 36.5568C26.6958 36.571 26.6198 36.6126 26.563 36.6749C26.5062 36.7372 26.4718 36.8167 26.4653 36.9008C26.4587 36.9848 26.4804 37.0687 26.5268 37.139L26.5688 37.112L27.0218 36.596Z" fill="#2A0219" stroke="url(#paint20_linear_10_93)" stroke-width="0.1"/>
<g filter="url(#filter7_i_10_93)">
<path d="M23.6108 28.0901C24.2008 27.8801 24.9808 27.7751 26.0408 27.8751" stroke="#110A18" stroke-width="1.1" stroke-miterlimit="10" stroke-linecap="round" stroke-linejoin="round"/>
</g>
<g filter="url(#filter8_f_10_93)">
<path d="M23.6108 28.0901C24.2008 27.8801 24.9808 27.7751 26.0408 27.8751" stroke="url(#paint21_linear_10_93)" stroke-width="0.5" stroke-miterlimit="10" stroke-linecap="round" stroke-linejoin="round"/>
</g>
<g filter="url(#filter9_i_10_93)">
<path d="M36.3897 28.1091C35.7997 27.8991 34.9797 27.7491 33.9197 27.8491" stroke="#110A18" stroke-width="1.1" stroke-miterlimit="10" stroke-linecap="round" stroke-linejoin="round"/>
</g>
<g filter="url(#filter10_f_10_93)">
<path d="M36.3897 28.1091C35.7997 27.8991 34.9797 27.7491 33.9197 27.8491" stroke="url(#paint22_linear_10_93)" stroke-width="0.5" stroke-miterlimit="10" stroke-linecap="round" stroke-linejoin="round"/>
</g>
<g filter="url(#filter11_i_10_93)">
<path d="M18.0288 25.06C18.0288 21.16 21.1888 18 25.0888 18V18.97C25.0888 22.15 24.6288 25.875 20.5668 27.625C20.2278 27.771 19.8868 27.953 19.8408 28.562C19.2388 28.702 18.5508 29.039 18.0458 29.619C18.0343 29.4559 18.0287 29.2925 18.0288 29.129V25.059V25.06Z" fill="url(#paint23_radial_10_93)"/>
</g>
<path d="M18.0288 25.06C18.0288 21.16 21.1888 18 25.0888 18V18.97C25.0888 22.15 24.6288 25.875 20.5668 27.625C20.2278 27.771 19.8868 27.953 19.8408 28.562C19.2388 28.702 18.5508 29.039 18.0458 29.619C18.0343 29.4559 18.0287 29.2925 18.0288 29.129V25.059V25.06Z" fill="url(#paint24_radial_10_93)"/>
<g filter="url(#filter12_f_10_93)">
<path d="M31.3217 35.0591C31.3452 35.1596 31.3456 35.2641 31.3227 35.3648C31.2999 35.4655 31.2544 35.5596 31.1897 35.6401C31.0019 35.8805 30.7575 36.0706 30.4783 36.1936C30.1991 36.3166 29.8939 36.3687 29.5897 36.3451C29.2849 36.3191 28.991 36.2191 28.7336 36.0537C28.4762 35.8883 28.263 35.6625 28.1127 35.3961C28.0466 35.2789 28.0164 35.1448 28.0259 35.0106C28.0353 34.8764 28.0839 34.7479 28.1657 34.6411L29.4717 32.2141C29.5162 32.1309 29.5839 32.0625 29.6667 32.0172C29.7494 31.972 29.8436 31.9518 29.9376 31.9593C30.0316 31.9667 30.1214 32.0014 30.1961 32.0591C30.2707 32.1168 30.3268 32.1949 30.3577 32.2841L31.2907 34.9611C31.297 34.9769 31.3026 34.9929 31.3077 35.0091L31.3257 35.0591H31.3217Z" fill="url(#paint25_linear_10_93)"/>
</g>
<g filter="url(#filter13_f_10_93)">
<path d="M31.7147 34.506C31.7476 34.6094 31.7566 34.7189 31.741 34.8263C31.7254 34.9337 31.6857 35.0362 31.6247 35.126C31.2747 35.654 30.6747 36 30.0047 36C29.6825 35.9981 29.3656 35.9175 29.0816 35.7654C28.7975 35.6133 28.5549 35.3941 28.3747 35.127C28.2956 35.0094 28.2527 34.8712 28.2515 34.7295C28.2502 34.5878 28.2907 34.4489 28.3677 34.33L29.5377 31.673C29.5775 31.5823 29.6429 31.5051 29.7258 31.4509C29.8088 31.3968 29.9057 31.3679 30.0047 31.3679C30.1038 31.3679 30.2007 31.3968 30.2836 31.4509C30.3666 31.5051 30.4319 31.5823 30.4717 31.673L31.6747 34.405C31.6823 34.4214 31.6893 34.438 31.6957 34.455L31.7187 34.506H31.7147Z" fill="#492F30"/>
<path d="M31.7147 34.506C31.7476 34.6094 31.7566 34.7189 31.741 34.8263C31.7254 34.9337 31.6857 35.0362 31.6247 35.126C31.2747 35.654 30.6747 36 30.0047 36C29.6825 35.9981 29.3656 35.9175 29.0816 35.7654C28.7975 35.6133 28.5549 35.3941 28.3747 35.127C28.2956 35.0094 28.2527 34.8712 28.2515 34.7295C28.2502 34.5878 28.2907 34.4489 28.3677 34.33L29.5377 31.673C29.5775 31.5823 29.6429 31.5051 29.7258 31.4509C29.8088 31.3968 29.9057 31.3679 30.0047 31.3679C30.1038 31.3679 30.2007 31.3968 30.2836 31.4509C30.3666 31.5051 30.4319 31.5823 30.4717 31.673L31.6747 34.405C31.6823 34.4214 31.6893 34.438 31.6957 34.455L31.7187 34.506H31.7147Z" fill="url(#paint26_radial_10_93)"/>
<path d="M31.7147 34.506C31.7476 34.6094 31.7566 34.7189 31.741 34.8263C31.7254 34.9337 31.6857 35.0362 31.6247 35.126C31.2747 35.654 30.6747 36 30.0047 36C29.6825 35.9981 29.3656 35.9175 29.0816 35.7654C28.7975 35.6133 28.5549 35.3941 28.3747 35.127C28.2956 35.0094 28.2527 34.8712 28.2515 34.7295C28.2502 34.5878 28.2907 34.4489 28.3677 34.33L29.5377 31.673C29.5775 31.5823 29.6429 31.5051 29.7258 31.4509C29.8088 31.3968 29.9057 31.3679 30.0047 31.3679C30.1038 31.3679 30.2007 31.3968 30.2836 31.4509C30.3666 31.5051 30.4319 31.5823 30.4717 31.673L31.6747 34.405C31.6823 34.4214 31.6893 34.438 31.6957 34.455L31.7187 34.506H31.7147Z" fill="url(#paint27_radial_10_93)"/>
<path d="M31.7147 34.506C31.7476 34.6094 31.7566 34.7189 31.741 34.8263C31.7254 34.9337 31.6857 35.0362 31.6247 35.126C31.2747 35.654 30.6747 36 30.0047 36C29.6825 35.9981 29.3656 35.9175 29.0816 35.7654C28.7975 35.6133 28.5549 35.3941 28.3747 35.127C28.2956 35.0094 28.2527 34.8712 28.2515 34.7295C28.2502 34.5878 28.2907 34.4489 28.3677 34.33L29.5377 31.673C29.5775 31.5823 29.6429 31.5051 29.7258 31.4509C29.8088 31.3968 29.9057 31.3679 30.0047 31.3679C30.1038 31.3679 30.2007 31.3968 30.2836 31.4509C30.3666 31.5051 30.4319 31.5823 30.4717 31.673L31.6747 34.405C31.6823 34.4214 31.6893 34.438 31.6957 34.455L31.7187 34.506H31.7147Z" fill="url(#paint28_linear_10_93)"/>
<path d="M31.7147 34.506C31.7476 34.6094 31.7566 34.7189 31.741 34.8263C31.7254 34.9337 31.6857 35.0362 31.6247 35.126C31.2747 35.654 30.6747 36 30.0047 36C29.6825 35.9981 29.3656 35.9175 29.0816 35.7654C28.7975 35.6133 28.5549 35.3941 28.3747 35.127C28.2956 35.0094 28.2527 34.8712 28.2515 34.7295C28.2502 34.5878 28.2907 34.4489 28.3677 34.33L29.5377 31.673C29.5775 31.5823 29.6429 31.5051 29.7258 31.4509C29.8088 31.3968 29.9057 31.3679 30.0047 31.3679C30.1038 31.3679 30.2007 31.3968 30.2836 31.4509C30.3666 31.5051 30.4319 31.5823 30.4717 31.673L31.6747 34.405C31.6823 34.4214 31.6893 34.438 31.6957 34.455L31.7187 34.506H31.7147Z" fill="url(#paint29_linear_10_93)"/>
</g>
<path d="M31.7147 34.506C31.7476 34.6094 31.7566 34.7189 31.741 34.8263C31.7254 34.9337 31.6857 35.0362 31.6247 35.126C31.2747 35.654 30.6747 36 30.0047 36C29.6825 35.9981 29.3656 35.9175 29.0816 35.7654C28.7975 35.6133 28.5549 35.3941 28.3747 35.127C28.2956 35.0094 28.2527 34.8712 28.2515 34.7295C28.2502 34.5878 28.2907 34.4489 28.3677 34.33L29.5377 31.673C29.5775 31.5823 29.6429 31.5051 29.7258 31.4509C29.8088 31.3968 29.9057 31.3679 30.0047 31.3679C30.1038 31.3679 30.2007 31.3968 30.2836 31.4509C30.3666 31.5051 30.4319 31.5823 30.4717 31.673L31.6747 34.405C31.6823 34.4214 31.6893 34.438 31.6957 34.455L31.7187 34.506H31.7147Z" fill="url(#paint30_radial_10_93)"/>
<path d="M31.7147 34.506C31.7476 34.6094 31.7566 34.7189 31.741 34.8263C31.7254 34.9337 31.6857 35.0362 31.6247 35.126C31.2747 35.654 30.6747 36 30.0047 36C29.6825 35.9981 29.3656 35.9175 29.0816 35.7654C28.7975 35.6133 28.5549 35.3941 28.3747 35.127C28.2956 35.0094 28.2527 34.8712 28.2515 34.7295C28.2502 34.5878 28.2907 34.4489 28.3677 34.33L29.5377 31.673C29.5775 31.5823 29.6429 31.5051 29.7258 31.4509C29.8088 31.3968 29.9057 31.3679 30.0047 31.3679C30.1038 31.3679 30.2007 31.3968 30.2836 31.4509C30.3666 31.5051 30.4319 31.5823 30.4717 31.673L31.6747 34.405C31.6823 34.4214 31.6893 34.438 31.6957 34.455L31.7187 34.506H31.7147Z" fill="url(#paint31_linear_10_93)"/>
<g filter="url(#filter14_i_10_93)">
<path d="M32.8588 27C27.8548 26.156 24.0488 23.06 24.0488 18.19C24.0488 16.98 25.0288 16 26.2288 16H32.0388C37.5588 16 42.0388 20.48 42.0388 26V29.72C41.5651 29.1273 40.899 28.7191 40.1558 28.566L40.1758 28.011C40.1815 27.8914 40.1422 27.7741 40.0658 27.682C39.9894 27.5898 39.8814 27.5296 39.7628 27.513C38.9128 27.4 37.7868 27.342 36.6058 27.281C35.3258 27.215 33.9818 27.145 32.8588 27Z" fill="#32272A"/>
<path d="M32.8588 27C27.8548 26.156 24.0488 23.06 24.0488 18.19C24.0488 16.98 25.0288 16 26.2288 16H32.0388C37.5588 16 42.0388 20.48 42.0388 26V29.72C41.5651 29.1273 40.899 28.7191 40.1558 28.566L40.1758 28.011C40.1815 27.8914 40.1422 27.7741 40.0658 27.682C39.9894 27.5898 39.8814 27.5296 39.7628 27.513C38.9128 27.4 37.7868 27.342 36.6058 27.281C35.3258 27.215 33.9818 27.145 32.8588 27Z" fill="url(#paint32_radial_10_93)"/>
<path d="M32.8588 27C27.8548 26.156 24.0488 23.06 24.0488 18.19C24.0488 16.98 25.0288 16 26.2288 16H32.0388C37.5588 16 42.0388 20.48 42.0388 26V29.72C41.5651 29.1273 40.899 28.7191 40.1558 28.566L40.1758 28.011C40.1815 27.8914 40.1422 27.7741 40.0658 27.682C39.9894 27.5898 39.8814 27.5296 39.7628 27.513C38.9128 27.4 37.7868 27.342 36.6058 27.281C35.3258 27.215 33.9818 27.145 32.8588 27Z" fill="url(#paint33_radial_10_93)"/>
</g>
<path d="M34.8068 30.1079C35.4995 30.1081 36.1722 30.3399 36.718 30.7664C37.2638 31.193 37.6512 31.7898 37.8188 32.4619C37.8413 32.5521 37.843 32.6463 37.8236 32.7372C37.8042 32.8281 37.7643 32.9134 37.7068 32.9866C37.6494 33.0597 37.5761 33.1187 37.4923 33.1592C37.4086 33.1996 37.3168 33.2204 37.2238 33.2199H32.2638C32.1885 33.2203 32.114 33.204 32.0457 33.1723C31.9773 33.1406 31.9169 33.0942 31.8685 33.0364C31.8202 32.9786 31.7852 32.9109 31.7661 32.838C31.7469 32.7652 31.7441 32.689 31.7578 32.6149C31.897 31.9086 32.2771 31.2725 32.8332 30.8152C33.3893 30.358 34.0869 30.108 34.8068 30.1079Z" fill="white"/>
<path d="M34.3468 30.7119C34.6519 30.7122 34.9528 30.7828 35.2262 30.9182C35.4996 31.0537 35.738 31.2504 35.923 31.4931C36.108 31.7357 36.2345 32.0177 36.2927 32.3172C36.351 32.6167 36.3393 32.9256 36.2588 33.2199H32.4258C32.3791 33.0495 32.3549 32.8736 32.3538 32.6969C32.3538 31.6049 33.2468 30.7119 34.3468 30.7119Z" fill="url(#paint34_radial_10_93)"/>
<path d="M33.2098 32.6961C33.2098 32.0661 33.7148 31.5601 34.3468 31.5601C34.9778 31.5601 35.4828 32.0651 35.4828 32.6961C35.4828 32.8861 35.4378 33.0661 35.3568 33.2201H33.3458C33.2547 33.061 33.2077 32.8804 33.2098 32.6971V32.6961Z" fill="black"/>
<g filter="url(#filter15_f_10_93)">
<path d="M34.2007 31.1319C34.3417 31.3209 34.0467 31.5519 33.7107 31.8019C33.3747 32.0539 33.1257 32.2299 32.9837 32.0419C32.8427 31.8519 33.0007 31.4949 33.3367 31.2439C33.6727 30.9929 34.0597 30.9429 34.2007 31.1319Z" fill="#C7A7A3"/>
<path d="M34.2007 31.1319C34.3417 31.3209 34.0467 31.5519 33.7107 31.8019C33.3747 32.0539 33.1257 32.2299 32.9837 32.0419C32.8427 31.8519 33.0007 31.4949 33.3367 31.2439C33.6727 30.9929 34.0597 30.9429 34.2007 31.1319Z" fill="url(#paint35_radial_10_93)"/>
</g>
<g filter="url(#filter16_f_10_93)">
<path d="M36.1137 32.435C36.055 32.0465 35.8751 31.6864 35.5997 31.406L35.0217 32.041L35.2817 32.548L36.1137 32.435Z" fill="url(#paint36_linear_10_93)"/>
</g>
<path d="M25.2257 30.1299C24.5342 30.1301 23.8626 30.3615 23.3177 30.7873C22.7729 31.2131 22.386 31.8089 22.2187 32.4799C22.1963 32.5698 22.1948 32.6637 22.2142 32.7544C22.2336 32.845 22.2735 32.93 22.3308 33.0028C22.3882 33.0757 22.4614 33.1345 22.5449 33.1747C22.6284 33.2149 22.72 33.2355 22.8127 33.2349H27.7637C27.8388 33.2353 27.913 33.2191 27.9811 33.1874C28.0492 33.1558 28.1094 33.1096 28.1576 33.052C28.2057 32.9944 28.2406 32.9268 28.2596 32.8542C28.2786 32.7816 28.2814 32.7057 28.2677 32.6319C28.1274 31.9278 27.7478 31.294 27.1933 30.8379C26.6388 30.3819 25.9436 30.1317 25.2257 30.1299Z" fill="white"/>
<path d="M25.6849 30.7329C25.3804 30.7331 25.0801 30.8034 24.8072 30.9385C24.5344 31.0736 24.2964 31.2698 24.1117 31.5119C23.927 31.7539 23.8006 32.0353 23.7424 32.3341C23.6841 32.633 23.6956 32.9412 23.7759 33.2349H27.6019C27.6484 33.0648 27.6726 32.8893 27.6739 32.7129C27.6702 32.1872 27.459 31.6842 27.0863 31.3134C26.7136 30.9426 26.2096 30.734 25.6839 30.7329H25.6849Z" fill="url(#paint37_radial_10_93)"/>
<path d="M26.8188 32.7131C26.8193 32.564 26.7903 32.4163 26.7335 32.2785C26.6767 32.1407 26.5932 32.0155 26.4878 31.9101C26.3824 31.8047 26.2572 31.7212 26.1194 31.6644C25.9816 31.6076 25.8339 31.5786 25.6848 31.5791C25.5357 31.5786 25.388 31.6076 25.2502 31.6644C25.1124 31.7212 24.9872 31.8047 24.8818 31.9101C24.7763 32.0155 24.6928 32.1407 24.636 32.2785C24.5792 32.4163 24.5503 32.564 24.5508 32.7131C24.5508 32.9031 24.5958 33.0831 24.6768 33.2351H26.6838C26.7648 33.0821 26.8188 32.9021 26.8188 32.7131Z" fill="black"/>
<g filter="url(#filter17_f_10_93)">
<path d="M27.4939 32.4799C27.4939 31.8399 26.9739 31.4139 26.8329 31.2849L26.1929 31.9039L26.5869 32.7059L27.4939 32.4799Z" fill="url(#paint38_linear_10_93)"/>
</g>
<g filter="url(#filter18_f_10_93)">
<path d="M25.2924 31.9658C25.7145 31.7422 25.9649 31.3876 25.8517 31.1738C25.7384 30.9601 25.3044 30.9681 24.8823 31.1917C24.4601 31.4154 24.2097 31.77 24.323 31.9837C24.4362 32.1975 24.8702 32.1895 25.2924 31.9658Z" fill="#C7A7A3" fill-opacity="0.9"/>
<path d="M25.2924 31.9658C25.7145 31.7422 25.9649 31.3876 25.8517 31.1738C25.7384 30.9601 25.3044 30.9681 24.8823 31.1917C24.4601 31.4154 24.2097 31.77 24.323 31.9837C24.4362 32.1975 24.8702 32.1895 25.2924 31.9658Z" fill="url(#paint39_radial_10_93)"/>
</g>
<g filter="url(#filter19_f_10_93)">
<path d="M40.9657 26.313C30.1217 27.146 25.6467 21.903 25.6467 16.875H31.8517C39.1427 16.875 40.9657 23.167 40.9657 26.313Z" fill="url(#paint40_radial_10_93)"/>
</g>
<g filter="url(#filter20_f_10_93)">
<path d="M23.5427 18.9519C22.2197 19.3819 19.4677 21.1279 19.0427 24.6699" stroke="url(#paint41_linear_10_93)" stroke-width="0.4" stroke-linecap="round"/>
</g>
<defs>
<filter id="filter0_i_10_93" x="17.2498" y="28.1" width="6.5" height="6.9" filterUnits="userSpaceOnUse" color-interpolation-filters="sRGB">
<feFlood flood-opacity="0" result="BackgroundImageFix"/>
<feBlend mode="normal" in="SourceGraphic" in2="BackgroundImageFix" result="shape"/>
<feColorMatrix in="SourceAlpha" type="matrix" values="0 0 0 0 0 0 0 0 0 0 0 0 0 0 0 0 0 0 127 0" result="hardAlpha"/>
<feOffset dy="-0.4"/>
<feGaussianBlur stdDeviation="0.2"/>
<feComposite in2="hardAlpha" operator="arithmetic" k2="-1" k3="1"/>
<feColorMatrix type="matrix" values="0 0 0 0 0.188235 0 0 0 0 0.113725 0 0 0 0 0.168627 0 0 0 1 0"/>
<feBlend mode="normal" in2="shape" result="effect1_innerShadow_10_93"/>
</filter>
<filter id="filter1_i_10_93" x="36.2498" y="28.25" width="6.7" height="6.75" filterUnits="userSpaceOnUse" color-interpolation-filters="sRGB">
<feFlood flood-opacity="0" result="BackgroundImageFix"/>
<feBlend mode="normal" in="SourceGraphic" in2="BackgroundImageFix" result="shape"/>
<feColorMatrix in="SourceAlpha" type="matrix" values="0 0 0 0 0 0 0 0 0 0 0 0 0 0 0 0 0 0 127 0" result="hardAlpha"/>
<feOffset dx="0.2" dy="-0.25"/>
<feGaussianBlur stdDeviation="0.25"/>
<feComposite in2="hardAlpha" operator="arithmetic" k2="-1" k3="1"/>
<feColorMatrix type="matrix" values="0 0 0 0 0.207843 0 0 0 0 0.12549 0 0 0 0 0.164706 0 0 0 1 0"/>
<feBlend mode="normal" in2="shape" result="effect1_innerShadow_10_93"/>
</filter>
<filter id="filter2_f_10_93" x="37.0149" y="29.219" width="5.07861" height="5.06006" filterUnits="userSpaceOnUse" color-interpolation-filters="sRGB">
<feFlood flood-opacity="0" result="BackgroundImageFix"/>
<feBlend mode="normal" in="SourceGraphic" in2="BackgroundImageFix" result="shape"/>
<feGaussianBlur stdDeviation="0.25" result="effect1_foregroundBlur_10_93"/>
</filter>
<filter id="filter3_f_10_93" x="18.0149" y="29.219" width="5.07861" height="5.06006" filterUnits="userSpaceOnUse" color-interpolation-filters="sRGB">
<feFlood flood-opacity="0" result="BackgroundImageFix"/>
<feBlend mode="normal" in="SourceGraphic" in2="BackgroundImageFix" result="shape"/>
<feGaussianBlur stdDeviation="0.25" result="effect1_foregroundBlur_10_93"/>
</filter>
<filter id="filter4_i_10_93" x="36.0188" y="34.42" width="8.69883" height="9.58174" filterUnits="userSpaceOnUse" color-interpolation-filters="sRGB">
<feFlood flood-opacity="0" result="BackgroundImageFix"/>
<feBlend mode="normal" in="SourceGraphic" in2="BackgroundImageFix" result="shape"/>
<feColorMatrix in="SourceAlpha" type="matrix" values="0 0 0 0 0 0 0 0 0 0 0 0 0 0 0 0 0 0 127 0" result="hardAlpha"/>
<feOffset dx="0.65" dy="-0.8"/>
<feGaussianBlur stdDeviation="0.75"/>
<feComposite in2="hardAlpha" operator="arithmetic" k2="-1" k3="1"/>
<feColorMatrix type="matrix" values="0 0 0 0 0.113725 0 0 0 0 0.0666667 0 0 0 0 0.152941 0 0 0 1 0"/>
<feBlend mode="normal" in2="shape" result="effect1_innerShadow_10_93"/>
</filter>
<filter id="filter5_i_10_93" x="15.75" y="34.47" width="8.29883" height="9.53174" filterUnits="userSpaceOnUse" color-interpolation-filters="sRGB">
<feFlood flood-opacity="0" result="BackgroundImageFix"/>
<feBlend mode="normal" in="SourceGraphic" in2="BackgroundImageFix" result="shape"/>
<feColorMatrix in="SourceAlpha" type="matrix" values="0 0 0 0 0 0 0 0 0 0 0 0 0 0 0 0 0 0 127 0" result="hardAlpha"/>
<feOffset dx="-0.25" dy="-0.75"/>
<feGaussianBlur stdDeviation="0.5"/>
<feComposite in2="hardAlpha" operator="arithmetic" k2="-1" k3="1"/>
<feColorMatrix type="matrix" values="0 0 0 0 0.0941176 0 0 0 0 0.054902 0 0 0 0 0.12549 0 0 0 1 0"/>
<feBlend mode="normal" in2="shape" result="effect1_innerShadow_10_93"/>
</filter>
<filter id="filter6_i_10_93" x="19.8428" y="21.8569" width="20.3325" height="22.5431" filterUnits="userSpaceOnUse" color-interpolation-filters="sRGB">
<feFlood flood-opacity="0" result="BackgroundImageFix"/>
<feBlend mode="normal" in="SourceGraphic" in2="BackgroundImageFix" result="shape"/>
<feColorMatrix in="SourceAlpha" type="matrix" values="0 0 0 0 0 0 0 0 0 0 0 0 0 0 0 0 0 0 127 0" result="hardAlpha"/>
<feOffset dy="0.4"/>
<feGaussianBlur stdDeviation="0.3"/>
<feComposite in2="hardAlpha" operator="arithmetic" k2="-1" k3="1"/>
<feColorMatrix type="matrix" values="0 0 0 0 0.113725 0 0 0 0 0.0509804 0 0 0 0 0.0588235 0 0 0 1 0"/>
<feBlend mode="normal" in2="shape" result="effect1_innerShadow_10_93"/>
</filter>
<filter id="filter7_i_10_93" x="23.0608" y="27.0869" width="3.73003" height="1.55327" filterUnits="userSpaceOnUse" color-interpolation-filters="sRGB">
<feFlood flood-opacity="0" result="BackgroundImageFix"/>
<feBlend mode="normal" in="SourceGraphic" in2="BackgroundImageFix" result="shape"/>
<feColorMatrix in="SourceAlpha" type="matrix" values="0 0 0 0 0 0 0 0 0 0 0 0 0 0 0 0 0 0 127 0" result="hardAlpha"/>
<feOffset dx="0.2" dy="-0.2"/>
<feGaussianBlur stdDeviation="0.1"/>
<feComposite in2="hardAlpha" operator="arithmetic" k2="-1" k3="1"/>
<feColorMatrix type="matrix" values="0 0 0 0 0.0431373 0 0 0 0 0.0196078 0 0 0 0 0.0431373 0 0 0 1 0"/>
<feBlend mode="normal" in2="shape" result="effect1_innerShadow_10_93"/>
</filter>
<filter id="filter8_f_10_93" x="22.8608" y="27.0869" width="3.92993" height="1.75317" filterUnits="userSpaceOnUse" color-interpolation-filters="sRGB">
<feFlood flood-opacity="0" result="BackgroundImageFix"/>
<feBlend mode="normal" in="SourceGraphic" in2="BackgroundImageFix" result="shape"/>
<feGaussianBlur stdDeviation="0.25" result="effect1_foregroundBlur_10_93"/>
</filter>
<filter id="filter9_i_10_93" x="33.3696" y="27.0673" width="3.77031" height="1.59185" filterUnits="userSpaceOnUse" color-interpolation-filters="sRGB">
<feFlood flood-opacity="0" result="BackgroundImageFix"/>
<feBlend mode="normal" in="SourceGraphic" in2="BackgroundImageFix" result="shape"/>
<feColorMatrix in="SourceAlpha" type="matrix" values="0 0 0 0 0 0 0 0 0 0 0 0 0 0 0 0 0 0 127 0" result="hardAlpha"/>
<feOffset dx="0.2" dy="-0.2"/>
<feGaussianBlur stdDeviation="0.1"/>
<feComposite in2="hardAlpha" operator="arithmetic" k2="-1" k3="1"/>
<feColorMatrix type="matrix" values="0 0 0 0 0.0431373 0 0 0 0 0.0196078 0 0 0 0 0.0431373 0 0 0 1 0"/>
<feBlend mode="normal" in2="shape" result="effect1_innerShadow_10_93"/>
</filter>
<filter id="filter10_f_10_93" x="33.1697" y="27.0674" width="3.96997" height="1.79175" filterUnits="userSpaceOnUse" color-interpolation-filters="sRGB">
<feFlood flood-opacity="0" result="BackgroundImageFix"/>
<feBlend mode="normal" in="SourceGraphic" in2="BackgroundImageFix" result="shape"/>
<feGaussianBlur stdDeviation="0.25" result="effect1_foregroundBlur_10_93"/>
</filter>
<filter id="filter11_i_10_93" x="17.5288" y="17.5" width="7.56006" height="12.1189" filterUnits="userSpaceOnUse" color-interpolation-filters="sRGB">
<feFlood flood-opacity="0" result="BackgroundImageFix"/>
<feBlend mode="normal" in="SourceGraphic" in2="BackgroundImageFix" result="shape"/>
<feColorMatrix in="SourceAlpha" type="matrix" values="0 0 0 0 0 0 0 0 0 0 0 0 0 0 0 0 0 0 127 0" result="hardAlpha"/>
<feOffset dx="-0.5" dy="-0.5"/>
<feGaussianBlur stdDeviation="0.5"/>
<feComposite in2="hardAlpha" operator="arithmetic" k2="-1" k3="1"/>
<feColorMatrix type="matrix" values="0 0 0 0 0.0784314 0 0 0 0 0.0117647 0 0 0 0 0.0470588 0 0 0 1 0"/>
<feBlend mode="normal" in2="shape" result="effect1_innerShadow_10_93"/>
</filter>
<filter id="filter12_f_10_93" x="27.2742" y="31.2078" width="4.81543" height="5.89282" filterUnits="userSpaceOnUse" color-interpolation-filters="sRGB">
<feFlood flood-opacity="0" result="BackgroundImageFix"/>
<feBlend mode="normal" in="SourceGraphic" in2="BackgroundImageFix" result="shape"/>
<feGaussianBlur stdDeviation="0.375" result="effect1_foregroundBlur_10_93"/>
</filter>
<filter id="filter13_f_10_93" x="28.0015" y="31.1179" width="3.99707" height="5.13208" filterUnits="userSpaceOnUse" color-interpolation-filters="sRGB">
<feFlood flood-opacity="0" result="BackgroundImageFix"/>
<feBlend mode="normal" in="SourceGraphic" in2="BackgroundImageFix" result="shape"/>
<feGaussianBlur stdDeviation="0.125" result="effect1_foregroundBlur_10_93"/>
</filter>
<filter id="filter14_i_10_93" x="24.0488" y="15.25" width="18.74" height="14.47" filterUnits="userSpaceOnUse" color-interpolation-filters="sRGB">
<feFlood flood-opacity="0" result="BackgroundImageFix"/>
<feBlend mode="normal" in="SourceGraphic" in2="BackgroundImageFix" result="shape"/>
<feColorMatrix in="SourceAlpha" type="matrix" values="0 0 0 0 0 0 0 0 0 0 0 0 0 0 0 0 0 0 127 0" result="hardAlpha"/>
<feOffset dx="0.75" dy="-0.75"/>
<feGaussianBlur stdDeviation="0.625"/>
<feComposite in2="hardAlpha" operator="arithmetic" k2="-1" k3="1"/>
<feColorMatrix type="matrix" values="0 0 0 0 0.0745098 0 0 0 0 0.0156863 0 0 0 0 0.054902 0 0 0 1 0"/>
<feBlend mode="normal" in2="shape" result="effect1_innerShadow_10_93"/>
</filter>
<filter id="filter15_f_10_93" x="32.8321" y="30.9173" width="1.50469" height="1.30327" filterUnits="userSpaceOnUse" color-interpolation-filters="sRGB">
<feFlood flood-opacity="0" result="BackgroundImageFix"/>
<feBlend mode="normal" in="SourceGraphic" in2="BackgroundImageFix" result="shape"/>
<feGaussianBlur stdDeviation="0.05" result="effect1_foregroundBlur_10_93"/>
</filter>
<filter id="filter16_f_10_93" x="34.8217" y="31.206" width="1.49204" height="1.54209" filterUnits="userSpaceOnUse" color-interpolation-filters="sRGB">
<feFlood flood-opacity="0" result="BackgroundImageFix"/>
<feBlend mode="normal" in="SourceGraphic" in2="BackgroundImageFix" result="shape"/>
<feGaussianBlur stdDeviation="0.1" result="effect1_foregroundBlur_10_93"/>
</filter>
<filter id="filter17_f_10_93" x="25.9929" y="31.0849" width="1.70103" height="1.8209" filterUnits="userSpaceOnUse" color-interpolation-filters="sRGB">
<feFlood flood-opacity="0" result="BackgroundImageFix"/>
<feBlend mode="normal" in="SourceGraphic" in2="BackgroundImageFix" result="shape"/>
<feGaussianBlur stdDeviation="0.1" result="effect1_foregroundBlur_10_93"/>
</filter>
<filter id="filter18_f_10_93" x="24.1957" y="30.9186" width="1.78325" height="1.32036" filterUnits="userSpaceOnUse" color-interpolation-filters="sRGB">
<feFlood flood-opacity="0" result="BackgroundImageFix"/>
<feBlend mode="normal" in="SourceGraphic" in2="BackgroundImageFix" result="shape"/>
<feGaussianBlur stdDeviation="0.05" result="effect1_foregroundBlur_10_93"/>
</filter>
<filter id="filter19_f_10_93" x="23.6467" y="14.875" width="19.3191" height="13.5259" filterUnits="userSpaceOnUse" color-interpolation-filters="sRGB">
<feFlood flood-opacity="0" result="BackgroundImageFix"/>
<feBlend mode="normal" in="SourceGraphic" in2="BackgroundImageFix" result="shape"/>
<feGaussianBlur stdDeviation="1" result="effect1_foregroundBlur_10_93"/>
</filter>
<filter id="filter20_f_10_93" x="18.0928" y="18.002" width="6.3999" height="7.61792" filterUnits="userSpaceOnUse" color-interpolation-filters="sRGB">
<feFlood flood-opacity="0" result="BackgroundImageFix"/>
<feBlend mode="normal" in="SourceGraphic" in2="BackgroundImageFix" result="shape"/>
<feGaussianBlur stdDeviation="0.375" result="effect1_foregroundBlur_10_93"/>
</filter>
<linearGradient id="paint0_linear_10_93" x1="18.1838" y1="32.71" x2="20.7268" y2="32.71" gradientUnits="userSpaceOnUse">
<stop stop-color="#362324"/>
<stop offset="1" stop-color="#291B1B"/>
</linearGradient>
<radialGradient id="paint1_radial_10_93" cx="0" cy="0" r="1" gradientUnits="userSpaceOnUse" gradientTransform="translate(20.4018 31.436) rotate(180) scale(2.8125 3.21299)">
<stop offset="0.57" stop-color="#49343A"/>
<stop offset="1" stop-color="#38282C" stop-opacity="0"/>
</radialGradient>
<radialGradient id="paint2_radial_10_93" cx="0" cy="0" r="1" gradientUnits="userSpaceOnUse" gradientTransform="translate(39.1678 33.233) rotate(-38.1374) scale(4.55429 3.65279)">
<stop offset="0.573" stop-color="#4C3232"/>
<stop offset="0.955" stop-color="#6A5654"/>
</radialGradient>
<radialGradient id="paint3_radial_10_93" cx="0" cy="0" r="1" gradientUnits="userSpaceOnUse" gradientTransform="translate(39.4998 32.436) rotate(-67.6828) scale(4.1043 3.51315)">
<stop offset="0.826" stop-color="#422A25" stop-opacity="0"/>
<stop offset="1" stop-color="#422A25"/>
</radialGradient>
<radialGradient id="paint4_radial_10_93" cx="0" cy="0" r="1" gradientUnits="userSpaceOnUse" gradientTransform="translate(39.4998 32.998) rotate(-66.4257) scale(3.21465 2.50404)">
<stop stop-color="#4D3939"/>
<stop offset="1" stop-color="#473030"/>
</radialGradient>
<radialGradient id="paint5_radial_10_93" cx="0" cy="0" r="1" gradientUnits="userSpaceOnUse" gradientTransform="translate(38.7778 31.75) scale(2.89063)">
<stop offset="0.733" stop-color="#371D1E" stop-opacity="0"/>
<stop offset="1" stop-color="#371D1E"/>
</radialGradient>
<linearGradient id="paint6_linear_10_93" x1="20.4998" y1="31.358" x2="18.8558" y2="31.358" gradientUnits="userSpaceOnUse">
<stop stop-color="#2D1C23"/>
<stop offset="1" stop-color="#2C1D22"/>
</linearGradient>
<linearGradient id="paint7_linear_10_93" x1="41.9338" y1="38.109" x2="40.8718" y2="39.75" gradientUnits="userSpaceOnUse">
<stop stop-color="#323131"/>
<stop offset="1" stop-color="#323131" stop-opacity="0"/>
</linearGradient>
<radialGradient id="paint8_radial_10_93" cx="0" cy="0" r="1" gradientUnits="userSpaceOnUse" gradientTransform="translate(38.6678 37.218) rotate(38.48) scale(5.44903 0.939351)">
<stop stop-color="#3C3B3B"/>
<stop offset="1" stop-color="#3C3B3B" stop-opacity="0"/>
</radialGradient>
<radialGradient id="paint9_radial_10_93" cx="0" cy="0" r="1" gradientUnits="userSpaceOnUse" gradientTransform="translate(44.2618 39.827) rotate(170.242) scale(2.48914 0.559656)">
<stop offset="0.153" stop-color="#494949"/>
<stop offset="1" stop-color="#494949" stop-opacity="0"/>
</radialGradient>
<radialGradient id="paint10_radial_10_93" cx="0" cy="0" r="1" gradientUnits="userSpaceOnUse" gradientTransform="translate(36.6998 39.139) rotate(32.998) scale(2.86905 5.19008)">
<stop stop-color="#09040C"/>
<stop offset="1" stop-color="#09040C" stop-opacity="0"/>
</radialGradient>
<radialGradient id="paint11_radial_10_93" cx="0" cy="0" r="1" gradientUnits="userSpaceOnUse" gradientTransform="translate(22.1536 39.9996) rotate(153.831) scale(2.37151 5.41349)">
<stop stop-color="#140F18"/>
<stop offset="1" stop-color="#140F18" stop-opacity="0"/>
</radialGradient>
<linearGradient id="paint12_linear_10_93" x1="17.9968" y1="37.781" x2="18.9968" y2="39.218" gradientUnits="userSpaceOnUse">
<stop stop-color="#3C3A3A"/>
<stop offset="1" stop-color="#3C3A3A" stop-opacity="0"/>
</linearGradient>
<radialGradient id="paint13_radial_10_93" cx="0" cy="0" r="1" gradientUnits="userSpaceOnUse" gradientTransform="translate(35.1116 31.0105) rotate(121.935) scale(13.391 14.0248)">
<stop offset="0.103" stop-color="#513230"/>
<stop offset="1" stop-color="#3D2829"/>
</radialGradient>
<radialGradient id="paint14_radial_10_93" cx="0" cy="0" r="1" gradientUnits="userSpaceOnUse" gradientTransform="translate(31.4037 28.3748) rotate(94.77) scale(16.8709 15.8687)">
<stop offset="0.762" stop-color="#462D45" stop-opacity="0"/>
<stop offset="1" stop-color="#462D45"/>
</radialGradient>
<radialGradient id="paint15_radial_10_93" cx="0" cy="0" r="1" gradientUnits="userSpaceOnUse" gradientTransform="translate(36.4498 32.9279) rotate(180) scale(16.6063 17.8828)">
<stop offset="0.875" stop-color="#544745" stop-opacity="0"/>
<stop offset="1" stop-color="#544745"/>
</radialGradient>
<radialGradient id="paint16_radial_10_93" cx="0" cy="0" r="1" gradientUnits="userSpaceOnUse" gradientTransform="translate(32.3379 26.4216) rotate(98.308) scale(6.57507 5.58105)">
<stop offset="0.265" stop-color="#402E31"/>
<stop offset="1" stop-color="#402E31" stop-opacity="0"/>
</radialGradient>
<radialGradient id="paint17_radial_10_93" cx="0" cy="0" r="1" gradientUnits="userSpaceOnUse" gradientTransform="translate(40.1748 32.9279) rotate(180) scale(2.16825 11.9901)">
<stop stop-color="#63514F"/>
<stop offset="1" stop-color="#63514F" stop-opacity="0"/>
</radialGradient>
<radialGradient id="paint18_radial_10_93" cx="0" cy="0" r="1" gradientUnits="userSpaceOnUse" gradientTransform="translate(35.0488 30.8889) rotate(-90) scale(2.33392 3.24473)">
<stop offset="0.375" stop-color="#43282A"/>
<stop offset="1" stop-color="#43282A" stop-opacity="0"/>
</radialGradient>
<radialGradient id="paint19_radial_10_93" cx="0" cy="0" r="1" gradientUnits="userSpaceOnUse" gradientTransform="translate(25.5748 30.8269) rotate(-80.4413) scale(2.463 2.61318)">
<stop offset="0.146" stop-color="#361F26"/>
<stop offset="1" stop-color="#361F26" stop-opacity="0"/>
</radialGradient>
<linearGradient id="paint20_linear_10_93" x1="27.9338" y1="38.561" x2="28.4178" y2="37.799" gradientUnits="userSpaceOnUse">
<stop stop-color="#594B4C"/>
<stop offset="1" stop-color="#594B4C" stop-opacity="0"/>
</linearGradient>
<linearGradient id="paint21_linear_10_93" x1="26.0408" y1="28.0901" x2="23.3948" y2="28.0901" gradientUnits="userSpaceOnUse">
<stop stop-color="#353535"/>
<stop offset="1" stop-color="#353535" stop-opacity="0"/>
</linearGradient>
<linearGradient id="paint22_linear_10_93" x1="36.3897" y1="28.1091" x2="33.6997" y2="28.1091" gradientUnits="userSpaceOnUse">
<stop stop-color="#353535"/>
<stop offset="1" stop-color="#353535" stop-opacity="0"/>
</linearGradient>
<radialGradient id="paint23_radial_10_93" cx="0" cy="0" r="1" gradientUnits="userSpaceOnUse" gradientTransform="translate(24.1447 23.3013) rotate(-176.074) scale(6.64718 11.0947)">
<stop offset="0.412" stop-color="#22181C"/>
<stop offset="1" stop-color="#5E5959"/>
</radialGradient>
<radialGradient id="paint24_radial_10_93" cx="0" cy="0" r="1" gradientUnits="userSpaceOnUse" gradientTransform="translate(23.4624 22.4243) rotate(110.487) scale(3.15794 0.91085)">
<stop offset="0.21" stop-color="#3B3438"/>
<stop offset="1" stop-color="#3B3438" stop-opacity="0"/>
</radialGradient>
<linearGradient id="paint25_linear_10_93" x1="28.3407" y1="35.7691" x2="31.8287" y2="33.9781" gradientUnits="userSpaceOnUse">
<stop offset="0.274" stop-color="#352125"/>
<stop offset="1" stop-color="#5B4543"/>
</linearGradient>
<radialGradient id="paint26_radial_10_93" cx="0" cy="0" r="1" gradientUnits="userSpaceOnUse" gradientTransform="translate(31.5547 34.598) rotate(-103.678) scale(3.66057 1.55577)">
<stop stop-color="#634D4A"/>
<stop offset="1" stop-color="#634D4A" stop-opacity="0"/>
</radialGradient>
<radialGradient id="paint27_radial_10_93" cx="0" cy="0" r="1" gradientUnits="userSpaceOnUse" gradientTransform="translate(31.5277 34.764) rotate(180) scale(2.125 0.35938)">
<stop offset="0.36" stop-color="#634D4A"/>
<stop offset="1" stop-color="#634D4A" stop-opacity="0"/>
</radialGradient>
<linearGradient id="paint28_linear_10_93" x1="28.0917" y1="34.127" x2="29.4927" y2="34.189" gradientUnits="userSpaceOnUse">
<stop stop-color="#3A2725"/>
<stop offset="1" stop-color="#3A2725" stop-opacity="0"/>
</linearGradient>
<linearGradient id="paint29_linear_10_93" x1="29.8237" y1="36.298" x2="29.8237" y2="34.536" gradientUnits="userSpaceOnUse">
<stop stop-color="#3B1F30"/>
<stop offset="1" stop-color="#3B1F30" stop-opacity="0"/>
</linearGradient>
<radialGradient id="paint30_radial_10_93" cx="0" cy="0" r="1" gradientUnits="userSpaceOnUse" gradientTransform="translate(29.9997 32.78) rotate(90) scale(3.51563 2.65432)">
<stop offset="0.827" stop-color="#2F161F" stop-opacity="0"/>
<stop offset="1" stop-color="#2F161F"/>
</radialGradient>
<linearGradient id="paint31_linear_10_93" x1="28.8867" y1="33.889" x2="28.0117" y2="33.684" gradientUnits="userSpaceOnUse">
<stop stop-color="#2F161F" stop-opacity="0"/>
<stop offset="0.898" stop-color="#2F161F"/>
</linearGradient>
<radialGradient id="paint32_radial_10_93" cx="0" cy="0" r="1" gradientUnits="userSpaceOnUse" gradientTransform="translate(31.9468 14.329) rotate(90) scale(4.94118 10.2724)">
<stop stop-color="#433D3F"/>
<stop offset="1" stop-color="#433D3F" stop-opacity="0"/>
</radialGradient>
<radialGradient id="paint33_radial_10_93" cx="0" cy="0" r="1" gradientUnits="userSpaceOnUse" gradientTransform="translate(44.3868 27.046) rotate(180) scale(7.125 7.6875)">
<stop stop-color="#565253"/>
<stop offset="1" stop-color="#565253" stop-opacity="0"/>
</radialGradient>
<radialGradient id="paint34_radial_10_93" cx="0" cy="0" r="1" gradientUnits="userSpaceOnUse" gradientTransform="translate(34.3418 31.7729) rotate(90) scale(1.80382 2.86918)">
<stop offset="0.802" stop-color="#7D574A"/>
<stop offset="1" stop-color="#644945"/>
</radialGradient>
<radialGradient id="paint35_radial_10_93" cx="0" cy="0" r="1" gradientUnits="userSpaceOnUse" gradientTransform="translate(33.8347 31.9599) rotate(-127.812) scale(0.841052 1.15794)">
<stop offset="0.766" stop-color="#FFE6E2" stop-opacity="0"/>
<stop offset="0.966" stop-color="#FFE6E2"/>
</radialGradient>
<linearGradient id="paint36_linear_10_93" x1="36.0717" y1="31.893" x2="35.3737" y2="32.323" gradientUnits="userSpaceOnUse">
<stop stop-color="#B4948D"/>
<stop offset="1" stop-color="#B4948D" stop-opacity="0"/>
</linearGradient>
<radialGradient id="paint37_radial_10_93" cx="0" cy="0" r="1" gradientUnits="userSpaceOnUse" gradientTransform="translate(25.6889 31.7909) rotate(90) scale(1.80042 2.86377)">
<stop offset="0.802" stop-color="#7D574A"/>
<stop offset="1" stop-color="#644945"/>
</radialGradient>
<linearGradient id="paint38_linear_10_93" x1="27.3399" y1="31.9109" x2="26.6439" y2="32.3399" gradientUnits="userSpaceOnUse">
<stop stop-color="#B4948D"/>
<stop offset="1" stop-color="#B4948D" stop-opacity="0"/>
</linearGradient>
<radialGradient id="paint39_radial_10_93" cx="0" cy="0" r="1" gradientUnits="userSpaceOnUse" gradientTransform="translate(25.3854 32.2119) rotate(-118.811) scale(1.09651 1.31805)">
<stop offset="0.766" stop-color="#FFE6E2" stop-opacity="0"/>
<stop offset="0.966" stop-color="#FFE6E2"/>
</radialGradient>
<radialGradient id="paint40_radial_10_93" cx="0" cy="0" r="1" gradientUnits="userSpaceOnUse" gradientTransform="translate(36.3677 25.902) rotate(-147.45) scale(10.8755 4.00738)">
<stop offset="0.212" stop-color="#4A4446"/>
<stop offset="1" stop-color="#4A4446" stop-opacity="0"/>
</radialGradient>
<linearGradient id="paint41_linear_10_93" x1="23.2307" y1="19.1859" x2="19.4097" y2="25.5359" gradientUnits="userSpaceOnUse">
<stop stop-color="#504E4E"/>
<stop offset="1" stop-color="#504E4E" stop-opacity="0"/>
</linearGradient>
</defs>
</svg>
