<svg width="40" height="41" viewBox="0 0 40 41" fill="none" xmlns="http://www.w3.org/2000/svg">
<rect y="0.605957" width="40" height="40" rx="20" fill="white"/>
<path d="M20 9.35596C28.625 9.35596 30.5 15.0935 30.5 18.356C30.5 21.2435 30.125 22.481 30.125 22.481H9.875C9.875 22.481 9.5 21.2435 9.5 18.356C9.5 15.0935 11.375 9.35596 20 9.35596Z" fill="#FFB300"/>
<path d="M29.45 20.981C29.45 20.981 29.15 19.7435 29 17.156C28.8125 14.3435 24.9125 16.5935 20 16.5935C15.0875 16.5935 11.1875 14.3435 11 17.156C10.85 19.7435 10.55 20.981 10.55 20.981C8.11253 20.981 8.11253 24.956 10.7 24.956C10.7 29.231 16.0625 31.856 20 31.856C23.9375 31.856 29.3 29.231 29.3 24.956C31.8875 24.956 31.8875 20.981 29.45 20.981Z" fill="#FFDD67"/>
<path d="M24.6875 24.356C26.0337 24.356 27.125 23.2647 27.125 21.9185C27.125 20.5723 26.0337 19.481 24.6875 19.481C23.3413 19.481 22.25 20.5723 22.25 21.9185C22.25 23.2647 23.3413 24.356 24.6875 24.356Z" fill="white"/>
<path d="M24.6875 23.606C25.6195 23.606 26.375 22.8504 26.375 21.9185C26.375 20.9865 25.6195 20.231 24.6875 20.231C23.7555 20.231 23 20.9865 23 21.9185C23 22.8504 23.7555 23.606 24.6875 23.606Z" fill="#664E27"/>
<path d="M24.6875 22.481C24.9982 22.481 25.25 22.2291 25.25 21.9185C25.25 21.6078 24.9982 21.356 24.6875 21.356C24.3768 21.356 24.125 21.6078 24.125 21.9185C24.125 22.2291 24.3768 22.481 24.6875 22.481Z" fill="#231F20"/>
<path d="M15.3125 24.356C16.6587 24.356 17.75 23.2647 17.75 21.9185C17.75 20.5723 16.6587 19.481 15.3125 19.481C13.9663 19.481 12.875 20.5723 12.875 21.9185C12.875 23.2647 13.9663 24.356 15.3125 24.356Z" fill="white"/>
<path d="M15.3125 23.606C16.2445 23.606 17 22.8504 17 21.9185C17 20.9865 16.2445 20.231 15.3125 20.231C14.3805 20.231 13.625 20.9865 13.625 21.9185C13.625 22.8504 14.3805 23.606 15.3125 23.606Z" fill="#664E27"/>
<path d="M15.3125 22.481C15.6232 22.481 15.875 22.2291 15.875 21.9185C15.875 21.6078 15.6232 21.356 15.3125 21.356C15.0018 21.356 14.75 21.6078 14.75 21.9185C14.75 22.2291 15.0018 22.481 15.3125 22.481Z" fill="#231F20"/>
<path d="M23.0376 26.6434C21.0876 27.9934 18.9126 27.9934 16.9626 26.6434C16.7376 26.4934 16.5126 26.7559 16.6626 27.0184C17.2626 27.9934 18.4626 28.8559 20.0001 28.8559C21.5376 28.8559 22.7376 27.9934 23.3376 27.0184C23.4876 26.7559 23.2626 26.4934 23.0376 26.6434Z" fill="#937237"/>
</svg>
