<svg width="64" height="64" viewBox="0 0 64 64" fill="none" xmlns="http://www.w3.org/2000/svg">
<rect width="64" height="64" rx="32" fill="white"/>
<path d="M6.69995 23H57.7L57.5999 46.2C57.5999 56.4 37.1 62 32 62C27.9 62 6.69995 57.9 6.69995 46.2V23" fill="#B47D56"/>
<path d="M57.5001 47.3C60.8001 30.9 58.5001 10.1 32.1001 2C32.1001 2 14.4001 13.5 43.0001 29C54.0001 35 57.5001 47.3 57.5001 47.3Z" fill="#467591"/>
<path d="M21.7 9.4C21.7 4.8 26.4999 2 32.0999 2C60.1999 2 67.4 34.5 58.2 42.6C56.4 25.8 45.3 10.7 21.7 9.4" fill="#3A81AD"/>
<path d="M6.70004 47.3001C3.89814e-05 25.0001 23.1 2.60012 51.9 9.30012C60.9 11.4001 50.8 19.4001 22.9 28.9001C11.1 32.9001 6.70004 47.3001 6.70004 47.3001V47.3001Z" fill="#428BC1"/>
<path d="M51.9 9.3C52.2 4 37.6999 2 32.0999 2C3.99995 2 -3.70005 33.5 5.99995 43.3C9.79995 15.2 28.3 10.6 51.9 9.3V9.3Z" fill="#57A1CE"/>
<path d="M20.2 35.8C15.2 35.8 13.2 37.6001 13.2 39.4001C13.2 41.2001 13.2 43.8 19.8 43.8C26.2 43.8 27.2 43 27.2 40.3C27.2 38.5 25.2 35.8 20.2 35.8" fill="#F5F5F5"/>
<path d="M20.7 43.3C23.1852 43.3 25.2 41.2853 25.2 38.8C25.2 36.3148 23.1852 34.3 20.7 34.3C18.2147 34.3 16.2 36.3148 16.2 38.8C16.2 41.2853 18.2147 43.3 20.7 43.3Z" fill="#664E27"/>
<path d="M22.2 38.8C22.2 39.6 21.5 40.3 20.7 40.3C19.9 40.3 19.2 39.6 19.2 38.8C19.2 38 19.9 37.3 20.7 37.3C21.5 37.3 22.2 38 22.2 38.8Z" fill="#231F20"/>
<path d="M13.2 39.3C13.2 32.3 27.2 32.3 27.2 40.3C25.2 34.3 15.2 34.3 13.2 39.3Z" fill="#664E27"/>
<path d="M44.2 35.8C49.2 35.8 51.2 37.6001 51.2 39.4001C51.2 41.2001 51.1999 43.8 44.5999 43.8C38.1999 43.8 37.2 43 37.2 40.3C37.2 38.5 39.2 35.8 44.2 35.8Z" fill="#F5F5F5"/>
<path d="M43.7 43.3C46.1852 43.3 48.2 41.2853 48.2 38.8C48.2 36.3148 46.1852 34.3 43.7 34.3C41.2147 34.3 39.2 36.3148 39.2 38.8C39.2 41.2853 41.2147 43.3 43.7 43.3Z" fill="#664E27"/>
<path d="M42.2 38.8C42.2 39.6 42.9 40.3 43.7 40.3C44.5 40.3 45.2 39.6 45.2 38.8C45.2 38 44.5 37.3 43.7 37.3C42.8 37.3 42.2 38 42.2 38.8Z" fill="#231F20"/>
<path d="M51.2 39.3C51.2 32.3 37.2 32.3 37.2 40.3C39.2 34.3 49.2 34.3 51.2 39.3ZM41.2 50.9C41.2 54.3 36.7 56 32.2 56C27.7 56 23.2 54.3 23.2 50.9C23.2 50.9 23.2 50 24.1 50H40.2999C41.1999 50 41.2 50.9 41.2 50.9" fill="#664E27"/>
</svg>
