<svg width="600" height="97" viewBox="0 0 600 97" fill="none" xmlns="http://www.w3.org/2000/svg">
<rect y="0.5" width="600" height="96" rx="16" fill="white"/>
<path d="M182.829 63.5V34.4091H194.306C196.503 34.4091 198.378 34.8021 199.931 35.5881C201.494 36.3646 202.682 37.4678 203.497 38.8977C204.321 40.3182 204.733 41.9896 204.733 43.9119C204.733 45.8437 204.316 47.5057 203.483 48.8977C202.649 50.2803 201.442 51.3409 199.86 52.0795C198.288 52.8182 196.385 53.1875 194.15 53.1875H186.466V48.2443H193.156C194.33 48.2443 195.306 48.0833 196.082 47.7614C196.859 47.4394 197.436 46.9564 197.815 46.3125C198.203 45.6686 198.397 44.8684 198.397 43.9119C198.397 42.946 198.203 42.1316 197.815 41.4688C197.436 40.8059 196.854 40.304 196.068 39.9631C195.291 39.6127 194.311 39.4375 193.127 39.4375H188.98V63.5H182.829ZM198.539 50.2614L205.77 63.5H198.98L191.906 50.2614H198.539ZM218.557 63.9261C216.313 63.9261 214.381 63.4716 212.762 62.5625C211.152 61.6439 209.911 60.3466 209.04 58.6705C208.169 56.9848 207.733 54.9915 207.733 52.6903C207.733 50.446 208.169 48.4763 209.04 46.7812C209.911 45.0862 211.138 43.7652 212.719 42.8182C214.31 41.8712 216.176 41.3977 218.316 41.3977C219.755 41.3977 221.095 41.6297 222.336 42.0938C223.586 42.5483 224.675 43.2348 225.603 44.1534C226.54 45.072 227.269 46.2273 227.79 47.6193C228.311 49.0019 228.571 50.6212 228.571 52.4773V54.1392H210.148V50.3892H222.875C222.875 49.518 222.686 48.7462 222.307 48.0739C221.928 47.4015 221.403 46.8759 220.73 46.4972C220.068 46.1089 219.296 45.9148 218.415 45.9148C217.497 45.9148 216.682 46.1278 215.972 46.554C215.271 46.9706 214.722 47.5341 214.324 48.2443C213.926 48.9451 213.723 49.7263 213.713 50.5881V54.1534C213.713 55.233 213.912 56.1657 214.31 56.9517C214.717 57.7377 215.29 58.3438 216.029 58.7699C216.767 59.196 217.643 59.4091 218.657 59.4091C219.329 59.4091 219.944 59.3144 220.503 59.125C221.062 58.9356 221.54 58.6515 221.938 58.2727C222.336 57.8939 222.639 57.4299 222.847 56.8807L228.444 57.25C228.159 58.5947 227.577 59.7689 226.696 60.7727C225.825 61.767 224.698 62.5436 223.316 63.1023C221.943 63.6515 220.356 63.9261 218.557 63.9261ZM242.35 72.1364C240.39 72.1364 238.709 71.8665 237.307 71.3267C235.915 70.7964 234.807 70.072 233.983 69.1534C233.159 68.2348 232.624 67.2027 232.378 66.0568L237.975 65.304C238.145 65.7396 238.415 66.1468 238.784 66.5256C239.154 66.9044 239.641 67.2074 240.248 67.4347C240.863 67.6714 241.611 67.7898 242.492 67.7898C243.808 67.7898 244.892 67.4678 245.745 66.8239C246.606 66.1894 247.037 65.1241 247.037 63.6278V59.6364H246.782C246.516 60.2424 246.119 60.8153 245.588 61.3551C245.058 61.8949 244.376 62.3352 243.543 62.6761C242.71 63.017 241.715 63.1875 240.56 63.1875C238.922 63.1875 237.43 62.8087 236.086 62.0511C234.75 61.2841 233.685 60.1146 232.89 58.5426C232.104 56.9612 231.711 54.9631 231.711 52.5483C231.711 50.0767 232.113 48.0123 232.918 46.3551C233.723 44.6979 234.793 43.4574 236.128 42.6335C237.473 41.8097 238.945 41.3977 240.546 41.3977C241.767 41.3977 242.79 41.6061 243.614 42.0227C244.438 42.4299 245.101 42.9413 245.603 43.5568C246.114 44.1629 246.507 44.7595 246.782 45.3466H247.009V41.6818H253.017V63.7131C253.017 65.5691 252.563 67.1222 251.654 68.3722C250.745 69.6222 249.485 70.5597 247.875 71.1847C246.275 71.8191 244.433 72.1364 242.35 72.1364ZM242.478 58.642C243.453 58.642 244.277 58.4006 244.949 57.9176C245.631 57.4252 246.152 56.7244 246.512 55.8153C246.881 54.8968 247.066 53.7983 247.066 52.5199C247.066 51.2415 246.886 50.1335 246.526 49.196C246.166 48.2491 245.645 47.5152 244.963 46.9943C244.282 46.4735 243.453 46.2131 242.478 46.2131C241.483 46.2131 240.645 46.483 239.963 47.0227C239.282 47.553 238.766 48.2917 238.415 49.2386C238.065 50.1856 237.89 51.2794 237.89 52.5199C237.89 53.7794 238.065 54.8684 238.415 55.7869C238.775 56.696 239.291 57.4015 239.963 57.9034C240.645 58.3958 241.483 58.642 242.478 58.642ZM257.833 63.5V41.6818H263.884V63.5H257.833ZM260.873 38.8693C259.973 38.8693 259.201 38.571 258.557 37.9744C257.923 37.3684 257.605 36.6439 257.605 35.8011C257.605 34.9678 257.923 34.2528 258.557 33.6562C259.201 33.0502 259.973 32.7472 260.873 32.7472C261.772 32.7472 262.539 33.0502 263.174 33.6562C263.818 34.2528 264.14 34.9678 264.14 35.8011C264.14 36.6439 263.818 37.3684 263.174 37.9744C262.539 38.571 261.772 38.8693 260.873 38.8693ZM286.885 47.9034L281.345 48.2443C281.25 47.7708 281.047 47.3447 280.734 46.9659C280.422 46.5777 280.01 46.2699 279.498 46.0426C278.996 45.8059 278.395 45.6875 277.694 45.6875C276.757 45.6875 275.966 45.8864 275.322 46.2841C274.678 46.6723 274.356 47.1932 274.356 47.8466C274.356 48.3674 274.565 48.8078 274.981 49.1676C275.398 49.5275 276.113 49.8163 277.126 50.0341L281.075 50.8295C283.196 51.2652 284.778 51.9659 285.819 52.9318C286.861 53.8977 287.382 55.1667 287.382 56.7386C287.382 58.1686 286.96 59.4233 286.118 60.5028C285.284 61.5824 284.138 62.4252 282.68 63.0312C281.231 63.6278 279.56 63.9261 277.666 63.9261C274.778 63.9261 272.476 63.3248 270.762 62.1222C269.058 60.91 268.059 59.2623 267.765 57.179L273.717 56.8665C273.897 57.7472 274.333 58.4195 275.024 58.8835C275.715 59.3381 276.6 59.5653 277.68 59.5653C278.741 59.5653 279.593 59.3617 280.237 58.9545C280.89 58.5379 281.222 58.0028 281.231 57.3494C281.222 56.8002 280.99 56.3504 280.535 56C280.081 55.6402 279.38 55.3655 278.433 55.1761L274.654 54.4233C272.524 53.9972 270.938 53.2585 269.896 52.2074C268.864 51.1562 268.348 49.8163 268.348 48.1875C268.348 46.786 268.726 45.5786 269.484 44.5653C270.251 43.5521 271.326 42.7708 272.708 42.2216C274.1 41.6723 275.729 41.3977 277.595 41.3977C280.35 41.3977 282.519 41.9801 284.1 43.1449C285.691 44.3097 286.619 45.8958 286.885 47.9034ZM302.797 41.6818V46.2273H289.658V41.6818H302.797ZM292.641 36.4545H298.692V56.7955C298.692 57.3542 298.777 57.7898 298.948 58.1023C299.118 58.4053 299.355 58.6184 299.658 58.7415C299.971 58.8646 300.33 58.9261 300.738 58.9261C301.022 58.9261 301.306 58.9025 301.59 58.8551C301.874 58.7983 302.092 58.7557 302.243 58.7273L303.195 63.2301C302.892 63.3248 302.466 63.4337 301.917 63.5568C301.367 63.6894 300.7 63.7699 299.914 63.7983C298.455 63.8551 297.177 63.661 296.078 63.2159C294.989 62.7708 294.142 62.0795 293.536 61.142C292.93 60.2045 292.632 59.0208 292.641 57.5909V36.4545ZM306.739 63.5V41.6818H312.605V45.4886H312.833C313.23 44.1345 313.898 43.1117 314.836 42.4205C315.773 41.7197 316.853 41.3693 318.074 41.3693C318.377 41.3693 318.704 41.3883 319.054 41.4261C319.405 41.464 319.712 41.5161 319.978 41.5824V46.9517C319.694 46.8665 319.301 46.7907 318.799 46.7244C318.297 46.6581 317.837 46.625 317.421 46.625C316.531 46.625 315.735 46.8191 315.034 47.2074C314.343 47.5862 313.794 48.1165 313.387 48.7983C312.989 49.4801 312.79 50.2661 312.79 51.1562V63.5H306.739ZM332.034 63.9261C329.789 63.9261 327.858 63.4716 326.238 62.5625C324.628 61.6439 323.388 60.3466 322.517 58.6705C321.645 56.9848 321.21 54.9915 321.21 52.6903C321.21 50.446 321.645 48.4763 322.517 46.7812C323.388 45.0862 324.614 43.7652 326.196 42.8182C327.787 41.8712 329.652 41.3977 331.792 41.3977C333.232 41.3977 334.572 41.6297 335.812 42.0938C337.062 42.5483 338.151 43.2348 339.079 44.1534C340.017 45.072 340.746 46.2273 341.267 47.6193C341.788 49.0019 342.048 50.6212 342.048 52.4773V54.1392H323.625V50.3892H336.352C336.352 49.518 336.163 48.7462 335.784 48.0739C335.405 47.4015 334.879 46.8759 334.207 46.4972C333.544 46.1089 332.772 45.9148 331.892 45.9148C330.973 45.9148 330.159 46.1278 329.449 46.554C328.748 46.9706 328.199 47.5341 327.801 48.2443C327.403 48.9451 327.199 49.7263 327.19 50.5881V54.1534C327.19 55.233 327.389 56.1657 327.787 56.9517C328.194 57.7377 328.767 58.3438 329.505 58.7699C330.244 59.196 331.12 59.4091 332.133 59.4091C332.806 59.4091 333.421 59.3144 333.98 59.125C334.538 58.9356 335.017 58.6515 335.414 58.2727C335.812 57.8939 336.115 57.4299 336.324 56.8807L341.92 57.25C341.636 58.5947 341.054 59.7689 340.173 60.7727C339.302 61.767 338.175 62.5436 336.792 63.1023C335.419 63.6515 333.833 63.9261 332.034 63.9261ZM359.591 49.1534V53.9545H346.324V49.1534H359.591ZM382.9 47.9034L377.36 48.2443C377.266 47.7708 377.062 47.3447 376.75 46.9659C376.437 46.5777 376.025 46.2699 375.514 46.0426C375.012 45.8059 374.411 45.6875 373.71 45.6875C372.772 45.6875 371.982 45.8864 371.338 46.2841C370.694 46.6723 370.372 47.1932 370.372 47.8466C370.372 48.3674 370.58 48.8078 370.997 49.1676C371.413 49.5275 372.128 49.8163 373.142 50.0341L377.091 50.8295C379.212 51.2652 380.793 51.9659 381.835 52.9318C382.877 53.8977 383.397 55.1667 383.397 56.7386C383.397 58.1686 382.976 59.4233 382.133 60.5028C381.3 61.5824 380.154 62.4252 378.696 63.0312C377.247 63.6278 375.575 63.9261 373.681 63.9261C370.793 63.9261 368.492 63.3248 366.778 62.1222C365.074 60.91 364.074 59.2623 363.781 57.179L369.733 56.8665C369.913 57.7472 370.348 58.4195 371.039 58.8835C371.731 59.3381 372.616 59.5653 373.696 59.5653C374.756 59.5653 375.609 59.3617 376.252 58.9545C376.906 58.5379 377.237 58.0028 377.247 57.3494C377.237 56.8002 377.005 56.3504 376.551 56C376.096 55.6402 375.395 55.3655 374.449 55.1761L370.67 54.4233C368.539 53.9972 366.953 53.2585 365.912 52.2074C364.879 51.1562 364.363 49.8163 364.363 48.1875C364.363 46.786 364.742 45.5786 365.5 44.5653C366.267 43.5521 367.342 42.7708 368.724 42.2216C370.116 41.6723 371.745 41.3977 373.61 41.3977C376.366 41.3977 378.535 41.9801 380.116 43.1449C381.707 44.3097 382.635 45.8958 382.9 47.9034ZM397.151 63.9261C394.907 63.9261 392.975 63.4716 391.355 62.5625C389.746 61.6439 388.505 60.3466 387.634 58.6705C386.763 56.9848 386.327 54.9915 386.327 52.6903C386.327 50.446 386.763 48.4763 387.634 46.7812C388.505 45.0862 389.731 43.7652 391.313 42.8182C392.904 41.8712 394.769 41.3977 396.909 41.3977C398.349 41.3977 399.689 41.6297 400.929 42.0938C402.179 42.5483 403.268 43.2348 404.196 44.1534C405.134 45.072 405.863 46.2273 406.384 47.6193C406.905 49.0019 407.165 50.6212 407.165 52.4773V54.1392H388.742V50.3892H401.469C401.469 49.518 401.28 48.7462 400.901 48.0739C400.522 47.4015 399.997 46.8759 399.324 46.4972C398.661 46.1089 397.89 45.9148 397.009 45.9148C396.09 45.9148 395.276 46.1278 394.566 46.554C393.865 46.9706 393.316 47.5341 392.918 48.2443C392.52 48.9451 392.317 49.7263 392.307 50.5881V54.1534C392.307 55.233 392.506 56.1657 392.904 56.9517C393.311 57.7377 393.884 58.3438 394.623 58.7699C395.361 59.196 396.237 59.4091 397.25 59.4091C397.923 59.4091 398.538 59.3144 399.097 59.125C399.656 58.9356 400.134 58.6515 400.532 58.2727C400.929 57.8939 401.232 57.4299 401.441 56.8807L407.037 57.25C406.753 58.5947 406.171 59.7689 405.29 60.7727C404.419 61.767 403.292 62.5436 401.909 63.1023C400.536 63.6515 398.95 63.9261 397.151 63.9261Z" fill="black"/>
</svg>
