<svg width="583" height="40" viewBox="0 0 583 40" fill="none" xmlns="http://www.w3.org/2000/svg">
<path d="M31.8187 28.0273L25.732 21.9406C26.6766 20.7195 27.1875 19.2266 27.1875 17.6562C27.1875 15.7766 26.4539 14.0141 25.1273 12.6852C23.8008 11.3562 22.0336 10.625 20.1562 10.625C18.2789 10.625 16.5117 11.3586 15.1852 12.6852C13.8562 14.0117 13.125 15.7766 13.125 17.6562C13.125 19.5336 13.8586 21.3008 15.1852 22.6273C16.5117 23.9562 18.2766 24.6875 20.1562 24.6875C21.7266 24.6875 23.2172 24.1766 24.4383 23.2344L30.525 29.3187C30.5428 29.3366 30.564 29.3508 30.5874 29.3604C30.6107 29.3701 30.6357 29.3751 30.6609 29.3751C30.6862 29.3751 30.7112 29.3701 30.7345 29.3604C30.7578 29.3508 30.779 29.3366 30.7969 29.3187L31.8187 28.2992C31.8366 28.2814 31.8508 28.2602 31.8604 28.2369C31.8701 28.2135 31.8751 28.1885 31.8751 28.1633C31.8751 28.138 31.8701 28.113 31.8604 28.0897C31.8508 28.0664 31.8366 28.0452 31.8187 28.0273V28.0273ZM23.8688 21.3688C22.875 22.3602 21.5578 22.9062 20.1562 22.9062C18.7547 22.9062 17.4375 22.3602 16.4438 21.3688C15.4523 20.375 14.9062 19.0578 14.9062 17.6562C14.9062 16.2547 15.4523 14.9352 16.4438 13.9438C17.4375 12.9523 18.7547 12.4062 20.1562 12.4062C21.5578 12.4062 22.8773 12.95 23.8688 13.9438C24.8602 14.9375 25.4062 16.2547 25.4062 17.6562C25.4062 19.0578 24.8602 20.3773 23.8688 21.3688Z" fill="white"/>
<path d="M243.697 13.8636V25.5H241.572L236.51 18.1761H236.425V25.5H233.964V13.8636H236.124L241.146 21.1818H241.249V13.8636H243.697ZM249.628 25.6705C248.745 25.6705 247.982 25.483 247.338 25.108C246.698 24.7292 246.204 24.2027 245.855 23.5284C245.507 22.8504 245.332 22.0644 245.332 21.1705C245.332 20.2689 245.507 19.4811 245.855 18.8068C246.204 18.1288 246.698 17.6023 247.338 17.2273C247.982 16.8485 248.745 16.6591 249.628 16.6591C250.51 16.6591 251.272 16.8485 251.912 17.2273C252.556 17.6023 253.052 18.1288 253.401 18.8068C253.749 19.4811 253.923 20.2689 253.923 21.1705C253.923 22.0644 253.749 22.8504 253.401 23.5284C253.052 24.2027 252.556 24.7292 251.912 25.108C251.272 25.483 250.51 25.6705 249.628 25.6705ZM249.639 23.7955C250.041 23.7955 250.376 23.6818 250.645 23.4545C250.914 23.2235 251.116 22.9091 251.253 22.5114C251.393 22.1136 251.463 21.661 251.463 21.1534C251.463 20.6458 251.393 20.1932 251.253 19.7955C251.116 19.3977 250.914 19.0833 250.645 18.8523C250.376 18.6212 250.041 18.5057 249.639 18.5057C249.234 18.5057 248.893 18.6212 248.616 18.8523C248.344 19.0833 248.137 19.3977 247.997 19.7955C247.861 20.1932 247.793 20.6458 247.793 21.1534C247.793 21.661 247.861 22.1136 247.997 22.5114C248.137 22.9091 248.344 23.2235 248.616 23.4545C248.893 23.6818 249.234 23.7955 249.639 23.7955ZM255.497 25.5V16.7727H257.804V18.3125H257.906C258.088 17.8011 258.391 17.3977 258.815 17.1023C259.24 16.8068 259.747 16.6591 260.338 16.6591C260.937 16.6591 261.446 16.8087 261.866 17.108C262.287 17.4034 262.567 17.8049 262.707 18.3125H262.798C262.976 17.8125 263.298 17.4129 263.764 17.1136C264.234 16.8106 264.789 16.6591 265.429 16.6591C266.243 16.6591 266.904 16.9186 267.412 17.4375C267.923 17.9527 268.179 18.6837 268.179 19.6307V25.5H265.764V20.108C265.764 19.6231 265.635 19.2595 265.378 19.017C265.12 18.7746 264.798 18.6534 264.412 18.6534C263.973 18.6534 263.63 18.7936 263.384 19.0739C263.137 19.3504 263.014 19.7159 263.014 20.1705V25.5H260.668V20.0568C260.668 19.6288 260.545 19.2879 260.298 19.0341C260.056 18.7803 259.736 18.6534 259.338 18.6534C259.069 18.6534 258.827 18.7216 258.611 18.858C258.399 18.9905 258.23 19.178 258.105 19.4205C257.98 19.6591 257.918 19.9394 257.918 20.2614V25.5H255.497ZM274.068 25.6705C273.17 25.6705 272.398 25.4886 271.75 25.125C271.106 24.7576 270.61 24.2386 270.261 23.5682C269.913 22.8939 269.739 22.0966 269.739 21.1761C269.739 20.2784 269.913 19.4905 270.261 18.8125C270.61 18.1345 271.1 17.6061 271.733 17.2273C272.369 16.8485 273.116 16.6591 273.972 16.6591C274.547 16.6591 275.083 16.7519 275.58 16.9375C276.08 17.1193 276.515 17.3939 276.886 17.7614C277.261 18.1288 277.553 18.5909 277.761 19.1477C277.97 19.7008 278.074 20.3485 278.074 21.0909V21.7557H270.705V20.2557H275.795C275.795 19.9072 275.72 19.5985 275.568 19.3295C275.417 19.0606 275.206 18.8504 274.938 18.6989C274.672 18.5436 274.364 18.4659 274.011 18.4659C273.644 18.4659 273.318 18.5511 273.034 18.7216C272.754 18.8883 272.534 19.1136 272.375 19.3977C272.216 19.678 272.134 19.9905 272.131 20.3352V21.7614C272.131 22.1932 272.21 22.5663 272.369 22.8807C272.532 23.1951 272.761 23.4375 273.057 23.608C273.352 23.7784 273.703 23.8636 274.108 23.8636C274.377 23.8636 274.623 23.8258 274.847 23.75C275.07 23.6742 275.261 23.5606 275.42 23.4091C275.58 23.2576 275.701 23.072 275.784 22.8523L278.023 23C277.909 23.5379 277.676 24.0076 277.324 24.4091C276.975 24.8068 276.525 25.1174 275.972 25.3409C275.422 25.5606 274.788 25.6705 274.068 25.6705ZM282.284 23.9091L282.222 24.5341C282.172 25.0341 282.078 25.5322 281.938 26.0284C281.801 26.5284 281.657 26.9811 281.506 27.3864C281.358 27.7917 281.239 28.1098 281.148 28.3409H279.58C279.636 28.1174 279.714 27.8049 279.812 27.4034C279.911 27.0057 280.004 26.5587 280.091 26.0625C280.178 25.5663 280.233 25.0606 280.256 24.5455L280.284 23.9091H282.284ZM287.653 28.7727V16.7727H290.04V18.2386H290.148C290.254 18.0038 290.407 17.7652 290.608 17.5227C290.813 17.2765 291.078 17.072 291.403 16.9091C291.733 16.7424 292.142 16.6591 292.631 16.6591C293.267 16.6591 293.854 16.8258 294.392 17.1591C294.93 17.4886 295.36 17.9867 295.682 18.6534C296.004 19.3163 296.165 20.1477 296.165 21.1477C296.165 22.1212 296.008 22.9432 295.693 23.6136C295.383 24.2803 294.958 24.786 294.42 25.1307C293.886 25.4716 293.288 25.642 292.625 25.642C292.155 25.642 291.756 25.5644 291.426 25.4091C291.1 25.2538 290.833 25.0587 290.625 24.8239C290.417 24.5852 290.258 24.3447 290.148 24.1023H290.074V28.7727H287.653ZM290.023 21.1364C290.023 21.6553 290.095 22.108 290.239 22.4943C290.383 22.8807 290.591 23.1818 290.864 23.3977C291.136 23.6098 291.468 23.7159 291.858 23.7159C292.252 23.7159 292.585 23.608 292.858 23.392C293.131 23.1723 293.337 22.8693 293.477 22.483C293.621 22.0928 293.693 21.6439 293.693 21.1364C293.693 20.6326 293.623 20.1894 293.483 19.8068C293.343 19.4242 293.136 19.125 292.864 18.9091C292.591 18.6932 292.256 18.5852 291.858 18.5852C291.464 18.5852 291.131 18.6894 290.858 18.8977C290.589 19.1061 290.383 19.4015 290.239 19.7841C290.095 20.1667 290.023 20.6174 290.023 21.1364ZM297.778 25.5V16.7727H300.199V25.5H297.778ZM298.994 15.6477C298.634 15.6477 298.326 15.5284 298.068 15.2898C297.814 15.0473 297.688 14.7576 297.688 14.4205C297.688 14.0871 297.814 13.8011 298.068 13.5625C298.326 13.3201 298.634 13.1989 298.994 13.1989C299.354 13.1989 299.661 13.3201 299.915 13.5625C300.172 13.8011 300.301 14.0871 300.301 14.4205C300.301 14.7576 300.172 15.0473 299.915 15.2898C299.661 15.5284 299.354 15.6477 298.994 15.6477ZM307.734 21.7841V16.7727H310.155V25.5H307.831V23.9148H307.74C307.543 24.4261 307.215 24.8371 306.757 25.1477C306.303 25.4583 305.748 25.6136 305.092 25.6136C304.509 25.6136 303.996 25.4811 303.553 25.2159C303.109 24.9508 302.763 24.5739 302.513 24.0852C302.267 23.5966 302.142 23.0114 302.138 22.3295V16.7727H304.558V21.8977C304.562 22.4129 304.7 22.8201 304.973 23.1193C305.246 23.4186 305.611 23.5682 306.07 23.5682C306.361 23.5682 306.634 23.5019 306.888 23.3693C307.142 23.233 307.346 23.0322 307.501 22.767C307.661 22.5019 307.738 22.1742 307.734 21.7841ZM314.722 23.9091L314.659 24.5341C314.61 25.0341 314.515 25.5322 314.375 26.0284C314.239 26.5284 314.095 26.9811 313.943 27.3864C313.795 27.7917 313.676 28.1098 313.585 28.3409H312.017C312.074 28.1174 312.152 27.8049 312.25 27.4034C312.348 27.0057 312.441 26.5587 312.528 26.0625C312.616 25.5663 312.67 25.0606 312.693 24.5455L312.722 23.9091H314.722ZM320.091 28.7727V16.7727H322.477V18.2386H322.585C322.691 18.0038 322.845 17.7652 323.045 17.5227C323.25 17.2765 323.515 17.072 323.841 16.9091C324.17 16.7424 324.58 16.6591 325.068 16.6591C325.705 16.6591 326.292 16.8258 326.83 17.1591C327.367 17.4886 327.797 17.9867 328.119 18.6534C328.441 19.3163 328.602 20.1477 328.602 21.1477C328.602 22.1212 328.445 22.9432 328.131 23.6136C327.82 24.2803 327.396 24.786 326.858 25.1307C326.324 25.4716 325.725 25.642 325.062 25.642C324.593 25.642 324.193 25.5644 323.864 25.4091C323.538 25.2538 323.271 25.0587 323.062 24.8239C322.854 24.5852 322.695 24.3447 322.585 24.1023H322.511V28.7727H320.091ZM322.46 21.1364C322.46 21.6553 322.532 22.108 322.676 22.4943C322.82 22.8807 323.028 23.1818 323.301 23.3977C323.574 23.6098 323.905 23.7159 324.295 23.7159C324.689 23.7159 325.023 23.608 325.295 23.392C325.568 23.1723 325.775 22.8693 325.915 22.483C326.059 22.0928 326.131 21.6439 326.131 21.1364C326.131 20.6326 326.061 20.1894 325.92 19.8068C325.78 19.4242 325.574 19.125 325.301 18.9091C325.028 18.6932 324.693 18.5852 324.295 18.5852C323.902 18.5852 323.568 18.6894 323.295 18.8977C323.027 19.1061 322.82 19.4015 322.676 19.7841C322.532 20.1667 322.46 20.6174 322.46 21.1364ZM330.216 25.5V16.7727H332.636V25.5H330.216ZM331.432 15.6477C331.072 15.6477 330.763 15.5284 330.506 15.2898C330.252 15.0473 330.125 14.7576 330.125 14.4205C330.125 14.0871 330.252 13.8011 330.506 13.5625C330.763 13.3201 331.072 13.1989 331.432 13.1989C331.792 13.1989 332.098 13.3201 332.352 13.5625C332.61 13.8011 332.739 14.0871 332.739 14.4205C332.739 14.7576 332.61 15.0473 332.352 15.2898C332.098 15.5284 331.792 15.6477 331.432 15.6477ZM340.172 21.7841V16.7727H342.592V25.5H340.268V23.9148H340.178C339.981 24.4261 339.653 24.8371 339.195 25.1477C338.74 25.4583 338.185 25.6136 337.53 25.6136C336.946 25.6136 336.433 25.4811 335.99 25.2159C335.547 24.9508 335.2 24.5739 334.95 24.0852C334.704 23.5966 334.579 23.0114 334.575 22.3295V16.7727H336.996V21.8977C337 22.4129 337.138 22.8201 337.411 23.1193C337.683 23.4186 338.049 23.5682 338.507 23.5682C338.799 23.5682 339.071 23.5019 339.325 23.3693C339.579 23.233 339.784 23.0322 339.939 22.767C340.098 22.5019 340.176 22.1742 340.172 21.7841ZM346.25 25.5L343.875 16.7727H346.324L347.676 22.6364H347.756L349.165 16.7727H351.568L353 22.6023H353.074L354.403 16.7727H356.847L354.477 25.5H351.915L350.415 20.0114H350.307L348.807 25.5H346.25ZM361.896 25.6705C360.999 25.6705 360.226 25.4886 359.578 25.125C358.934 24.7576 358.438 24.2386 358.089 23.5682C357.741 22.8939 357.567 22.0966 357.567 21.1761C357.567 20.2784 357.741 19.4905 358.089 18.8125C358.438 18.1345 358.929 17.6061 359.561 17.2273C360.197 16.8485 360.944 16.6591 361.8 16.6591C362.375 16.6591 362.911 16.7519 363.408 16.9375C363.908 17.1193 364.343 17.3939 364.714 17.7614C365.089 18.1288 365.381 18.5909 365.589 19.1477C365.798 19.7008 365.902 20.3485 365.902 21.0909V21.7557H358.533V20.2557H363.624C363.624 19.9072 363.548 19.5985 363.396 19.3295C363.245 19.0606 363.035 18.8504 362.766 18.6989C362.5 18.5436 362.192 18.4659 361.839 18.4659C361.472 18.4659 361.146 18.5511 360.862 18.7216C360.582 18.8883 360.362 19.1136 360.203 19.3977C360.044 19.678 359.963 19.9905 359.959 20.3352V21.7614C359.959 22.1932 360.038 22.5663 360.197 22.8807C360.36 23.1951 360.589 23.4375 360.885 23.608C361.18 23.7784 361.531 23.8636 361.936 23.8636C362.205 23.8636 362.451 23.8258 362.675 23.75C362.898 23.6742 363.089 23.5606 363.249 23.4091C363.408 23.2576 363.529 23.072 363.612 22.8523L365.851 23C365.737 23.5379 365.504 24.0076 365.152 24.4091C364.804 24.8068 364.353 25.1174 363.8 25.3409C363.25 25.5606 362.616 25.6705 361.896 25.6705ZM367.482 25.5V16.7727H369.828V18.2955H369.919C370.078 17.7538 370.345 17.3447 370.72 17.0682C371.095 16.7879 371.527 16.6477 372.016 16.6477C372.137 16.6477 372.268 16.6553 372.408 16.6705C372.548 16.6856 372.671 16.7064 372.777 16.733V18.8807C372.663 18.8466 372.506 18.8163 372.305 18.7898C372.105 18.7633 371.921 18.75 371.754 18.75C371.398 18.75 371.08 18.8277 370.8 18.983C370.523 19.1345 370.304 19.3466 370.141 19.6193C369.982 19.892 369.902 20.2064 369.902 20.5625V25.5H367.482ZM381.29 19.2614L379.074 19.3977C379.036 19.2083 378.955 19.0379 378.83 18.8864C378.705 18.7311 378.54 18.608 378.335 18.517C378.134 18.4223 377.894 18.375 377.614 18.375C377.239 18.375 376.922 18.4545 376.665 18.6136C376.407 18.7689 376.278 18.9773 376.278 19.2386C376.278 19.447 376.362 19.6231 376.528 19.767C376.695 19.911 376.981 20.0265 377.386 20.1136L378.966 20.4318C379.814 20.6061 380.447 20.8864 380.864 21.2727C381.28 21.6591 381.489 22.1667 381.489 22.7955C381.489 23.3674 381.32 23.8693 380.983 24.3011C380.65 24.733 380.191 25.0701 379.608 25.3125C379.028 25.5511 378.36 25.6705 377.602 25.6705C376.447 25.6705 375.527 25.4299 374.841 24.9489C374.159 24.464 373.759 23.8049 373.642 22.9716L376.023 22.8466C376.095 23.1989 376.269 23.4678 376.545 23.6534C376.822 23.8352 377.176 23.9261 377.608 23.9261C378.032 23.9261 378.373 23.8447 378.631 23.6818C378.892 23.5152 379.025 23.3011 379.028 23.0398C379.025 22.8201 378.932 22.6402 378.75 22.5C378.568 22.3561 378.288 22.2462 377.909 22.1705L376.398 21.8693C375.545 21.6989 374.911 21.4034 374.494 20.983C374.081 20.5625 373.875 20.0265 373.875 19.375C373.875 18.8144 374.027 18.3314 374.33 17.9261C374.636 17.5208 375.066 17.2083 375.619 16.9886C376.176 16.7689 376.828 16.6591 377.574 16.6591C378.676 16.6591 379.544 16.892 380.176 17.358C380.813 17.8239 381.184 18.4583 381.29 19.2614Z" fill="white" fill-opacity="0.5"/>
<rect x="0.5" y="0.5" width="582" height="39" rx="19.5" stroke="white"/>
</svg>
