<svg width="25" height="24" viewBox="0 0 25 24" fill="none" xmlns="http://www.w3.org/2000/svg">
<path d="M21.8187 20.0273L15.732 13.9406C16.6766 12.7195 17.1875 11.2266 17.1875 9.65625C17.1875 7.77656 16.4539 6.01406 15.1273 4.68516C13.8008 3.35625 12.0336 2.625 10.1562 2.625C8.27891 2.625 6.51172 3.35859 5.18516 4.68516C3.85625 6.01172 3.125 7.77656 3.125 9.65625C3.125 11.5336 3.85859 13.3008 5.18516 14.6273C6.51172 15.9562 8.27656 16.6875 10.1562 16.6875C11.7266 16.6875 13.2172 16.1766 14.4383 15.2344L20.525 21.3187C20.5428 21.3366 20.564 21.3508 20.5874 21.3604C20.6107 21.3701 20.6357 21.3751 20.6609 21.3751C20.6862 21.3751 20.7112 21.3701 20.7345 21.3604C20.7578 21.3508 20.779 21.3366 20.7969 21.3187L21.8187 20.2992C21.8366 20.2814 21.8508 20.2602 21.8604 20.2369C21.8701 20.2135 21.8751 20.1885 21.8751 20.1633C21.8751 20.138 21.8701 20.113 21.8604 20.0897C21.8508 20.0664 21.8366 20.0452 21.8187 20.0273ZM13.8688 13.3688C12.875 14.3602 11.5578 14.9062 10.1562 14.9062C8.75469 14.9062 7.4375 14.3602 6.44375 13.3688C5.45234 12.375 4.90625 11.0578 4.90625 9.65625C4.90625 8.25469 5.45234 6.93516 6.44375 5.94375C7.4375 4.95234 8.75469 4.40625 10.1562 4.40625C11.5578 4.40625 12.8773 4.95 13.8688 5.94375C14.8602 6.9375 15.4062 8.25469 15.4062 9.65625C15.4062 11.0578 14.8602 12.3773 13.8688 13.3688Z" fill="white"/>
</svg>
