<svg width="109" height="84" viewBox="0 0 109 84" fill="none" xmlns="http://www.w3.org/2000/svg">
<g clip-path="url(#clip0_10_236)">
<g filter="url(#filter0_d_10_236)">
<path d="M68.1875 26.1876V23.797L71.1875 21.172C71.7405 20.6845 72.1034 20.0173 72.212 19.2882C72.3207 18.5591 72.1681 17.8151 71.7812 17.1876L68.0937 10.9376C67.8197 10.463 67.4257 10.0688 66.9513 9.79456C66.4768 9.52031 65.9386 9.37565 65.3906 9.37509C65.051 9.37248 64.7132 9.42526 64.3906 9.53134L60.5937 10.8126C59.9382 10.377 59.2544 9.98548 58.5468 9.64071L57.75 5.70321C57.6071 4.98384 57.2157 4.33765 56.6444 3.87775C56.0731 3.41784 55.3583 3.17353 54.625 3.18759H47.3125C46.5792 3.17353 45.8643 3.41784 45.293 3.87775C44.7217 4.33765 44.3304 4.98384 44.1875 5.70321L43.3906 9.64071C42.678 9.9854 41.989 10.3769 41.3281 10.8126L37.6093 9.46884C37.2832 9.38387 36.9456 9.35221 36.6093 9.37509C36.0613 9.37565 35.5231 9.52031 35.0487 9.79456C34.5742 10.0688 34.1802 10.463 33.9062 10.9376L30.2187 17.1876C29.854 17.8141 29.7185 18.548 29.8354 19.2635C29.9522 19.9789 30.3142 20.6315 30.8593 21.1095L33.8125 23.8126V26.2032L30.8593 28.8282C30.2988 29.3095 29.9269 29.9737 29.8097 30.7031C29.6924 31.4325 29.8373 32.1799 30.2187 32.8126L33.9062 39.0626C34.1802 39.5372 34.5742 39.9314 35.0487 40.2056C35.5231 40.4799 36.0613 40.6245 36.6093 40.6251C36.949 40.6277 37.2867 40.5749 37.6093 40.4688L41.4062 39.1876C42.0617 39.6232 42.7456 40.0147 43.4531 40.3595L44.25 44.297C44.3928 45.0163 44.7842 45.6625 45.3555 46.1224C45.9268 46.5823 46.6417 46.8266 47.375 46.8126H54.75C55.4833 46.8266 56.1981 46.5823 56.7694 46.1224C57.3407 45.6625 57.7321 45.0163 57.875 44.297L58.6718 40.3595C59.3844 40.0148 60.0735 39.6233 60.7343 39.1876L64.5156 40.4688C64.8382 40.5749 65.176 40.6277 65.5156 40.6251C66.0636 40.6245 66.6018 40.4799 67.0763 40.2056C67.5507 39.9314 67.9447 39.5372 68.2187 39.0626L71.7812 32.8126C72.1459 32.186 72.2814 31.4522 72.1646 30.7367C72.0477 30.0212 71.6857 29.3686 71.1406 28.8907L68.1875 26.1876ZM65.3906 37.5001L60.0312 35.6876C58.7766 36.7503 57.3428 37.5809 55.7968 38.1407L54.6875 43.7501H47.3125L46.2031 38.2032C44.6694 37.6276 43.2433 36.7983 41.9843 35.7501L36.6093 37.5001L32.9218 31.2501L37.1718 27.5001C36.8829 25.8827 36.8829 24.2269 37.1718 22.6095L32.9218 18.7501L36.6093 12.5001L41.9687 14.3126C43.2233 13.2499 44.6572 12.4192 46.2031 11.8595L47.3125 6.25009H54.6875L55.7968 11.797C57.3306 12.3726 58.7567 13.2019 60.0156 14.2501L65.3906 12.5001L69.0781 18.7501L64.8281 22.5001C65.117 24.1175 65.117 25.7733 64.8281 27.3907L69.0781 31.2501L65.3906 37.5001Z" fill="white"/>
</g>
<g filter="url(#filter1_d_10_236)">
<path d="M51 34.375C49.1458 34.375 47.3332 33.8252 45.7915 32.795C44.2498 31.7649 43.0482 30.3007 42.3386 28.5877C41.6291 26.8746 41.4434 24.9896 41.8051 23.171C42.1669 21.3525 43.0598 19.682 44.3709 18.3709C45.682 17.0598 47.3525 16.1669 49.171 15.8051C50.9896 15.4434 52.8746 15.6291 54.5877 16.3386C56.3007 17.0482 57.7649 18.2498 58.795 19.7915C59.8252 21.3332 60.375 23.1458 60.375 25C60.3875 26.2346 60.1536 27.4593 59.6869 28.6024C59.2202 29.7455 58.5301 30.784 57.6571 31.6571C56.784 32.5301 55.7455 33.2202 54.6024 33.6869C53.4593 34.1536 52.2346 34.3875 51 34.375ZM51 18.75C50.174 18.7308 49.3526 18.8793 48.5857 19.1866C47.8187 19.4938 47.122 19.9535 46.5377 20.5377C45.9535 21.122 45.4938 21.8187 45.1866 22.5857C44.8793 23.3526 44.7308 24.174 44.75 25C44.7308 25.826 44.8793 26.6474 45.1866 27.4144C45.4938 28.1813 45.9535 28.878 46.5377 29.4623C47.122 30.0465 47.8187 30.5062 48.5857 30.8135C49.3526 31.1207 50.174 31.2692 51 31.25C51.826 31.2692 52.6474 31.1207 53.4144 30.8135C54.1813 30.5062 54.878 30.0465 55.4623 29.4623C56.0465 28.878 56.5062 28.1813 56.8135 27.4144C57.1207 26.6474 57.2692 25.826 57.25 25C57.2692 24.174 57.1207 23.3526 56.8135 22.5857C56.5062 21.8187 56.0465 21.122 55.4623 20.5377C54.878 19.9535 54.1813 19.4938 53.4144 19.1866C52.6474 18.8793 51.826 18.7308 51 18.75Z" fill="white"/>
</g>
</g>
<g filter="url(#filter2_d_10_236)">
<path d="M9.86861 65.3828H7.69105C7.65128 65.1011 7.57008 64.8509 7.44744 64.6321C7.32481 64.41 7.16738 64.2211 6.97514 64.0653C6.78291 63.9096 6.56084 63.7902 6.30895 63.7074C6.06037 63.6245 5.79025 63.5831 5.49858 63.5831C4.97159 63.5831 4.51255 63.714 4.12145 63.9759C3.73035 64.2344 3.42708 64.6122 3.21165 65.1094C2.99621 65.6032 2.88849 66.2031 2.88849 66.9091C2.88849 67.6349 2.99621 68.2448 3.21165 68.7386C3.4304 69.2325 3.73532 69.6054 4.12642 69.8572C4.51752 70.1091 4.96993 70.2351 5.48366 70.2351C5.77202 70.2351 6.03883 70.197 6.28409 70.1207C6.53267 70.0445 6.75308 69.9335 6.94531 69.7876C7.13755 69.6385 7.29664 69.4579 7.42259 69.2457C7.55185 69.0336 7.64134 68.7917 7.69105 68.5199L9.86861 68.5298C9.81226 68.9972 9.6714 69.4479 9.44602 69.8821C9.22396 70.313 8.92401 70.6991 8.54617 71.0405C8.17164 71.3786 7.7242 71.647 7.20384 71.8459C6.68679 72.0414 6.1018 72.1392 5.44886 72.1392C4.54072 72.1392 3.72869 71.9337 3.01278 71.5227C2.30019 71.1117 1.73674 70.5168 1.32244 69.7379C0.911458 68.959 0.705966 68.0161 0.705966 66.9091C0.705966 65.7988 0.914773 64.8542 1.33239 64.0753C1.75 63.2964 2.31676 62.7031 3.03267 62.2955C3.74858 61.8845 4.55398 61.679 5.44886 61.679C6.03883 61.679 6.5857 61.7618 7.08949 61.9276C7.59659 62.0933 8.04569 62.3352 8.43679 62.6534C8.82789 62.9683 9.14607 63.3544 9.39134 63.8118C9.63991 64.2692 9.79901 64.7929 9.86861 65.3828ZM14.8228 72.1491C14.0505 72.1491 13.3827 71.9851 12.8192 71.657C12.2591 71.3255 11.8266 70.8648 11.5217 70.2749C11.2167 69.6816 11.0643 68.9938 11.0643 68.2116C11.0643 67.4228 11.2167 66.7334 11.5217 66.1435C11.8266 65.5502 12.2591 65.0895 12.8192 64.7614C13.3827 64.4299 14.0505 64.2642 14.8228 64.2642C15.5951 64.2642 16.2612 64.4299 16.8214 64.7614C17.3848 65.0895 17.819 65.5502 18.1239 66.1435C18.4289 66.7334 18.5813 67.4228 18.5813 68.2116C18.5813 68.9938 18.4289 69.6816 18.1239 70.2749C17.819 70.8648 17.3848 71.3255 16.8214 71.657C16.2612 71.9851 15.5951 72.1491 14.8228 72.1491ZM14.8327 70.5085C15.1841 70.5085 15.4774 70.4091 15.7127 70.2102C15.948 70.008 16.1254 69.733 16.2447 69.3849C16.3673 69.0369 16.4286 68.6409 16.4286 68.1967C16.4286 67.7526 16.3673 67.3565 16.2447 67.0085C16.1254 66.6605 15.948 66.3854 15.7127 66.1832C15.4774 65.9811 15.1841 65.88 14.8327 65.88C14.4781 65.88 14.1798 65.9811 13.9379 66.1832C13.6992 66.3854 13.5186 66.6605 13.396 67.0085C13.2766 67.3565 13.217 67.7526 13.217 68.1967C13.217 68.6409 13.2766 69.0369 13.396 69.3849C13.5186 69.733 13.6992 70.008 13.9379 70.2102C14.1798 70.4091 14.4781 70.5085 14.8327 70.5085ZM22.0763 67.5852V72H19.9585V64.3636H21.9769V65.7109H22.0664C22.2354 65.2668 22.5188 64.9155 22.9165 64.657C23.3143 64.3951 23.7965 64.2642 24.3633 64.2642C24.8936 64.2642 25.3559 64.3802 25.7504 64.6122C26.1448 64.8442 26.4513 65.1757 26.6701 65.6065C26.8888 66.0341 26.9982 66.5445 26.9982 67.1378V72H24.8803V67.5156C24.8836 67.0483 24.7643 66.6837 24.5224 66.4219C24.2804 66.1567 23.9473 66.0241 23.5231 66.0241C23.238 66.0241 22.9862 66.0855 22.7674 66.2081C22.552 66.3307 22.3829 66.5097 22.2603 66.745C22.141 66.977 22.0797 67.2571 22.0763 67.5852ZM32.774 64.3636V65.9545H28.0609V64.3636H32.774ZM29.1397 72V63.8118C29.1397 63.2583 29.2475 62.7992 29.4629 62.4347C29.6816 62.0701 29.9799 61.7966 30.3578 61.6143C30.7356 61.4321 31.1648 61.3409 31.6454 61.3409C31.9702 61.3409 32.2669 61.3658 32.5353 61.4155C32.8071 61.4652 33.0093 61.5099 33.1419 61.5497L32.764 63.1406C32.6812 63.1141 32.5784 63.0893 32.4558 63.0661C32.3365 63.0429 32.2138 63.0312 32.0879 63.0312C31.7763 63.0312 31.5592 63.1042 31.4366 63.25C31.314 63.3925 31.2527 63.593 31.2527 63.8516V72H29.1397ZM34.0678 72V64.3636H36.1857V72H34.0678ZM35.1317 63.3793C34.8169 63.3793 34.5468 63.2749 34.3214 63.0661C34.0993 62.8539 33.9883 62.6004 33.9883 62.3054C33.9883 62.0137 34.0993 61.7635 34.3214 61.5547C34.5468 61.3426 34.8169 61.2365 35.1317 61.2365C35.4466 61.2365 35.7151 61.3426 35.9371 61.5547C36.1625 61.7635 36.2752 62.0137 36.2752 62.3054C36.2752 62.6004 36.1625 62.8539 35.9371 63.0661C35.7151 63.2749 35.4466 63.3793 35.1317 63.3793ZM41.3226 75.0227C40.6365 75.0227 40.0482 74.9283 39.5577 74.7393C39.0705 74.5537 38.6827 74.3002 38.3944 73.9787C38.106 73.6572 37.9187 73.2959 37.8326 72.8949L39.7914 72.6314C39.851 72.7839 39.9455 72.9264 40.0748 73.0589C40.204 73.1915 40.3747 73.2976 40.5868 73.3771C40.8023 73.46 41.0641 73.5014 41.3723 73.5014C41.833 73.5014 42.2125 73.3887 42.5108 73.1634C42.8124 72.9413 42.9632 72.5684 42.9632 72.0447V70.6477H42.8738C42.781 70.8598 42.6417 71.0604 42.4561 71.2493C42.2705 71.4382 42.0319 71.5923 41.7402 71.7116C41.4486 71.831 41.1006 71.8906 40.6962 71.8906C40.1228 71.8906 39.6008 71.758 39.1301 71.4929C38.6628 71.2244 38.29 70.8151 38.0115 70.2649C37.7364 69.7114 37.5989 69.0121 37.5989 68.1669C37.5989 67.3018 37.7398 66.5793 38.0215 65.9993C38.3032 65.4193 38.6777 64.9851 39.1451 64.6967C39.6157 64.4084 40.1311 64.2642 40.6912 64.2642C41.1188 64.2642 41.4767 64.3371 41.7651 64.483C42.0534 64.6255 42.2855 64.8045 42.4611 65.0199C42.6401 65.232 42.7776 65.4408 42.8738 65.6463H42.9533V64.3636H45.0563V72.0746C45.0563 72.7242 44.8972 73.2678 44.579 73.7053C44.2608 74.1428 43.82 74.4709 43.2566 74.6896C42.6964 74.9117 42.0518 75.0227 41.3226 75.0227ZM41.3674 70.2997C41.7087 70.2997 41.9971 70.2152 42.2324 70.0462C42.4711 69.8738 42.6533 69.6286 42.7793 69.3104C42.9086 68.9889 42.9732 68.6044 42.9732 68.157C42.9732 67.7095 42.9102 67.3217 42.7843 66.9936C42.6583 66.6622 42.476 66.4053 42.2374 66.223C41.9988 66.0407 41.7087 65.9496 41.3674 65.9496C41.0194 65.9496 40.726 66.044 40.4874 66.233C40.2488 66.4186 40.0681 66.6771 39.9455 67.0085C39.8229 67.34 39.7615 67.7228 39.7615 68.157C39.7615 68.5978 39.8229 68.9789 39.9455 69.3004C40.0714 69.6186 40.2521 69.8655 40.4874 70.0412C40.726 70.2135 41.0194 70.2997 41.3674 70.2997ZM51.6387 68.7486V64.3636H53.7566V72H51.7232V70.6129H51.6436C51.4713 71.0604 51.1846 71.42 50.7836 71.6918C50.3858 71.9635 49.9003 72.0994 49.3269 72.0994C48.8165 72.0994 48.3674 71.9834 47.9796 71.7514C47.5918 71.5194 47.2885 71.1896 47.0698 70.7621C46.8543 70.3345 46.745 69.8224 46.7417 69.2259V64.3636H48.8596V68.848C48.8629 69.2988 48.9838 69.6551 49.2225 69.9169C49.4611 70.1787 49.781 70.3097 50.182 70.3097C50.4372 70.3097 50.6758 70.2517 50.8979 70.1357C51.12 70.0163 51.2989 69.8407 51.4348 69.6087C51.574 69.3767 51.642 69.09 51.6387 68.7486ZM55.4506 72V64.3636H57.5039V65.696H57.5835C57.7227 65.2221 57.9563 64.8641 58.2844 64.6222C58.6126 64.3769 58.9904 64.2543 59.418 64.2543C59.524 64.2543 59.6384 64.2609 59.761 64.2741C59.8836 64.2874 59.9914 64.3056 60.0842 64.3288V66.2081C59.9847 66.1783 59.8472 66.1518 59.6715 66.1286C59.4959 66.1054 59.3351 66.0938 59.1893 66.0938C58.8777 66.0938 58.5993 66.1617 58.354 66.2976C58.1121 66.4302 57.9199 66.6158 57.7773 66.8544C57.6381 67.093 57.5685 67.3681 57.5685 67.6797V72H55.4506ZM63.138 72.1442C62.6507 72.1442 62.2166 72.0597 61.8354 71.8906C61.4542 71.7183 61.1526 71.4647 60.9306 71.13C60.7118 70.7919 60.6025 70.371 60.6025 69.8672C60.6025 69.4429 60.6803 69.0866 60.8361 68.7983C60.9919 68.5099 61.204 68.2779 61.4725 68.1023C61.7409 67.9266 62.0459 67.794 62.3873 67.7045C62.7319 67.6151 63.0932 67.5521 63.4711 67.5156C63.9152 67.4692 64.2731 67.4261 64.5449 67.3864C64.8167 67.3433 65.0139 67.2803 65.1365 67.1974C65.2592 67.1146 65.3205 66.992 65.3205 66.8295V66.7997C65.3205 66.4848 65.2211 66.2412 65.0222 66.0689C64.8266 65.8965 64.5482 65.8104 64.187 65.8104C63.8058 65.8104 63.5025 65.8949 63.2772 66.0639C63.0518 66.2296 62.9026 66.4384 62.8297 66.6903L60.8709 66.5312C60.9703 66.0672 61.1659 65.6662 61.4576 65.3281C61.7492 64.9867 62.1254 64.7249 62.5861 64.5426C63.0501 64.357 63.5871 64.2642 64.1969 64.2642C64.6212 64.2642 65.0272 64.3139 65.415 64.4134C65.806 64.5128 66.1524 64.6669 66.454 64.8757C66.7589 65.0845 66.9992 65.353 67.1749 65.6811C67.3506 66.0059 67.4384 66.3954 67.4384 66.8494V72H65.4299V70.9411H65.3702C65.2476 71.1797 65.0835 71.3902 64.878 71.5724C64.6725 71.7514 64.4256 71.8923 64.1373 71.995C63.8489 72.0945 63.5158 72.1442 63.138 72.1442ZM63.7445 70.6825C64.056 70.6825 64.3311 70.6212 64.5698 70.4986C64.8084 70.3726 64.9957 70.2036 65.1316 69.9915C65.2675 69.7794 65.3354 69.5391 65.3354 69.2706V68.4602C65.2691 68.5033 65.178 68.5431 65.062 68.5795C64.9493 68.6127 64.8217 68.6442 64.6792 68.674C64.5366 68.7005 64.3941 68.7254 64.2516 68.7486C64.1091 68.7685 63.9798 68.7867 63.8638 68.8033C63.6152 68.8397 63.3981 68.8977 63.2125 68.9773C63.0269 69.0568 62.8828 69.1645 62.78 69.3004C62.6773 69.433 62.6259 69.5987 62.6259 69.7976C62.6259 70.0859 62.7303 70.3063 62.9391 70.4588C63.1512 70.608 63.4197 70.6825 63.7445 70.6825ZM72.5318 72.1491C71.7496 72.1491 71.0768 71.9834 70.5133 71.652C69.9532 71.3172 69.5223 70.8532 69.2207 70.2599C68.9224 69.6667 68.7733 68.9839 68.7733 68.2116C68.7733 67.4295 68.9241 66.7434 69.2257 66.1534C69.5306 65.5601 69.9631 65.0978 70.5233 64.7663C71.0834 64.4316 71.7496 64.2642 72.5218 64.2642C73.188 64.2642 73.7714 64.3852 74.2718 64.6271C74.7723 64.8691 75.1684 65.2088 75.46 65.6463C75.7517 66.0838 75.9125 66.5975 75.9423 67.1875H73.9437C73.8874 66.8063 73.7382 66.4998 73.4963 66.2678C73.2576 66.0324 72.9444 65.9148 72.5566 65.9148C72.2285 65.9148 71.9418 66.0043 71.6966 66.1832C71.4546 66.3589 71.2657 66.6158 71.1298 66.9538C70.9939 67.2919 70.926 67.7012 70.926 68.1818C70.926 68.669 70.9922 69.0833 71.1248 69.4247C71.2607 69.7661 71.4513 70.0263 71.6966 70.2053C71.9418 70.3842 72.2285 70.4737 72.5566 70.4737C72.7986 70.4737 73.0157 70.424 73.2079 70.3246C73.4035 70.2251 73.5642 70.081 73.6902 69.892C73.8194 69.6998 73.9039 69.4695 73.9437 69.201H75.9423C75.9092 69.7843 75.7501 70.2981 75.465 70.7422C75.1833 71.183 74.7939 71.5277 74.2967 71.7763C73.7995 72.0249 73.2112 72.1491 72.5318 72.1491ZM72.0346 71.9602H73.0091L72.9295 72.3928C73.2709 72.4458 73.5493 72.5734 73.7647 72.7756C73.9835 72.9777 74.0945 73.2528 74.0978 73.6009C74.1011 74.0947 73.8725 74.4875 73.4118 74.7791C72.9511 75.0741 72.3047 75.2216 71.4728 75.2216L71.4529 74.277C71.8706 74.277 72.197 74.2256 72.4324 74.1229C72.671 74.0234 72.7953 73.8677 72.8052 73.6555C72.8118 73.4534 72.734 73.2992 72.5716 73.1932C72.4092 73.0871 72.1556 73.0125 71.8109 72.9695L72.0346 71.9602ZM80.7486 72.1491C79.9763 72.1491 79.3085 71.9851 78.745 71.657C78.1849 71.3255 77.7524 70.8648 77.4474 70.2749C77.1425 69.6816 76.9901 68.9938 76.9901 68.2116C76.9901 67.4228 77.1425 66.7334 77.4474 66.1435C77.7524 65.5502 78.1849 65.0895 78.745 64.7614C79.3085 64.4299 79.9763 64.2642 80.7486 64.2642C81.5208 64.2642 82.187 64.4299 82.7472 64.7614C83.3106 65.0895 83.7448 65.5502 84.0497 66.1435C84.3546 66.7334 84.5071 67.4228 84.5071 68.2116C84.5071 68.9938 84.3546 69.6816 84.0497 70.2749C83.7448 70.8648 83.3106 71.3255 82.7472 71.657C82.187 71.9851 81.5208 72.1491 80.7486 72.1491ZM80.7585 70.5085C81.1098 70.5085 81.4032 70.4091 81.6385 70.2102C81.8738 70.008 82.0511 69.733 82.1705 69.3849C82.2931 69.0369 82.3544 68.6409 82.3544 68.1967C82.3544 67.7526 82.2931 67.3565 82.1705 67.0085C82.0511 66.6605 81.8738 66.3854 81.6385 66.1832C81.4032 65.9811 81.1098 65.88 80.7585 65.88C80.4039 65.88 80.1056 65.9811 79.8636 66.1832C79.625 66.3854 79.4444 66.6605 79.3217 67.0085C79.2024 67.3565 79.1428 67.7526 79.1428 68.1967C79.1428 68.6409 79.2024 69.0369 79.3217 69.3849C79.4444 69.733 79.625 70.008 79.8636 70.2102C80.1056 70.4091 80.4039 70.5085 80.7585 70.5085ZM79.3267 63.424L78.1484 63.4091C78.1484 62.776 78.3042 62.2905 78.6158 61.9524C78.9306 61.6143 79.3134 61.4437 79.7642 61.4403C79.9962 61.4403 80.1951 61.4785 80.3608 61.5547C80.5298 61.6276 80.6806 61.7138 80.8132 61.8132C80.9491 61.9126 81.0784 62.0005 81.201 62.0767C81.3236 62.1496 81.4562 62.1861 81.5987 62.1861C81.791 62.1828 81.9368 62.1115 82.0362 61.9723C82.139 61.8298 82.1903 61.6442 82.1903 61.4155L83.3487 61.4503C83.3421 62.0767 83.183 62.5606 82.8714 62.902C82.5599 63.2401 82.1804 63.4107 81.733 63.4141C81.4844 63.4141 81.2756 63.3776 81.1065 63.3047C80.9408 63.2285 80.795 63.1423 80.669 63.0462C80.5431 62.9467 80.4205 62.8589 80.3011 62.7827C80.1818 62.7064 80.0476 62.6683 79.8984 62.6683C79.7261 62.6683 79.5869 62.7363 79.4808 62.8722C79.3781 63.008 79.3267 63.192 79.3267 63.424ZM89.3643 72.1491C88.5788 72.1491 87.9027 71.9901 87.3359 71.6719C86.7725 71.3504 86.3383 70.8963 86.0334 70.3097C85.7285 69.7197 85.576 69.022 85.576 68.2166C85.576 67.4311 85.7285 66.7417 86.0334 66.1484C86.3383 65.5552 86.7675 65.0928 87.321 64.7614C87.8778 64.4299 88.5308 64.2642 89.2798 64.2642C89.7836 64.2642 90.2526 64.3454 90.6868 64.5078C91.1243 64.6669 91.5054 64.9072 91.8303 65.2287C92.1584 65.5502 92.4136 65.9545 92.5959 66.4418C92.7782 66.9257 92.8693 67.4924 92.8693 68.142V68.7237H86.4212V67.4112H90.8757C90.8757 67.1063 90.8094 66.8362 90.6768 66.6009C90.5443 66.3655 90.3603 66.1816 90.125 66.049C89.893 65.9131 89.6229 65.8452 89.3146 65.8452C88.9931 65.8452 88.7081 65.9197 88.4595 66.0689C88.2143 66.2147 88.022 66.4119 87.8828 66.6605C87.7436 66.9058 87.6723 67.1792 87.669 67.4808V68.7287C87.669 69.1065 87.7386 69.433 87.8778 69.7081C88.0204 69.9832 88.2209 70.1953 88.4794 70.3445C88.7379 70.4936 89.0445 70.5682 89.3991 70.5682C89.6345 70.5682 89.8499 70.535 90.0455 70.4688C90.241 70.4025 90.4084 70.303 90.5476 70.1705C90.6868 70.0379 90.7929 69.8755 90.8658 69.6832L92.8246 69.8125C92.7251 70.2831 92.5213 70.6941 92.2131 71.0455C91.9081 71.3935 91.5137 71.6652 91.0298 71.8608C90.5492 72.053 89.9941 72.1491 89.3643 72.1491ZM100.605 66.5412L98.6662 66.6605C98.633 66.4948 98.5618 66.3456 98.4524 66.2131C98.343 66.0772 98.1989 65.9695 98.0199 65.8899C97.8442 65.8071 97.6338 65.7656 97.3885 65.7656C97.0604 65.7656 96.7836 65.8352 96.5582 65.9744C96.3329 66.1103 96.2202 66.2926 96.2202 66.5213C96.2202 66.7036 96.2931 66.8577 96.4389 66.9837C96.5848 67.1096 96.835 67.2107 97.1896 67.2869L98.5717 67.5653C99.3142 67.7178 99.8677 67.9631 100.232 68.3011C100.597 68.6392 100.779 69.0833 100.779 69.6335C100.779 70.134 100.632 70.5732 100.337 70.951C100.045 71.3288 99.6439 71.6238 99.1335 71.8359C98.6264 72.0447 98.0414 72.1491 97.3786 72.1491C96.3677 72.1491 95.5623 71.9387 94.9624 71.5178C94.3658 71.0935 94.0161 70.5168 93.9134 69.7876L95.9964 69.6783C96.0594 69.9865 96.2119 70.2218 96.4538 70.3842C96.6958 70.5433 97.0057 70.6229 97.3835 70.6229C97.7547 70.6229 98.053 70.5516 98.2784 70.4091C98.5071 70.2633 98.6231 70.076 98.6264 69.8473C98.6231 69.6551 98.5419 69.4976 98.3828 69.375C98.2237 69.2491 97.9785 69.1529 97.647 69.0866L96.3246 68.8232C95.5788 68.674 95.0237 68.4155 94.6591 68.0476C94.2978 67.6797 94.1172 67.2107 94.1172 66.6406C94.1172 66.1501 94.2498 65.7275 94.5149 65.3729C94.7834 65.0182 95.1596 64.7448 95.6435 64.5526C96.1307 64.3603 96.7008 64.2642 97.3537 64.2642C98.3182 64.2642 99.0772 64.468 99.6307 64.8757C100.188 65.2834 100.512 65.8385 100.605 66.5412Z" fill="white"/>
</g>
<defs>
<filter id="filter0_d_10_236" x="25.77" y="3.18701" width="50.4761" height="51.6262" filterUnits="userSpaceOnUse" color-interpolation-filters="sRGB">
<feFlood flood-opacity="0" result="BackgroundImageFix"/>
<feColorMatrix in="SourceAlpha" type="matrix" values="0 0 0 0 0 0 0 0 0 0 0 0 0 0 0 0 0 0 127 0" result="hardAlpha"/>
<feOffset dy="4"/>
<feGaussianBlur stdDeviation="2"/>
<feComposite in2="hardAlpha" operator="out"/>
<feColorMatrix type="matrix" values="0 0 0 0 0 0 0 0 0 0 0 0 0 0 0 0 0 0 0.25 0"/>
<feBlend mode="normal" in2="BackgroundImageFix" result="effect1_dropShadow_10_236"/>
<feBlend mode="normal" in="SourceGraphic" in2="effect1_dropShadow_10_236" result="shape"/>
</filter>
<filter id="filter1_d_10_236" x="37.625" y="15.625" width="26.7505" height="26.7505" filterUnits="userSpaceOnUse" color-interpolation-filters="sRGB">
<feFlood flood-opacity="0" result="BackgroundImageFix"/>
<feColorMatrix in="SourceAlpha" type="matrix" values="0 0 0 0 0 0 0 0 0 0 0 0 0 0 0 0 0 0 127 0" result="hardAlpha"/>
<feOffset dy="4"/>
<feGaussianBlur stdDeviation="2"/>
<feComposite in2="hardAlpha" operator="out"/>
<feColorMatrix type="matrix" values="0 0 0 0 0 0 0 0 0 0 0 0 0 0 0 0 0 0 0.25 0"/>
<feBlend mode="normal" in2="BackgroundImageFix" result="effect1_dropShadow_10_236"/>
<feBlend mode="normal" in="SourceGraphic" in2="effect1_dropShadow_10_236" result="shape"/>
</filter>
<filter id="filter2_d_10_236" x="0.706055" y="61.2366" width="108.073" height="21.9851" filterUnits="userSpaceOnUse" color-interpolation-filters="sRGB">
<feFlood flood-opacity="0" result="BackgroundImageFix"/>
<feColorMatrix in="SourceAlpha" type="matrix" values="0 0 0 0 0 0 0 0 0 0 0 0 0 0 0 0 0 0 127 0" result="hardAlpha"/>
<feOffset dx="4" dy="4"/>
<feGaussianBlur stdDeviation="2"/>
<feComposite in2="hardAlpha" operator="out"/>
<feColorMatrix type="matrix" values="0 0 0 0 0 0 0 0 0 0 0 0 0 0 0 0 0 0 0.25 0"/>
<feBlend mode="normal" in2="BackgroundImageFix" result="effect1_dropShadow_10_236"/>
<feBlend mode="normal" in="SourceGraphic" in2="effect1_dropShadow_10_236" result="shape"/>
</filter>
<clipPath id="clip0_10_236">
<rect width="50" height="50" fill="white" transform="translate(26)"/>
</clipPath>
</defs>
</svg>
