<svg width="21" height="21" viewBox="0 0 21 21" fill="none" xmlns="http://www.w3.org/2000/svg">
<path d="M9.34851 5.23527V1.33127C9.34851 0.991792 9.24026 0.666219 9.04756 0.426173C8.85487 0.186126 8.59352 0.0512695 8.321 0.0512695C8.05145 0.0526834 7.79313 0.185997 7.60174 0.422469L0.409161 9.38247C0.312854 9.50146 0.236413 9.64303 0.184247 9.79901C0.132082 9.95499 0.105225 10.1223 0.105225 10.2913C0.105225 10.4602 0.132082 10.6275 0.184247 10.7835C0.236413 10.9395 0.312854 11.0811 0.409161 11.2001L7.60174 20.1601C7.74599 20.3362 7.92871 20.4555 8.12707 20.503C8.32542 20.5505 8.53062 20.5241 8.717 20.4271C8.90339 20.3301 9.06269 20.1669 9.17501 19.9577C9.28733 19.7486 9.34768 19.5029 9.34851 19.2513V15.2833H10.2219C11.8453 15.2531 13.4545 15.6634 14.9378 16.4856C16.4212 17.3079 17.7431 18.5224 18.8119 20.0449C18.9407 20.2585 19.1199 20.4165 19.3245 20.4969C19.529 20.5772 19.7486 20.5758 19.9524 20.4929C20.1599 20.4057 20.3396 20.2382 20.4653 20.0148C20.5909 19.7915 20.6561 19.524 20.6511 19.2513C20.6511 7.57767 12.3488 5.58087 9.34851 5.23527V5.23527ZM10.2219 12.6977C9.53466 12.695 8.84806 12.7506 8.16688 12.8641C7.92362 12.91 7.70169 13.0632 7.54141 13.2958C7.38114 13.5283 7.29317 13.8248 7.29349 14.1313V16.1665L2.58749 10.2913L7.29349 4.41607V6.45127C7.29349 6.79075 7.40175 7.11632 7.59444 7.35637C7.78714 7.59641 8.04849 7.73127 8.321 7.73127C9.25604 7.73127 16.6541 7.98727 18.257 15.9617C15.9304 13.8248 13.1125 12.6801 10.2219 12.6977V12.6977Z" fill="white"/>
</svg>
