<svg width="227" height="50" viewBox="0 0 227 50" fill="none" xmlns="http://www.w3.org/2000/svg">
<g filter="url(#filter0_d_10_48)">
<path d="M21.8026 14.6364V35H18.0838L9.22443 22.1832H9.07528V35H4.76989V14.6364H8.5483L17.3381 27.4432H17.517V14.6364H21.8026ZM32.1808 35.2983C30.6362 35.2983 29.3005 34.9702 28.1737 34.3139C27.0534 33.651 26.1883 32.7296 25.5785 31.5497C24.9686 30.3632 24.6637 28.9877 24.6637 27.4233C24.6637 25.8456 24.9686 24.4669 25.5785 23.2869C26.1883 22.1004 27.0534 21.179 28.1737 20.5227C29.3005 19.8598 30.6362 19.5284 32.1808 19.5284C33.7253 19.5284 35.0576 19.8598 36.1779 20.5227C37.3048 21.179 38.1732 22.1004 38.783 23.2869C39.3929 24.4669 39.6978 25.8456 39.6978 27.4233C39.6978 28.9877 39.3929 30.3632 38.783 31.5497C38.1732 32.7296 37.3048 33.651 36.1779 34.3139C35.0576 34.9702 33.7253 35.2983 32.1808 35.2983ZM32.2006 32.017C32.9033 32.017 33.4899 31.8182 33.9606 31.4205C34.4312 31.0161 34.7859 30.4659 35.0245 29.7699C35.2698 29.0739 35.3924 28.2817 35.3924 27.3935C35.3924 26.5052 35.2698 25.7131 35.0245 25.017C34.7859 24.321 34.4312 23.7708 33.9606 23.3665C33.4899 22.9621 32.9033 22.7599 32.2006 22.7599C31.4914 22.7599 30.8948 22.9621 30.4109 23.3665C29.9336 23.7708 29.5723 24.321 29.3271 25.017C29.0884 25.7131 28.9691 26.5052 28.9691 27.3935C28.9691 28.2817 29.0884 29.0739 29.3271 29.7699C29.5723 30.4659 29.9336 31.0161 30.4109 31.4205C30.8948 31.8182 31.4914 32.017 32.2006 32.017ZM50.5756 19.7273V22.9091H41.3782V19.7273H50.5756ZM43.4663 16.0682H47.7021V30.3068C47.7021 30.6979 47.7617 31.0028 47.881 31.2216C48.0004 31.4337 48.1661 31.5829 48.3782 31.669C48.5969 31.7552 48.8488 31.7983 49.1339 31.7983C49.3327 31.7983 49.5316 31.7817 49.7305 31.7486C49.9293 31.7088 50.0818 31.679 50.1879 31.6591L50.854 34.8111C50.6419 34.8774 50.3436 34.9536 49.9592 35.0398C49.5747 35.1326 49.1074 35.1889 48.5572 35.2088C47.5363 35.2486 46.6415 35.1127 45.8725 34.8011C45.1102 34.4896 44.5169 34.0057 44.0927 33.3494C43.6684 32.6932 43.4596 31.8646 43.4663 30.8636V16.0682ZM53.3349 35V19.7273H57.5707V35H53.3349ZM53.9414 17.7585L56.0494 13.2344H59.967L56.9343 17.7585H53.9414ZM67.8643 35.2983C66.3 35.2983 64.9543 34.9669 63.8274 34.304C62.7071 33.6345 61.8454 32.7064 61.2422 31.5199C60.6456 30.3333 60.3473 28.9678 60.3473 27.4233C60.3473 25.8589 60.6489 24.4867 61.2521 23.3068C61.862 22.1203 62.727 21.1955 63.8473 20.5327C64.9676 19.8632 66.3 19.5284 67.8445 19.5284C69.1768 19.5284 70.3435 19.7704 71.3445 20.2543C72.3454 20.7382 73.1375 21.4176 73.7209 22.2926C74.3042 23.1676 74.6257 24.1951 74.6854 25.375H70.6882C70.5755 24.6127 70.2772 23.9995 69.7933 23.5355C69.3161 23.0649 68.6896 22.8295 67.9141 22.8295C67.2578 22.8295 66.6844 23.0085 66.1939 23.3665C65.71 23.7178 65.3321 24.2315 65.0604 24.9077C64.7886 25.5838 64.6527 26.4025 64.6527 27.3636C64.6527 28.3381 64.7853 29.1667 65.0504 29.8494C65.3222 30.5322 65.7034 31.0526 66.1939 31.4105C66.6844 31.7685 67.2578 31.9474 67.9141 31.9474C68.398 31.9474 68.8322 31.848 69.2166 31.6491C69.6077 31.4503 69.9292 31.1619 70.1811 30.7841C70.4396 30.3996 70.6087 29.9389 70.6882 29.402H74.6854C74.6191 30.5687 74.3009 31.5961 73.7308 32.4844C73.1674 33.366 72.3885 34.0554 71.3942 34.5526C70.3999 35.0497 69.2232 35.2983 67.8643 35.2983ZM77.3974 35V19.7273H81.6332V35H77.3974ZM79.5252 17.7585C78.8955 17.7585 78.3552 17.5497 77.9045 17.1321C77.4603 16.7079 77.2383 16.2008 77.2383 15.6108C77.2383 15.0275 77.4603 14.527 77.9045 14.1094C78.3552 13.6851 78.8955 13.473 79.5252 13.473C80.1549 13.473 80.6919 13.6851 81.136 14.1094C81.5868 14.527 81.8121 15.0275 81.8121 15.6108C81.8121 16.2008 81.5868 16.7079 81.136 17.1321C80.6919 17.5497 80.1549 17.7585 79.5252 17.7585ZM89.3814 35.2884C88.407 35.2884 87.5386 35.1193 86.7763 34.7812C86.014 34.4366 85.4107 33.9295 84.9666 33.2599C84.5291 32.5838 84.3104 31.742 84.3104 30.7344C84.3104 29.8859 84.4661 29.1733 84.7777 28.5966C85.0893 28.0199 85.5135 27.5559 86.0504 27.2045C86.5874 26.8532 87.1972 26.5881 87.88 26.4091C88.5694 26.2301 89.2919 26.1042 90.0476 26.0312C90.9358 25.9384 91.6518 25.8523 92.1953 25.7727C92.7389 25.6866 93.1333 25.5606 93.3786 25.3949C93.6238 25.2292 93.7464 24.9839 93.7464 24.6591V24.5994C93.7464 23.9697 93.5476 23.4825 93.1499 23.1378C92.7588 22.7931 92.2019 22.6207 91.4794 22.6207C90.7171 22.6207 90.1106 22.7898 89.6598 23.1278C89.209 23.4593 88.9107 23.8769 88.7649 24.3807L84.8473 24.0625C85.0462 23.1345 85.4373 22.3324 86.0206 21.6562C86.6039 20.9735 87.3563 20.4498 88.2777 20.0852C89.2057 19.714 90.2796 19.5284 91.4993 19.5284C92.3478 19.5284 93.1598 19.6278 93.9354 19.8267C94.7176 20.0256 95.4103 20.3338 96.0135 20.7514C96.6233 21.169 97.1039 21.706 97.4553 22.3622C97.8066 23.0118 97.9822 23.7907 97.9822 24.6989V35H93.9652V32.8821H93.8459C93.6006 33.3594 93.2725 33.7803 92.8615 34.1449C92.4505 34.5028 91.9567 34.7846 91.38 34.9901C90.8033 35.1889 90.1371 35.2884 89.3814 35.2884ZM90.5945 32.3651C91.2176 32.3651 91.7678 32.2424 92.245 31.9972C92.7223 31.7453 93.0968 31.4072 93.3686 30.983C93.6404 30.5587 93.7763 30.0781 93.7763 29.5412V27.9205C93.6437 28.0066 93.4614 28.0862 93.2294 28.1591C93.004 28.2254 92.7488 28.2884 92.4638 28.348C92.1787 28.401 91.8937 28.4508 91.6087 28.4972C91.3236 28.5369 91.0651 28.5734 90.8331 28.6065C90.3359 28.6795 89.9018 28.7955 89.5305 28.9545C89.1593 29.1136 88.871 29.3291 88.6655 29.6009C88.46 29.866 88.3572 30.1974 88.3572 30.5952C88.3572 31.1719 88.5661 31.6127 88.9837 31.9176C89.4079 32.2159 89.9448 32.3651 90.5945 32.3651ZM113.976 24.0824L110.098 24.321C110.032 23.9896 109.889 23.6913 109.67 23.4261C109.452 23.1544 109.163 22.9389 108.805 22.7798C108.454 22.6141 108.033 22.5312 107.543 22.5312C106.886 22.5312 106.333 22.6705 105.882 22.9489C105.431 23.2206 105.206 23.5852 105.206 24.0426C105.206 24.4072 105.352 24.7154 105.643 24.9673C105.935 25.2192 106.436 25.4214 107.145 25.5739L109.909 26.1307C111.394 26.4356 112.501 26.9261 113.23 27.6023C113.959 28.2784 114.324 29.1667 114.324 30.267C114.324 31.268 114.029 32.1463 113.439 32.902C112.856 33.6577 112.054 34.2476 111.033 34.6719C110.018 35.0895 108.848 35.2983 107.523 35.2983C105.501 35.2983 103.89 34.8774 102.69 34.0355C101.497 33.187 100.798 32.0336 100.592 30.5753L104.759 30.3565C104.884 30.973 105.189 31.4437 105.673 31.7685C106.157 32.0866 106.777 32.2457 107.533 32.2457C108.275 32.2457 108.872 32.1032 109.322 31.8182C109.78 31.5265 110.012 31.152 110.018 30.6946C110.012 30.3101 109.849 29.9953 109.531 29.75C109.213 29.4981 108.723 29.3059 108.06 29.1733L105.415 28.6463C103.923 28.348 102.813 27.831 102.084 27.0952C101.361 26.3594 101 25.4214 101 24.2812C101 23.3002 101.265 22.455 101.795 21.7457C102.332 21.0365 103.085 20.4896 104.053 20.1051C105.027 19.7206 106.167 19.5284 107.473 19.5284C109.402 19.5284 110.92 19.9361 112.027 20.7514C113.141 21.5668 113.79 22.6771 113.976 24.0824ZM129.099 35.2486C127.939 35.2486 126.889 34.9503 125.947 34.3537C125.013 33.7505 124.27 32.8655 123.72 31.6989C123.177 30.5256 122.905 29.0871 122.905 27.3835C122.905 25.6335 123.187 24.1785 123.75 23.0185C124.313 21.8518 125.063 20.9801 125.997 20.4034C126.938 19.8201 127.969 19.5284 129.089 19.5284C129.945 19.5284 130.657 19.6742 131.227 19.9659C131.804 20.2509 132.268 20.6089 132.619 21.0398C132.977 21.464 133.249 21.8816 133.435 22.2926H133.564V14.6364H137.79V35H133.614V32.554H133.435C133.236 32.9782 132.954 33.3991 132.589 33.8168C132.232 34.2277 131.764 34.5691 131.188 34.8409C130.617 35.1127 129.921 35.2486 129.099 35.2486ZM130.442 31.8778C131.125 31.8778 131.701 31.6922 132.172 31.321C132.649 30.9432 133.014 30.4162 133.266 29.7401C133.524 29.0639 133.653 28.2718 133.653 27.3636C133.653 26.4555 133.527 25.6667 133.276 24.9972C133.024 24.3277 132.659 23.8106 132.182 23.446C131.705 23.0814 131.125 22.8991 130.442 22.8991C129.746 22.8991 129.159 23.0881 128.682 23.4659C128.205 23.8437 127.843 24.3674 127.598 25.0369C127.353 25.7064 127.23 26.482 127.23 27.3636C127.23 28.2519 127.353 29.0374 127.598 29.7202C127.85 30.3963 128.211 30.9266 128.682 31.3111C129.159 31.6889 129.746 31.8778 130.442 31.8778ZM148.173 35.2983C146.628 35.2983 145.293 34.9702 144.166 34.3139C143.046 33.651 142.181 32.7296 141.571 31.5497C140.961 30.3632 140.656 28.9877 140.656 27.4233C140.656 25.8456 140.961 24.4669 141.571 23.2869C142.181 22.1004 143.046 21.179 144.166 20.5227C145.293 19.8598 146.628 19.5284 148.173 19.5284C149.717 19.5284 151.05 19.8598 152.17 20.5227C153.297 21.179 154.165 22.1004 154.775 23.2869C155.385 24.4669 155.69 25.8456 155.69 27.4233C155.69 28.9877 155.385 30.3632 154.775 31.5497C154.165 32.7296 153.297 33.651 152.17 34.3139C151.05 34.9702 149.717 35.2983 148.173 35.2983ZM148.193 32.017C148.895 32.017 149.482 31.8182 149.953 31.4205C150.423 31.0161 150.778 30.4659 151.017 29.7699C151.262 29.0739 151.385 28.2817 151.385 27.3935C151.385 26.5052 151.262 25.7131 151.017 25.017C150.778 24.321 150.423 23.7708 149.953 23.3665C149.482 22.9621 148.895 22.7599 148.193 22.7599C147.484 22.7599 146.887 22.9621 146.403 23.3665C145.926 23.7708 145.565 24.321 145.319 25.017C145.081 25.7131 144.961 26.5052 144.961 27.3935C144.961 28.2817 145.081 29.0739 145.319 29.7699C145.565 30.4659 145.926 31.0161 146.403 31.4205C146.887 31.8182 147.484 32.017 148.193 32.017Z" fill="white"/>
</g>
<g clip-path="url(#clip0_10_48)">
<g filter="url(#filter1_d_10_48)">
<path d="M222.039 43.5391H181.961C179.805 43.5391 178.055 41.7891 178.055 39.6328V11.5078C178.055 9.35156 179.805 7.60156 181.961 7.60156H222.039C224.195 7.60156 225.945 9.35156 225.945 11.5078V39.6328C225.945 41.793 224.195 43.5391 222.039 43.5391Z" fill="#016CA2"/>
</g>
<path d="M201.984 23.3633L201.973 23.3672C201.879 23.4024 201.852 23.5196 201.914 23.5977L202.305 24.0703L202.57 23.8438L202.145 23.3985C202.124 23.3778 202.098 23.3635 202.07 23.3573C202.041 23.3511 202.012 23.3531 201.984 23.3633ZM195.645 30.8438L194.617 30.3086C194.527 30.2617 194.422 30.2344 194.32 30.2344H194.023C193.997 30.2337 193.971 30.2235 193.951 30.2057C193.931 30.1878 193.918 30.1634 193.914 30.1368C193.883 29.8086 193.605 29.5547 193.277 29.5547H193.184C192.984 29.5547 192.797 29.461 192.676 29.3008L192.535 29.1133C192.426 28.9688 192.262 28.8789 192.082 28.8633L191.316 28.7969C191.298 28.7964 191.28 28.7895 191.266 28.7774L191.141 28.6914C191.105 28.668 191.062 28.6641 191.027 28.6875L190.48 28.9961C190.383 29.0508 190.277 29.0782 190.164 29.0782H189.602C189.582 29.0782 189.566 29.0743 189.551 29.0664C189.488 29.0313 189.344 28.9219 189.344 28.6797V28.3555C189.344 28.3411 189.341 28.3269 189.335 28.3136C189.33 28.3004 189.322 28.2883 189.312 28.2782C189.302 28.268 189.29 28.2599 189.276 28.2545C189.263 28.249 189.249 28.2461 189.234 28.2461H188.879C188.86 28.246 188.841 28.2408 188.825 28.2311C188.808 28.2214 188.794 28.2076 188.785 28.191C188.775 28.1744 188.77 28.1556 188.771 28.1365C188.771 28.1174 188.776 28.0986 188.785 28.0821L188.953 27.7891C188.961 27.7735 188.969 27.7539 188.969 27.7344V27.4766C188.969 27.4476 188.957 27.4198 188.937 27.3993C188.916 27.3787 188.888 27.3672 188.859 27.3672H188.664C188.629 27.3672 188.594 27.3868 188.574 27.418L188.465 27.5899C188.348 27.7735 188.145 27.8828 187.926 27.8828H187.77C187.77 27.8828 187.516 27.836 187.516 27.5664V26.586C187.52 26.5547 187.543 26.4571 187.648 26.3907C187.742 26.3321 187.961 26.2149 188.07 26.1563C188.109 26.1367 188.16 26.1407 188.195 26.1719L188.402 26.3633C188.422 26.3828 188.445 26.3907 188.473 26.3907C188.539 26.3907 188.66 26.3946 188.684 26.3828C188.715 26.3672 188.637 26.2266 188.824 26.168C189.016 26.1133 189.141 26.2852 189.141 26.2852L189.625 26.8594C189.66 26.9024 189.723 26.9102 189.77 26.8789L189.84 26.8321C189.887 26.8008 189.902 26.7383 189.875 26.6875L189.867 26.6719C189.711 26.4024 189.77 26.0586 190.008 25.8594L190.41 25.5196C190.41 25.5196 190.457 25.4883 190.48 25.3125C190.496 25.2071 190.523 25.0508 190.543 24.9414C190.586 24.8711 190.621 24.8047 190.664 24.7344L191.531 24.0039C191.582 23.961 191.656 23.9727 191.691 24.0274C191.734 24.0899 191.805 24.1602 191.895 24.1563C192.031 24.1485 192.371 23.9649 192.504 23.8868C192.521 23.8775 192.535 23.864 192.544 23.8474C192.554 23.8309 192.559 23.8121 192.559 23.793V23.6563L192.141 23.7422C192.082 23.7539 192.023 23.7149 192.012 23.6524L191.965 23.3789C191.96 23.354 191.948 23.3314 191.928 23.315C191.909 23.2986 191.885 23.2894 191.859 23.2891L191.441 23.336L191.492 23.211C191.508 23.168 191.547 23.1407 191.594 23.1328L192.625 23.0235C192.719 22.9844 192.859 22.9297 192.953 22.8907L193.16 22.7305C193.211 22.6914 193.215 22.6172 193.172 22.5703L192.012 21.3828C191.996 21.3669 191.975 21.3561 191.953 21.3519C191.931 21.3478 191.908 21.3504 191.887 21.3594L191.539 21.5235C191.504 21.5391 191.461 21.5352 191.43 21.5157L190.469 20.8399C190.457 20.8317 190.445 20.8258 190.431 20.8225C190.418 20.8192 190.403 20.8187 190.39 20.8208C190.376 20.823 190.363 20.8279 190.351 20.8352C190.339 20.8425 190.329 20.852 190.32 20.8633L190.172 21.0664C190.16 21.0821 190.152 21.1016 190.152 21.125L190.125 21.6289C190.125 21.6602 190.133 21.6875 190.156 21.711L190.297 21.8555C190.344 21.9024 190.336 21.9805 190.281 22.0196L190.074 22.168C190.06 22.1781 190.044 22.1848 190.027 22.1875C190.01 22.1902 189.993 22.1889 189.977 22.1836L189.508 22.2618C189.441 22.086 189.297 21.9492 189.117 21.8867L188.883 21.8047C188.457 21.6602 188.313 21.1328 188.598 20.7891L189.055 20.2383C189.066 20.223 189.074 20.205 189.078 20.186C189.081 20.167 189.08 20.1474 189.074 20.1289L188.945 19.7969L188.922 19.7618L188.406 19.211C188.203 18.9961 187.84 19.1055 187.793 19.3985L187.789 19.4297C187.762 19.6016 187.609 19.7305 187.437 19.7305H185.902C185.816 19.711 185.73 19.6953 185.641 19.6758L184.59 19.2071C184.516 19.1875 184.445 19.1719 184.371 19.1524L183.406 19.0899C183.316 19.1055 183.227 19.1172 183.137 19.1328L182.703 19.3008C182.586 19.3438 182.461 19.3555 182.34 19.3282L180.195 18.8711C180.066 18.8438 179.93 18.8555 179.809 18.9102L178.797 19.3438C178.723 19.375 178.707 19.4727 178.77 19.5274L179.035 19.75C179.109 19.8125 179.066 19.9375 178.969 19.9414L178.57 19.9493C178.512 19.9493 178.465 20 178.465 20.0586V20.1133C178.465 20.1719 178.512 20.2188 178.57 20.2227L178.914 20.2266C179.031 20.2305 179.063 20.3868 178.957 20.4336L178.66 20.5664C178.617 20.586 178.594 20.6289 178.598 20.6758L178.625 20.9727C178.652 21.2657 178.871 21.5 179.164 21.5469L179.375 21.5821C179.477 21.5977 179.5 21.7305 179.414 21.7813L179.348 21.8203C179.277 21.8633 179.277 21.9649 179.348 22.0039L179.383 22.0235C179.414 22.043 179.449 22.043 179.484 22.0313L181.293 21.2149C181.527 21.1094 181.801 21.1524 181.988 21.3282L183.711 22.9024C183.836 23.0157 183.91 23.1758 183.918 23.3438L183.977 24.5469C183.984 24.6836 184.031 24.8125 184.117 24.918L185.812 27.0274C185.844 27.0664 185.898 27.0782 185.945 27.0547C186.004 27.0235 186.023 26.9492 185.984 26.8946C185.984 26.8946 187.055 28.0039 187.156 28.0508L188.023 28.4805C188.113 28.5235 188.207 28.5469 188.309 28.5469H188.738C188.781 28.5469 188.82 28.5703 188.836 28.6094L188.98 28.9219C188.98 28.9258 188.984 28.9258 188.984 28.9297C189.012 28.9727 189.234 29.3516 189.473 29.3672C189.727 29.3828 190.184 29.3672 190.184 29.3672C190.184 29.3672 190.348 29.3633 190.348 29.543V29.8164C190.348 29.8555 190.328 29.8907 190.293 29.9102C190.152 29.9883 189.789 30.2188 189.789 30.4805V31.0938C189.789 31.1211 189.797 31.1446 189.812 31.1641C189.859 31.2188 189.961 31.336 190.047 31.4063C190.141 31.4805 190.305 31.6719 190.371 31.7461C190.387 31.7657 190.395 31.7891 190.395 31.8164V32.168C190.398 32.1797 190.398 32.1953 190.402 32.2071C190.422 32.2539 190.473 32.3711 190.563 32.4141C190.617 32.4414 190.754 32.5508 190.879 32.6602C191.035 32.793 191.117 32.9922 191.102 33.1992L191.023 34.1992C191.016 34.2383 191.012 34.2774 191.004 34.3164L190.656 35.6211C190.648 35.6992 190.645 35.7735 190.637 35.8516L190.672 36.3867C190.68 36.4805 190.672 36.5742 190.641 36.6641L190.512 37.0274C190.473 37.1446 190.465 37.2696 190.492 37.3907L190.656 38.0664C190.676 38.1446 190.719 38.2149 190.785 38.2657L190.953 38.3985C191.016 38.4492 191.109 38.5196 191.176 38.4727C191.5 38.25 191.617 37.3516 191.758 37.0157C191.828 36.8438 192.867 35.4883 192.863 35.3047L192.855 35.043C192.855 34.9805 192.902 34.9336 192.965 34.9336H193.297C193.328 34.9336 193.355 34.9219 193.375 34.8985L194.152 34.0469C194.172 34.0274 194.18 34 194.18 33.9727V33.625C194.18 33.5625 194.23 33.5157 194.293 33.5157C194.426 33.5235 194.645 33.5235 194.719 33.461C194.813 33.3828 195.094 33.0547 195.184 32.9532C195.199 32.9336 195.211 32.9102 195.211 32.8828V32.3321C195.211 32.1719 195.27 32.0196 195.379 31.8985L195.77 31.4688C195.879 31.3516 195.906 31.1758 195.828 31.0196C195.789 30.9453 195.723 30.8828 195.645 30.8438V30.8438Z" fill="#BDCF46"/>
<path d="M222.605 18.496H221.512C221.457 18.496 221.41 18.4608 221.395 18.41L220.348 18.2108C220.258 18.2108 220.168 18.1835 220.09 18.1327L219.852 17.9725C219.773 17.9218 219.684 17.8944 219.594 17.8944C219.594 17.8944 217.156 16.6483 213.965 16.7694C212.766 16.8163 211.711 17.414 211.711 17.414C211.68 17.4257 211.656 17.4569 211.652 17.4882L211.641 17.5858C211.633 17.6327 211.594 17.6679 211.543 17.6679L211.062 17.6561C211.008 17.6561 210.965 17.6991 210.965 17.7499L209.621 17.7968C209.504 17.7968 209.395 17.8554 209.328 17.9491L209.207 18.1249C209.117 18.2538 207.914 18.2968 207.914 18.2968C207.883 18.2831 207.856 18.2608 207.838 18.2323C207.819 18.2039 207.809 18.1706 207.809 18.1366V17.996C207.809 17.9452 207.828 17.9022 207.867 17.8671L208.508 17.289C208.578 17.2265 208.668 17.1835 208.762 17.1718L209.16 17.121C209.183 17.1177 209.206 17.1098 209.226 17.0977C209.246 17.0856 209.263 17.0696 209.277 17.0507L209.324 16.9804C209.391 16.8866 209.348 16.7577 209.242 16.7186L209.215 16.7069C209.192 16.6991 209.168 16.6961 209.143 16.6981C209.119 16.7001 209.096 16.7071 209.074 16.7186L208.77 16.8944C208.742 16.91 208.715 16.9179 208.684 16.9179H208.387C208.262 16.9179 208.145 16.9686 208.055 17.0585L207.34 17.789C207.277 17.8515 207.234 17.9335 207.215 18.0194L207.148 18.3397L207.195 18.4765L206.914 18.8671L206.66 19.121H206.422V18.8671H206.137L206.055 19.1874C206.016 19.3358 205.91 19.453 205.77 19.5077L205.531 19.5975C205.379 19.6561 205.203 19.6288 205.074 19.5233L204.766 19.2733L205.598 19.3163L205.691 19.1366C205.691 19.1366 204.82 18.7343 204.316 18.4491C203.906 18.2186 203.367 18.414 203.18 18.496C203.133 18.5155 203.094 18.5429 203.059 18.5741L201.242 20.2108C201.047 20.3866 201.035 20.6952 201.223 20.8827L201.395 21.0585L201.637 20.8593C201.703 20.8046 201.797 20.8085 201.859 20.8671L202.313 21.289H202.43L202.859 20.7811C202.91 20.7186 202.914 20.6327 202.863 20.5702L202.809 20.496C202.788 20.4689 202.776 20.4362 202.773 20.4021C202.771 20.368 202.78 20.334 202.797 20.3046L203.395 19.3358C203.426 19.285 203.492 19.2655 203.547 19.289L203.652 19.3397C203.715 19.3671 203.738 19.4413 203.707 19.5038L203.297 20.2811C203.246 20.3749 203.238 20.4843 203.27 20.5819L203.336 20.789C203.367 20.9374 203.34 21.0936 203.25 21.2108L202.992 21.5585C202.902 21.6796 202.754 21.7499 202.602 21.746L201.855 21.7186C201.821 21.7168 201.789 21.7021 201.765 21.6775C201.741 21.6528 201.727 21.6201 201.727 21.5858V21.4647C201.727 21.3905 201.668 21.3319 201.594 21.3319C201.527 21.3319 201.469 21.3827 201.461 21.453L201.441 21.6679C201.434 21.7343 201.379 21.789 201.309 21.789H201.238C201.203 21.789 201.172 21.8007 201.148 21.8241L199.938 22.9413L200.113 23.1952V23.4647C200.113 23.5546 200.039 23.6288 199.949 23.6288H199.562C199.355 23.6288 199.191 23.8046 199.203 24.0116L199.207 24.0624C199.219 24.246 199.367 24.3905 199.555 24.3983L199.969 24.41C200.125 24.414 200.27 24.3436 200.363 24.2147L200.66 23.7968C200.746 23.6757 200.887 23.6015 201.039 23.6015H201.324C201.418 23.6015 201.512 23.6288 201.59 23.6835L202.047 24.0038C202.137 24.0663 202.145 24.1991 202.059 24.2694L201.801 24.4921C201.715 24.5663 201.609 24.6054 201.496 24.6054H199.887C199.742 24.6054 199.602 24.6757 199.516 24.7929L198.273 26.453C198.215 26.535 198.18 26.6327 198.18 26.7304V27.8319C198.18 27.9335 198.211 28.0311 198.273 28.1132L198.707 28.6874C198.742 28.7343 198.766 28.7929 198.785 28.8475C198.812 28.9413 198.891 29.078 199.078 29.078H201.086C201.086 29.078 201.59 29.0936 201.59 29.4257C201.59 29.5429 201.586 29.66 201.582 29.7616C201.574 29.9413 201.668 30.1015 201.824 30.1913C201.965 30.2733 202.113 30.414 202.113 30.6405V31.2499C202.113 31.2968 202.105 31.3436 202.094 31.3905C202.059 31.5038 201.977 31.7343 201.863 31.9061C201.758 32.0624 201.906 32.2968 202.016 32.4335C202.082 32.5194 202.117 32.6249 202.117 32.7304V33.3358C202.117 33.3358 202.164 33.5585 202.375 33.6522C202.586 33.746 202.66 33.8007 202.66 33.8007V34.0429C202.66 34.3007 202.867 34.5077 203.125 34.5077H203.734C203.734 34.5077 204.008 34.5272 204.187 34.2538C204.367 33.9804 205.008 32.9882 205.008 32.9882C205.008 32.9882 205.125 32.8632 205.008 32.6405C204.891 32.4179 204.945 32.2186 204.945 32.2186L205.504 31.8983C205.504 31.8983 205.766 31.8554 205.766 31.4921V31.0975C205.766 31.035 205.75 30.9725 205.715 30.9179L205.617 30.7538C205.512 30.5741 205.539 30.3514 205.68 30.1991L206.836 28.9725C206.836 28.9725 207.141 28.5194 207.141 28.289H206.254C206.09 28.289 205.941 28.203 205.855 28.0663L204.844 26.3983C204.826 26.3691 204.814 26.3366 204.81 26.3027C204.805 26.2688 204.807 26.2343 204.816 26.2013C204.825 26.1684 204.841 26.1376 204.863 26.111C204.884 26.0845 204.911 26.0626 204.941 26.0468C205.059 25.9843 205.203 26.0272 205.27 26.1366L206.25 27.7343L206.246 27.8788C206.246 27.9257 206.281 27.9608 206.328 27.9608C206.57 27.9608 207.285 27.9335 207.684 27.5858C207.895 27.4022 208.023 27.2147 208.102 27.0585C208.195 26.871 208.148 26.6444 207.992 26.5077L207.742 26.289L207.418 26.3593L206.844 25.785C206.758 25.6991 206.781 25.5507 206.891 25.496C206.921 25.4808 206.955 25.4745 206.989 25.478C207.023 25.4814 207.055 25.4944 207.082 25.5155L207.98 26.203C207.98 26.203 208.164 26.3671 208.352 26.3671H208.879C209.043 26.3671 209.195 26.453 209.277 26.5936L210.453 28.5702C210.453 28.5702 210.629 28.7343 210.73 28.7265C210.832 28.7186 210.969 28.2929 210.969 28.2929C210.969 27.8983 211.16 27.5233 211.484 27.2968L211.891 27.0116C212.074 26.8827 212.32 26.9022 212.48 27.0546L212.73 27.2968V27.5546C212.73 27.5975 212.766 27.6366 212.812 27.6366H212.922L213.027 27.5311H213.152V28.5702C213.152 28.6874 213.195 28.8007 213.277 28.8866L214.059 29.7225V29.4218C214.059 29.3163 214.023 29.2147 213.957 29.1327L213.59 28.6757C213.523 28.5936 213.488 28.4921 213.488 28.3866V28.0702C213.488 28.0194 213.551 27.996 213.586 28.0311L214.059 28.5155L214.07 28.8202C214.074 28.8788 214.145 28.9061 214.184 28.8632L214.852 28.1405C214.852 28.1405 215.047 27.8983 214.852 27.6991C214.711 27.5546 214.516 27.371 214.391 27.2538C214.375 27.2395 214.363 27.222 214.355 27.2024C214.346 27.1829 214.342 27.1618 214.343 27.1407C214.344 27.1195 214.349 27.0988 214.359 27.0798C214.368 27.0609 214.382 27.0443 214.398 27.0311L214.527 26.9218L215.051 26.9296C215.051 26.9296 215.395 26.9335 215.652 26.6679C215.969 26.3436 216.434 25.8319 216.434 25.8319C216.434 25.8319 216.527 25.4686 216.309 25.2772C216.086 25.0858 216.184 24.8515 216.184 24.8515L216.457 24.6132V24.4452H215.742C215.742 24.4452 215.805 24.0663 216.312 24.0429C216.379 24.039 216.441 24.039 216.492 24.035C216.544 24.0337 216.596 24.0429 216.644 24.062C216.693 24.081 216.737 24.1096 216.774 24.1461C216.811 24.1825 216.841 24.226 216.861 24.274C216.881 24.3221 216.891 24.3736 216.891 24.4257V25.1288L216.996 25.1405C216.996 25.1405 217.195 25.16 217.27 24.8983C217.27 24.8983 217.402 24.8593 217.402 24.6991V24.5077L217.211 24.2772L217.523 23.8788C217.578 23.8085 217.656 23.7616 217.742 23.746L217.902 23.7147C217.997 23.6968 218.082 23.6421 218.137 23.5624L218.859 22.4804C218.91 22.4022 218.937 22.3124 218.937 22.2225V21.9257C218.937 21.8873 218.922 21.8506 218.895 21.8235C218.868 21.7964 218.831 21.7811 218.793 21.7811H218.371C218.371 21.7811 218.195 21.5741 218.434 21.4335C218.602 21.3319 218.93 21.0624 219.113 20.91C219.195 20.8397 219.301 20.8007 219.41 20.8007H220.262C220.359 20.8007 220.453 20.7694 220.531 20.7147L221.09 20.3163C221.11 20.3011 221.135 20.2929 221.16 20.2929C221.402 20.2929 221.527 20.5819 221.363 20.7616L220.785 21.3827C220.707 21.4647 220.66 21.578 220.66 21.6913L220.652 22.1913C220.652 22.285 220.727 22.3632 220.824 22.3632H220.965L221.723 21.5897C221.773 21.539 221.809 21.4686 221.82 21.3983L221.848 21.2343C221.887 21.0116 222.078 20.8475 222.305 20.8475H222.637C222.75 20.8475 222.859 20.8085 222.941 20.7343L223.406 20.328C223.43 20.3085 223.457 20.2968 223.488 20.2968H223.73C223.801 20.2968 223.855 20.2421 223.855 20.1718V19.9374C223.855 19.9022 223.871 19.871 223.895 19.8475L224.074 19.6796C224.219 19.5468 224.43 19.5155 224.605 19.6093L224.91 19.7694C224.984 19.8085 225.078 19.789 225.133 19.7225L225.281 19.535C225.298 19.5139 225.31 19.4894 225.316 19.4631C225.322 19.4368 225.322 19.4096 225.316 19.3833C225.31 19.3571 225.298 19.3325 225.281 19.3114C225.264 19.2904 225.243 19.2733 225.219 19.2616L223.746 18.539C223.668 18.5116 222.676 18.496 222.605 18.496V18.496ZM201.973 23.371L201.984 23.3671C202.011 23.356 202.041 23.3535 202.07 23.3597C202.099 23.366 202.125 23.3808 202.145 23.4022L202.57 23.8475L202.305 24.0741L201.914 23.6015C201.852 23.5233 201.879 23.4061 201.973 23.371ZM204.516 25.4999H204.277C204.246 25.4999 204.215 25.496 204.184 25.4882C203.926 25.4179 202.637 25.0585 202.398 24.9491C202.372 24.9374 202.349 24.9195 202.331 24.897C202.313 24.8745 202.3 24.848 202.295 24.8197C202.289 24.7914 202.29 24.7621 202.298 24.7344C202.306 24.7066 202.32 24.6811 202.34 24.66L202.66 24.3202C202.77 24.2225 202.941 24.2304 203.043 24.3358L203.336 24.6444L203.59 24.5975L203.52 24.414C203.52 24.414 203.488 24.328 203.457 24.2499C203.426 24.1718 203.598 24.0741 203.598 24.0741C203.598 24.0741 203.773 24.0585 203.773 24.328C203.773 24.5975 204.059 24.8007 204.059 24.8007H205.031C205.094 24.8007 205.133 24.8671 205.102 24.9179L204.93 25.246C204.848 25.4022 204.688 25.4999 204.516 25.4999V25.4999ZM205.738 24.0429H205.406L205.164 23.8554C205.137 23.8358 205.104 23.8249 205.07 23.8241H204.754C204.707 23.8241 204.66 23.8436 204.625 23.8749L204.395 24.078L204.168 24.1132C204.147 24.1168 204.125 24.1161 204.104 24.1112C204.084 24.1062 204.064 24.097 204.047 24.0842C204.03 24.0715 204.015 24.0553 204.005 24.0368C203.994 24.0182 203.987 23.9977 203.984 23.9765L203.953 23.7265C203.945 23.6522 203.969 23.5819 204.016 23.5272L204.391 23.1054L204.559 23.0936L204.551 23.1679C204.539 23.2577 204.609 23.3358 204.699 23.3358H204.781C204.863 23.3358 204.937 23.289 204.969 23.2147L205.047 23.0468L205.395 23.1054L205.426 23.3554C205.434 23.41 205.461 23.4608 205.504 23.496L205.891 23.8202V23.8905C205.891 23.9765 205.824 24.0429 205.738 24.0429V24.0429ZM207.418 24.3124V24.5975H206.816L206.766 24.3124C206.758 24.2733 206.766 24.2304 206.789 24.1991L206.82 24.1561C206.863 24.0936 206.855 24.0077 206.797 23.9569L206.516 23.6991V23.2265L206.926 23.0507H207.137C207.219 23.0507 207.289 23.1054 207.312 23.1835L207.316 23.1952C207.332 23.2538 207.316 23.3124 207.277 23.3593C207.255 23.3844 207.24 23.4156 207.234 23.4491L207.195 23.6952L207.527 23.9999L207.289 24.1561L207.418 24.3124V24.3124Z" fill="#BDCF46"/>
<path d="M216.199 30.5899L214.777 30.4258C214.741 30.4222 214.705 30.413 214.672 30.3984L214.328 30.2578C214.277 30.2383 214.227 30.2031 214.188 30.1641L213.043 28.9649C213.027 28.9492 213.008 28.9373 212.987 28.9298C212.966 28.9224 212.944 28.9197 212.922 28.9219C212.813 28.9375 212.766 29.0664 212.84 29.1484L214.043 30.4961C214.094 30.5508 214.156 30.5899 214.227 30.6133L214.906 30.8164C214.945 30.8281 214.98 30.832 215.02 30.832H216.184L216.199 30.5899V30.5899ZM219.027 31.3477L218.969 31.5117C218.852 31.8399 218.523 32.0469 218.176 32.0039C218.152 32.0012 218.129 31.9927 218.11 31.979C218.09 31.9654 218.074 31.9472 218.063 31.9259C218.053 31.9046 218.047 31.881 218.048 31.8571C218.048 31.8332 218.055 31.8098 218.066 31.7891L218.359 31.25L217.598 31.2774C217.496 31.2813 217.395 31.3047 217.305 31.3477L217.02 31.4805C216.945 31.5156 216.875 31.5625 216.816 31.6211L216.285 32.1367C216.223 32.1992 216.148 32.25 216.066 32.2852L215.707 32.4453C215.438 32.5664 215.262 32.832 215.262 33.1289V33.1836C215.262 33.2852 215.281 33.3828 215.32 33.4766L215.602 34.1367C215.609 34.1524 215.613 34.1641 215.617 34.1797C215.664 34.3594 215.859 34.4649 216.035 34.4024L216.754 34.1484C216.855 34.1133 216.965 34.0977 217.07 34.1094L217.93 34.1875C218.164 34.207 218.371 34.3359 218.496 34.5352L218.555 34.625C218.691 34.8438 218.93 34.9766 219.191 34.9766H219.539C219.738 34.9766 219.93 34.8984 220.07 34.7578L220.453 34.375C220.594 34.2344 220.672 34.043 220.672 33.8438V33.3438C220.672 33.1328 220.582 32.9336 220.43 32.793L219.645 32.0742C219.57 32.0078 219.512 31.9258 219.473 31.8359L219.238 31.3281C219.188 31.25 219.059 31.2539 219.027 31.3477Z" fill="#BDCF46"/>
<path d="M215.617 30.0117L215.832 29.625C215.871 29.5547 215.887 29.4766 215.883 29.3984L215.848 28.9883C215.84 28.8906 215.723 28.8398 215.648 28.9063L215.047 29.4141C215.031 29.427 215.012 29.4363 214.992 29.4414L214.723 29.4922C214.652 29.5039 214.609 29.5742 214.625 29.6406L214.68 29.8633C214.696 29.9301 214.731 29.9913 214.779 30.0407C214.827 30.0901 214.887 30.1259 214.953 30.1445L215.16 30.2031C215.34 30.2539 215.527 30.1758 215.617 30.0117V30.0117ZM218.875 30.9219C218.934 30.9219 218.992 30.9102 219.047 30.8828L219.461 30.6836C219.465 30.6836 219.465 30.6836 219.469 30.6875L219.773 31.0625C219.789 31.082 219.813 31.0938 219.84 31.0938H220.043C220.113 31.0938 220.152 31.0156 220.109 30.9609L219.793 30.5508L219.656 30.4375L218.539 29.8828H218.535L218.27 29.9883H218.066C218.063 29.9883 218.063 29.9883 218.063 29.9844L217.988 29.7422C217.983 29.7265 217.973 29.7128 217.96 29.703C217.947 29.6932 217.931 29.6878 217.914 29.6875H217.641C217.62 29.6875 217.6 29.6957 217.585 29.7104C217.571 29.725 217.563 29.7449 217.563 29.7656V30.0039H217.738V30.0742C217.738 30.1602 217.805 30.2344 217.891 30.2461L218.289 30.293C218.289 30.293 218.293 30.293 218.293 30.2969L218.508 30.5625C218.574 30.6445 218.563 30.8438 218.492 30.9258L218.488 30.9297H218.875V30.9219ZM219.106 23.3477L218.965 23.4727C218.809 23.6133 218.715 23.8047 218.691 24.0156C218.672 24.2109 218.586 24.3906 218.449 24.5313C218.25 24.7305 218 24.8672 217.731 24.9258L217.676 24.9375L217.453 25.1172C217.453 25.1172 217.391 25.4336 217.453 25.5078C217.481 25.543 217.598 25.5352 217.633 25.5078C217.68 25.4727 217.684 25.2773 217.684 25.2773L218.391 25.0234C218.391 25.0234 218.566 25.2539 218.652 25.2656C218.691 25.2695 218.777 25.2266 218.801 25.1914C218.895 25.0625 219 24.5898 219 24.5898C219.035 24.4844 219.059 24.3711 219.07 24.2617L219.109 23.8477L219.426 23.8281L219.551 23.5742L219.223 23.543L219.106 23.3477V23.3477ZM206.07 33.0391C206.07 33.0391 206.176 33.2461 206.43 33.2461C206.684 33.2461 206.789 33.0391 206.789 33.0391V32.0742C206.789 31.793 206.481 31.6211 206.242 31.7695C206.137 31.8359 206.07 31.9492 206.07 32.0742V33.0391ZM198.078 16.2227L198.5 15.9766L198.508 15.9609C198.522 15.9325 198.529 15.9007 198.528 15.8688C198.526 15.8369 198.517 15.8059 198.5 15.7788C198.483 15.7517 198.459 15.7294 198.431 15.7141C198.403 15.6988 198.372 15.691 198.34 15.6914H197.379L197.277 15.582C197.16 15.4492 196.992 15.3711 196.816 15.3672L195.387 15.3086C195.293 15.3242 195.199 15.3438 195.106 15.3594L194.258 15.7148C194.188 15.7461 194.113 15.7617 194.035 15.7656L192.676 15.832C192.574 15.8359 192.477 15.8672 192.387 15.9141L191.625 16.3438C191.613 16.3509 191.602 16.361 191.594 16.3733C191.587 16.3855 191.582 16.3995 191.582 16.4139C191.581 16.4283 191.584 16.4426 191.59 16.4556C191.596 16.4686 191.606 16.4799 191.617 16.4883C191.676 16.5313 191.656 16.625 191.586 16.6406L190.992 16.7891C190.934 16.8047 190.91 16.8711 190.938 16.918L191.137 17.2422C191.148 17.2617 191.172 17.2773 191.195 17.2813L192.262 17.4648C192.426 17.4922 192.57 17.582 192.672 17.7148L193.406 18.6797L193.621 18.9727C193.699 19.0781 193.688 19.2227 193.602 19.3164L193.438 19.4883C193.359 19.5703 193.344 19.6914 193.395 19.793L193.93 20.8633C193.977 20.9609 194.066 21.0313 194.168 21.0625C194.5 21.1602 194.852 20.9805 194.969 20.6523L195.109 20.2539C195.129 20.1953 195.172 20.1445 195.227 20.1094L195.824 19.6016C195.898 19.5391 195.984 19.4961 196.074 19.4688L197.012 19.2148C197.211 19.1602 197.371 19.0195 197.445 18.8281L197.887 17.7344C197.953 17.5742 197.949 17.3945 197.883 17.2344L197.797 17.0313C197.676 16.7383 197.793 16.3906 198.078 16.2227V16.2227ZM190.266 17.1719L190.445 16.8555C190.508 16.7461 190.594 16.6602 190.703 16.6016L192.18 15.7852L192.012 15.5937L190.336 15.4922C190.289 15.4883 190.238 15.4922 190.191 15.5L188.559 15.7617C188.461 15.7773 188.367 15.8125 188.285 15.8711C187.957 16.0938 187.898 16.5547 188.156 16.8555L188.523 17.2813C188.648 17.4297 188.836 17.5117 189.027 17.5117H189.684C189.926 17.5117 190.148 17.3828 190.266 17.1719V17.1719ZM192.129 20.1523L192.281 19.9766C192.32 19.9297 192.313 19.8594 192.262 19.8281L191.785 19.4922L190.121 18.2617C190.051 18.2109 189.969 18.1836 189.883 18.1836H189.227C189.121 18.1836 189.023 18.2227 188.949 18.2969L188.602 18.6328C188.583 18.65 188.571 18.674 188.57 18.6996C188.568 18.7251 188.577 18.7503 188.594 18.7695L188.789 19.0156C188.809 19.043 188.844 19.0586 188.879 19.0547L189.066 19.0391C189.125 19.0352 189.172 19.0781 189.176 19.1328L189.184 19.2422C189.184 19.2578 189.184 19.2734 189.176 19.2891L189.09 19.5C189.074 19.5352 189.082 19.5781 189.106 19.6055L189.313 19.8477C189.332 19.8711 189.363 19.8867 189.395 19.8828L189.594 19.875C189.648 19.8711 189.691 19.8281 189.691 19.7734V19.3477C189.691 19.293 189.734 19.25 189.785 19.2461L190.063 19.2266C190.086 19.2266 190.113 19.2305 190.133 19.2461L190.641 19.6328C190.68 19.6641 190.691 19.7148 190.672 19.7578L190.504 20.0938C190.488 20.125 190.457 20.1484 190.418 20.1484L190.258 20.1602C190.211 20.1641 190.176 20.1953 190.164 20.2383C190.152 20.3008 190.195 20.3594 190.258 20.3633L190.602 20.3906C190.672 20.3945 190.742 20.4219 190.801 20.4609L191.406 20.8828C191.445 20.9102 191.496 20.9063 191.531 20.875L191.723 20.7148C191.738 20.7031 191.75 20.6836 191.754 20.6641L191.816 20.4219C191.824 20.3945 191.82 20.3633 191.805 20.3398L191.598 20.0195L191.664 20.0078C191.688 20.0039 191.715 20.0078 191.734 20.0195L192 20.1758C192.039 20.1992 192.094 20.1914 192.129 20.1523V20.1523ZM184.555 18.9492V18.6016H184.762L185.066 19.0273C185.106 19.0781 185.152 19.1211 185.211 19.1523L185.609 19.3516C185.664 19.3789 185.727 19.3945 185.789 19.3945H187.023V18.9844L186.566 18.8242L186.039 18.543C185.969 18.543 185.902 18.5234 185.844 18.4922L185 18.0117C184.941 17.9777 184.873 17.9601 184.805 17.9609H184.297C184.125 17.9609 183.973 18.0703 183.918 18.2344L183.875 18.3711C183.828 18.5117 183.867 18.6719 183.973 18.7773L184.152 18.957H184.555V18.9492ZM186.309 18.2695L186.633 18.1016C186.688 18.0742 186.75 18.0586 186.816 18.0586H186.992C187.145 18.0586 187.285 18.1445 187.352 18.2852L187.481 18.5508V18.8242H186.895V18.4766L186.648 18.3516L186.356 18.3594L186.309 18.2695V18.2695ZM187.43 18.0586L187.723 18.5352L187.953 18.6719H188.293L188.633 18.3125L188.375 17.9766L187.715 18.0586H187.43ZM185.535 17.332L185.996 17.4961C186.027 17.5078 186.055 17.5195 186.082 17.5391L186.402 17.75C186.457 17.7852 186.516 17.8086 186.582 17.8125L187.164 17.8711L187.094 17.5117L186.398 17.1289C186.34 17.0977 186.273 17.0781 186.207 17.0781H185.852L185.535 17.332V17.332ZM200.313 20.2695L200.481 20.5352C200.496 20.5586 200.496 20.5938 200.477 20.6172L200.348 20.793C200.336 20.8125 200.328 20.8359 200.336 20.8555L200.387 21.0313C200.391 21.0469 200.398 21.0586 200.41 21.0664L200.68 21.2734C200.863 21.4141 200.887 21.6836 200.731 21.8555L200.727 21.8594C200.652 21.9414 200.543 21.9922 200.43 21.9922H200.109C200.063 21.9922 200.027 21.9492 200.039 21.9023L200.121 21.582C200.125 21.5625 200.141 21.543 200.16 21.5352L200.305 21.4648C200.332 21.4531 200.348 21.4219 200.344 21.3906L200.336 21.3047C200.334 21.2895 200.327 21.2754 200.317 21.2642C200.306 21.253 200.292 21.2453 200.277 21.2422L200.07 21.1992C200.055 21.196 200.039 21.1982 200.025 21.2052C200.01 21.2123 199.999 21.224 199.992 21.2383L199.945 21.3398C199.945 21.3438 199.941 21.3477 199.941 21.3516L199.84 21.6953C199.832 21.7266 199.801 21.7461 199.77 21.7461L199.445 21.7383C199.427 21.7383 199.409 21.7309 199.396 21.7177C199.382 21.7045 199.375 21.6866 199.375 21.668V21.3008C199.375 21.2617 199.406 21.2305 199.445 21.2305L199.613 21.2266C199.637 21.2266 199.656 21.2148 199.672 21.1953L199.828 20.9688C199.836 20.957 199.84 20.9414 199.84 20.9258V20.582C199.84 20.5586 199.852 20.5391 199.867 20.5273L200.207 20.2539C200.238 20.2266 200.289 20.2344 200.313 20.2695V20.2695Z" fill="#BDCF46"/>
<path d="M196.641 19.7148H196.379L196.215 19.9062L196.664 20.2578C196.746 20.3242 196.852 20.3516 196.957 20.3398L197.469 20.2773V19.9453L197.371 19.7109L196.84 19.8477L196.641 19.7148ZM201.57 16.9062H202.246C202.328 16.9062 202.406 16.9297 202.473 16.9766L203.172 17.4648L203.078 17.6055L202.488 17.3047L202.246 17.7461H201.984L201.406 17.0195L201.57 16.9062ZM202.809 16.3867H203.684L203.906 16.5547L203.684 16.7852H203.215C203.129 16.7852 203.047 16.7578 202.98 16.707L202.727 16.5195L202.809 16.3867V16.3867ZM186.797 16.6211L187.375 16.4062L187.715 16.582L187.883 16.8984L187.672 16.9375L187.039 17.1367L186.238 16.7617L186.797 16.6211ZM188.215 17.5703H188.465L188.594 17.7109H189.93L190.039 17.8711L189.969 18.0195L188.727 18.0586L188.586 17.9023L188.379 17.8711L188.348 17.7422L188.215 17.6953V17.5703ZM187.242 17.5938L187.34 17.8711L187.594 17.8906L187.801 17.6523L187.711 17.5703L187.34 17.5391L187.242 17.5938ZM187.93 17.2539L187.883 17.4102L188.078 17.4727L188.215 17.3633H188.301V17.293L188.133 17.2227L188.031 17.1836L187.93 17.2539ZM189.48 27.2812L189.723 27.1758H190.371L190.875 27.5547C190.875 27.5547 191.113 27.5859 191.113 27.6484C191.113 27.7109 190.875 27.7422 190.875 27.7422H190.527L190.039 27.4102L189.738 27.457L189.48 27.3516C189.449 27.3437 189.449 27.2969 189.48 27.2812V27.2812ZM191.16 27.8789C191.133 27.8164 191.352 27.6875 191.352 27.6875C191.352 27.6875 191.703 27.5977 191.754 27.6875C191.781 27.7383 191.629 27.8789 191.629 27.8789C191.629 27.8789 191.207 27.9883 191.16 27.8789ZM219.117 35.3867H219.938L219.527 35.8633H219.336L219.117 35.3867Z" fill="#BDCF46"/>
</g>
<defs>
<filter id="filter0_d_10_48" x="0.769897" y="13.2344" width="158.92" height="30.064" filterUnits="userSpaceOnUse" color-interpolation-filters="sRGB">
<feFlood flood-opacity="0" result="BackgroundImageFix"/>
<feColorMatrix in="SourceAlpha" type="matrix" values="0 0 0 0 0 0 0 0 0 0 0 0 0 0 0 0 0 0 127 0" result="hardAlpha"/>
<feOffset dy="4"/>
<feGaussianBlur stdDeviation="2"/>
<feComposite in2="hardAlpha" operator="out"/>
<feColorMatrix type="matrix" values="0 0 0 0 0 0 0 0 0 0 0 0 0 0 0 0 0 0 0.25 0"/>
<feBlend mode="normal" in2="BackgroundImageFix" result="effect1_dropShadow_10_48"/>
<feBlend mode="normal" in="SourceGraphic" in2="effect1_dropShadow_10_48" result="shape"/>
</filter>
<filter id="filter1_d_10_48" x="174.055" y="7.60156" width="55.8906" height="43.9375" filterUnits="userSpaceOnUse" color-interpolation-filters="sRGB">
<feFlood flood-opacity="0" result="BackgroundImageFix"/>
<feColorMatrix in="SourceAlpha" type="matrix" values="0 0 0 0 0 0 0 0 0 0 0 0 0 0 0 0 0 0 127 0" result="hardAlpha"/>
<feOffset dy="4"/>
<feGaussianBlur stdDeviation="2"/>
<feComposite in2="hardAlpha" operator="out"/>
<feColorMatrix type="matrix" values="0 0 0 0 0 0 0 0 0 0 0 0 0 0 0 0 0 0 0.25 0"/>
<feBlend mode="normal" in2="BackgroundImageFix" result="effect1_dropShadow_10_48"/>
<feBlend mode="normal" in="SourceGraphic" in2="effect1_dropShadow_10_48" result="shape"/>
</filter>
<clipPath id="clip0_10_48">
<rect width="50" height="50" fill="white" transform="translate(177)"/>
</clipPath>
</defs>
</svg>
