<svg width="608" height="105" viewBox="0 0 608 105" fill="none" xmlns="http://www.w3.org/2000/svg">
<g filter="url(#filter0_d_155_10)">
<rect x="4" y="0.5" width="600" height="96" rx="8" fill="black" fill-opacity="0.5" shape-rendering="crispEdges"/>
<path d="M60 48.5C63.1826 48.5 66.2348 47.2357 68.4853 44.9853C70.7357 42.7348 72 39.6826 72 36.5C72 33.3174 70.7357 30.2652 68.4853 28.0147C66.2348 25.7643 63.1826 24.5 60 24.5C56.8174 24.5 53.7652 25.7643 51.5147 28.0147C49.2643 30.2652 48 33.3174 48 36.5C48 39.6826 49.2643 42.7348 51.5147 44.9853C53.7652 47.2357 56.8174 48.5 60 48.5V48.5ZM68 36.5C68 38.6217 67.1571 40.6566 65.6569 42.1569C64.1566 43.6571 62.1217 44.5 60 44.5C57.8783 44.5 55.8434 43.6571 54.3431 42.1569C52.8429 40.6566 52 38.6217 52 36.5C52 34.3783 52.8429 32.3434 54.3431 30.8431C55.8434 29.3429 57.8783 28.5 60 28.5C62.1217 28.5 64.1566 29.3429 65.6569 30.8431C67.1571 32.3434 68 34.3783 68 36.5V36.5ZM84 68.5C84 72.5 80 72.5 80 72.5H40C40 72.5 36 72.5 36 68.5C36 64.5 40 52.5 60 52.5C80 52.5 84 64.5 84 68.5ZM80 68.484C79.996 67.5 79.384 64.54 76.672 61.828C74.064 59.22 69.156 56.5 60 56.5C50.84 56.5 45.936 59.22 43.328 61.828C40.616 64.54 40.008 67.5 40 68.484H80Z" fill="white"/>
<line x1="100.5" y1="16.5" x2="100.5" y2="80.5" stroke="white"/>
</g>
<defs>
<filter id="filter0_d_155_10" x="0" y="0.5" width="608" height="104" filterUnits="userSpaceOnUse" color-interpolation-filters="sRGB">
<feFlood flood-opacity="0" result="BackgroundImageFix"/>
<feColorMatrix in="SourceAlpha" type="matrix" values="0 0 0 0 0 0 0 0 0 0 0 0 0 0 0 0 0 0 127 0" result="hardAlpha"/>
<feOffset dy="4"/>
<feGaussianBlur stdDeviation="2"/>
<feComposite in2="hardAlpha" operator="out"/>
<feColorMatrix type="matrix" values="0 0 0 0 0 0 0 0 0 0 0 0 0 0 0 0 0 0 0.25 0"/>
<feBlend mode="normal" in2="BackgroundImageFix" result="effect1_dropShadow_155_10"/>
<feBlend mode="normal" in="SourceGraphic" in2="effect1_dropShadow_155_10" result="shape"/>
</filter>
</defs>
</svg>
